<svg xmlns="http://www.w3.org/2000/svg" xmlns:xlink="http://www.w3.org/1999/xlink" viewBox="0 0 351.62 441.91"><defs><style>.cls-1{isolation:isolate;}.cls-2{fill:#231f20;}.cls-3{fill:#fff;}.cls-4,.cls-7,.cls-9{stroke:#231f20;stroke-miterlimit:10;stroke-width:6px;}.cls-4{fill:url(#linear-gradient);}.cls-5{opacity:0.2;mix-blend-mode:multiply;}.cls-6{fill:url(#linear-gradient-2);}.cls-7{fill:url(#linear-gradient-3);}.cls-8{fill:url(#linear-gradient-4);}.cls-9{fill:url(#linear-gradient-5);}.cls-10{fill:url(#linear-gradient-6);}</style><linearGradient id="linear-gradient" x1="112.63" y1="146.2" x2="370.45" y2="398.09" gradientTransform="matrix(-1, 0, 0, 1, 372.39, 0)" gradientUnits="userSpaceOnUse"><stop offset="0" stop-color="#8dc63f"/><stop offset="0.17" stop-color="#7cba3e"/><stop offset="0.5" stop-color="#4f9c3c"/><stop offset="0.96" stop-color="#066c38"/><stop offset="1" stop-color="#006838"/></linearGradient><linearGradient id="linear-gradient-2" x1="192.23" y1="387.55" x2="371.25" y2="77.48" gradientTransform="matrix(-1, 0, 0, 1, 372.39, 0)" gradientUnits="userSpaceOnUse"><stop offset="0" stop-color="#231f20"/><stop offset="0.11" stop-color="#343031"/><stop offset="0.34" stop-color="#615e5e"/><stop offset="0.65" stop-color="#a8a7a7"/><stop offset="1" stop-color="#fff"/></linearGradient><linearGradient id="linear-gradient-3" x1="30.07" y1="235.32" x2="216.66" y2="417.62" xlink:href="#linear-gradient"/><linearGradient id="linear-gradient-4" x1="94.98" y1="402.83" x2="218.52" y2="188.86" xlink:href="#linear-gradient-2"/><linearGradient id="linear-gradient-5" x1="216.35" y1="303.67" x2="350.05" y2="434.29" xlink:href="#linear-gradient"/><linearGradient id="linear-gradient-6" x1="272.09" y1="414.66" x2="353" y2="274.52" xlink:href="#linear-gradient-2"/></defs><title>bgislands2</title><g class="cls-1"><g id="Layer_1" data-name="Layer 1"><path class="cls-2" d="M14.89,440V319.48c0-1.37,0-2.77.1-4.17,0-.31,0-.61.07-.92l.06-.79c.05-.81.1-1.62.18-2.42,0-.37.09-.74.14-1.11l.12-1c.07-.66.15-1.33.25-2,.06-.4.14-.8.21-1.2l.17-1c.11-.6.21-1.2.33-1.8.08-.41.18-.82.27-1.23l.21-.95c.14-.58.27-1.17.41-1.75s.23-.86.35-1.29L18,297c.15-.57.31-1.13.48-1.69s.29-.9.44-1.34l.24-.74c.19-.58.38-1.14.58-1.7s.35-.92.53-1.38l.25-.65c.21-.56.43-1.12.66-1.67s.41-1,.62-1.43L22,286c.26-.57.51-1.13.77-1.69s.46-.95.7-1.43l.21-.42.86-1.66c.27-.52.56-1,.85-1.53l.58-1V127.39c0-1,0-2,0-3.06,0-.22,0-1.25,0-1.25,0-.6,0-1.19.07-1.78,0-.27.09-1.54.09-1.54,0-.49.06-1,.1-1.48,0-.31.13-1.6.13-1.6,0-.47.08-.94.13-1.4s.18-1.67.18-1.67l.15-1.31c.05-.33.09-.66.14-1l.09-.63.18-1.34c.06-.34.22-1.36.22-1.36l0-.24c.07-.44.14-.89.22-1.33l.26-1.37,0-.18c.09-.46.17-.91.26-1.36l.31-1.47c.1-.47.2-.94.31-1.41s.18-.79.28-1.18l.07-.31c.11-.46.22-.91.34-1.36s.23-.92.36-1.37.25-1,.39-1.47l.39-1.33c.14-.5.28-1,.43-1.47s.28-.9.43-1.35.3-1,.46-1.42.3-.9.46-1.34.32-.94.49-1.4.32-.89.49-1.33.35-.93.53-1.39.34-.88.52-1.32.36-.9.55-1.35.37-.89.56-1.33.38-.88.58-1.32.39-.88.59-1.31.4-.87.61-1.3.41-.87.62-1.3.43-.86.64-1.28.44-.87.66-1.29l.66-1.26.69-1.27q.33-.61.69-1.23l.72-1.27.7-1.19.77-1.27.72-1.16.8-1.26.74-1.13.84-1.25c.19-.29.88-1.27.88-1.27l.75-1.07.77-1,.14-.19c.26-.36.51-.71.78-1.06S51,54,51,54c.27-.36.54-.71.82-1.06l.92-1.14.87-1.07.92-1.09.92-1.09.81-.91,1.08-1.21.53-.56c.46-.51.93-1,1.41-1.52l.1-.1c2.44-2.54,5-5,7.7-7.35l.33-.3c.54-.47,1.09-.93,1.64-1.39l.52-.44,1.58-1.28.62-.5q.78-.62,1.56-1.2l.69-.54,1.49-1.09.81-.59c.48-.35,1-.69,1.48-1l.84-.58,1.56-1,.81-.53,1.57-1,.84-.52c.53-.33,1-.64,1.58-.95l.87-.52,1.6-.91.88-.49L90,21.09l.9-.47c.54-.29,1.09-.56,1.64-.84l.91-.45,1.66-.8L96,18.1l1.69-.76.93-.41,1.71-.72.93-.38q.87-.36,1.74-.69l1-.36,1.76-.65,1-.33,1.79-.61,1-.31,1.83-.57.84-.25,2-.56.93-.25,1.9-.5.91-.22,1.94-.46.89-.19c.66-.15,1.32-.29,2-.42l.85-.17,2-.37.82-.14,2.11-.34.75-.1c.73-.11,1.47-.21,2.2-.3L132,8c.78-.1,1.54-.18,2.32-.26l.53,0c.82-.07,1.63-.15,2.45-.21l.37,0c2.88-.2,5.76-.31,8.55-.31A120.41,120.41,0,0,1,266.52,127.39v10.15a97.3,97.3,0,0,1,91,97.09V440Z" transform="translate(-10.39 -2.62)"/><path class="cls-3" d="M146.26,11.62A115.77,115.77,0,0,1,262,127.39v14.47a92.8,92.8,0,0,1,91,92.77v200.9H19.39v-116c0-1.33,0-2.64.1-4,0-.44.06-.87.09-1.3.06-.87.12-1.74.2-2.6,0-.51.13-1,.19-1.54.09-.77.18-1.54.29-2.3.09-.55.19-1.09.29-1.63.12-.72.24-1.44.38-2.15.11-.56.25-1.1.37-1.66s.3-1.37.48-2.05.3-1.11.45-1.67.37-1.32.57-2,.36-1.11.54-1.66.42-1.28.65-1.91.41-1.1.62-1.65.48-1.23.73-1.84.47-1.08.71-1.62.53-1.2.81-1.79.52-1.06.79-1.59.58-1.16.88-1.72.58-1.05.87-1.57.63-1.11,1-1.66a2,2,0,0,0,.14-.25v-152c0-1,0-2,0-2.94,0-.34,0-.67,0-1,0-.64,0-1.29.07-1.93,0-.39.05-.78.07-1.17,0-.58.07-1.16.11-1.74,0-.41.08-.83.11-1.24s.09-1.1.15-1.65.09-.85.14-1.28.11-1.06.18-1.58.12-.87.18-1.3l.21-1.55.21-1.3c.09-.51.17-1,.25-1.52s.17-.88.25-1.32.18-1,.28-1.48.19-.88.28-1.31.21-1,.32-1.46.2-.88.31-1.32.23-1,.35-1.43.23-.88.34-1.31.25-1,.38-1.41l.38-1.31c.14-.46.27-.93.41-1.39s.28-.87.41-1.3l.45-1.37c.14-.43.29-.86.44-1.29s.31-.9.47-1.35.32-.85.47-1.28l.51-1.33c.17-.43.33-.85.5-1.27L39.34,83c.17-.42.35-.84.53-1.27s.37-.85.56-1.27L41,79.15c.19-.42.39-.84.59-1.26s.39-.83.6-1.25.4-.82.61-1.23l.63-1.24c.21-.4.42-.81.64-1.21l.66-1.23.66-1.18.7-1.22c.22-.39.45-.77.68-1.15L47.5,67c.23-.37.47-.74.7-1.12L49,64.63c.23-.36.47-.72.71-1.08l.81-1.21.73-1.05.84-1.2c.24-.34.49-.67.74-1l.89-1.21.73-1c.31-.4.62-.81.94-1.21l.72-.9,1-1.23c.22-.28.46-.55.69-.82.36-.43.71-.85,1.08-1.27l.63-.71c.39-.45.79-.9,1.19-1.34l.5-.54c.45-.49.91-1,1.37-1.46l.1-.1q3.54-3.7,7.4-7.08l.32-.28L72,38.63l.5-.42c.5-.42,1-.83,1.52-1.24l.6-.48,1.5-1.16.67-.51,1.48-1.09.72-.53,1.49-1,.75-.52,1.5-1,.79-.52,1.5-.95.82-.51c.5-.31,1-.61,1.52-.91.27-.17.55-.33.83-.49l1.54-.88.85-.48,1.56-.84.86-.45,1.58-.81.88-.43L97,22.6l.89-.41,1.62-.74.9-.39c.55-.23,1.1-.47,1.65-.69L103,20c.56-.23,1.11-.45,1.67-.66l.91-.35,1.7-.62.91-.32,1.73-.59.9-.29c.59-.19,1.17-.38,1.76-.55.3-.1.6-.18.9-.27l1.79-.52.89-.24,1.83-.48.88-.21,1.87-.44.86-.19,1.91-.4.82-.16c.66-.12,1.31-.25,2-.36l.79-.13c.68-.11,1.35-.23,2-.33l.73-.1c.7-.1,1.4-.2,2.11-.28l.64-.08c.74-.08,1.48-.17,2.23-.24l.51,0,2.37-.2.34,0c2.72-.19,5.47-.3,8.24-.3m0-9c-2.89,0-5.88.11-8.88.32h0L137,3l-2.54.21-.15,0-.41,0c-.8.08-1.59.17-2.39.27l-.22,0-.47,0-2.28.31-.24,0-.54.07-2.19.35-.27,0-.58.1-2.12.39-.27,0-.62.13c-.69.13-1.38.28-2.07.43l-.24,0-.68.15c-.67.15-1.35.31-2,.48l-.22,0-.72.17-2,.52-.18,0-.78.21-1.94.56-.11,0-.85.25-1.9.6-1,.32q-.93.3-1.86.63l-1,.35-1.84.67-1,.37-1.81.71-1,.4-1.78.75-1,.42L94.14,14l-1,.45-1.72.83-.89.44,0,0-1.71.87L88,17l-.14.07L86.19,18c-.25.13-.49.27-.73.41l-.19.1-1.65.95-.7.4-.2.13-1.64,1-.65.41-.23.14-1.62,1L78,23l-.24.15c-.54.36-1.08.71-1.61,1.08l-.58.4-.24.16-1.6,1.13c-.18.12-.36.26-.53.39l-.24.17-1.6,1.18-.5.38-.22.17c-.54.41-1.08.82-1.62,1.25l-.44.35-.2.17c-.55.44-1.1.88-1.64,1.33l-.38.31-.16.14-1.71,1.45-.27.24-.07.06c-2.76,2.42-5.44,5-8,7.61l-.11.11c-.51.53-1,1.06-1.48,1.59l-.16.17c-.13.14-.26.27-.38.41l-1.14,1.27-.15.17-.21.24-.46.52-1,1.16-.18.21-.22.26-.52.62c-.31.37-.61.75-.91,1.12l-.17.21-.22.27-.56.7c-.29.36-.57.73-.85,1.09l-.16.22-.21.26c-.19.26-.39.52-.59.77l-.81,1.11-.15.19-.17.24-.62.85c-.27.37-.53.75-.79,1.13l-.12.17-.14.2-.64.93-.79,1.17-.08.13-.1.16c-.23.33-.45.67-.67,1L40.63,61l-.05.07,0,.09c-.24.37-.47.74-.7,1.12L39,63.56l-.73,1.25c-.26.44-.5.88-.75,1.32l-.72,1.27-.71,1.33L35.44,70l-.68,1.33-.66,1.33L33.45,74l-.63,1.35c-.21.45-.41.91-.61,1.36s-.41.92-.6,1.38S31.22,79,31,79.5s-.39.93-.58,1.4l-.54,1.37-.55,1.44c-.17.46-.34.92-.5,1.38s-.35,1-.52,1.45-.32.93-.47,1.4l-.48,1.47c-.15.47-.3.94-.44,1.41l-.45,1.5c-.14.48-.27.94-.4,1.4s-.28,1-.41,1.52l0,.12-.34,1.3L25,98.14v.06l-.05.21c-.1.4-.2.81-.29,1.21s-.21,1-.31,1.44l0,.14-.06.26L24,102.61,23.69,104l0,.21,0,.31-.21,1.11c-.08.46-.15.91-.23,1.37l0,.26-.06.34c0,.36-.11.71-.17,1.07s-.13.91-.19,1.37l0,.29-.05.37c-.05.35-.1.69-.14,1s-.11.92-.16,1.38l0,.32-.05.38c0,.34-.07.67-.11,1s-.09,1-.13,1.44l0,.33,0,.4c0,.31-.06.62-.08.94,0,.51-.07,1-.1,1.54l0,.33,0,.38-.06.88c0,.61,0,1.23-.07,1.85v.57l0,.73c0,1.07,0,2.13,0,3.17V277c-.3.53-.6,1.06-.89,1.61s-.63,1.21-.93,1.81l-.05.11-.13.25c-.26.5-.51,1-.76,1.53s-.55,1.2-.81,1.81l-.09.18-.13.31c-.22.5-.45,1-.66,1.5s-.48,1.2-.71,1.8l-.1.26-.14.37c-.19.49-.38,1-.56,1.47s-.42,1.2-.62,1.81l-.1.32-.14.42c-.16.47-.32.95-.47,1.44s-.36,1.22-.53,1.83l-.1.37-.12.45c-.14.47-.27.94-.39,1.42s-.3,1.25-.44,1.88l-.09.41-.11.48c-.11.45-.21.91-.3,1.37-.13.65-.25,1.31-.36,2l-.07.44-.09.48c-.08.45-.16.89-.23,1.34-.11.76-.19,1.46-.27,2.14L11,309c0,.15,0,.31-.07.47-.05.41-.1.83-.14,1.25-.1.91-.15,1.76-.21,2.59l0,.3,0,.39c0,.35-.05.71-.07,1.06-.07,1.48-.11,3-.11,4.4v125H362V234.63a101.81,101.81,0,0,0-91-101.22v-6A124.77,124.77,0,0,0,146.26,2.62Z" transform="translate(-10.39 -2.62)"/><path class="cls-4" d="M146.26,11.62A115.77,115.77,0,0,1,262,127.39V435.53H30.49V127.39A115.77,115.77,0,0,1,146.26,11.62Z" transform="translate(-10.39 -2.62)"/><g class="cls-5"><path class="cls-6" d="M30.49,127.39A115.78,115.78,0,0,1,140.58,11.76s-47.71,35.86-44.3,120.7c1.78,44.42,1.18,216.74.77,303.07H30.49Z" transform="translate(-10.39 -2.62)"/></g><path class="cls-7" d="M260.21,141.84A92.79,92.79,0,0,1,353,234.63v200.9H167.42V234.63A92.79,92.79,0,0,1,260.21,141.84Z" transform="translate(-10.39 -2.62)"/><g class="cls-5"><path class="cls-8" d="M167.42,234.63A92.8,92.8,0,0,1,255.66,142s-38.24,28.74-35.51,96.74c1.43,35.61.95,127.64.62,196.84H167.42Z" transform="translate(-10.39 -2.62)"/></g><path class="cls-9" d="M97.24,241.62a77.85,77.85,0,0,1,77.85,77.86v116H19.39v-116A77.85,77.85,0,0,1,97.24,241.62Z" transform="translate(-10.39 -2.62)"/><g class="cls-5"><path class="cls-10" d="M19.39,319.48a77.85,77.85,0,0,1,74-77.76s-32.08,24.11-29.79,81.17c1.2,29.87.79,54.58.52,112.64H19.39Z" transform="translate(-10.39 -2.62)"/></g></g></g></svg>