<svg xmlns="http://www.w3.org/2000/svg" xmlns:xlink="http://www.w3.org/1999/xlink" viewBox="0 0 351.62 441.91"><defs><style>.cls-1{isolation:isolate;}.cls-2{fill:#231f20;}.cls-3{fill:#fff;}.cls-4,.cls-7,.cls-9{stroke:#231f20;stroke-miterlimit:10;stroke-width:6px;}.cls-4{fill:url(#linear-gradient);}.cls-5{opacity:0.2;mix-blend-mode:multiply;}.cls-6{fill:url(#linear-gradient-2);}.cls-7{fill:url(#linear-gradient-3);}.cls-8{fill:url(#linear-gradient-4);}.cls-9{fill:url(#linear-gradient-5);}.cls-10{fill:url(#linear-gradient-6);}</style><linearGradient id="linear-gradient" x1="112.63" y1="146.2" x2="370.45" y2="398.09" gradientUnits="userSpaceOnUse"><stop offset="0" stop-color="#8dc63f"/><stop offset="0.17" stop-color="#7cba3e"/><stop offset="0.5" stop-color="#4f9c3c"/><stop offset="0.96" stop-color="#066c38"/><stop offset="1" stop-color="#006838"/></linearGradient><linearGradient id="linear-gradient-2" x1="192.23" y1="387.55" x2="371.25" y2="77.48" gradientUnits="userSpaceOnUse"><stop offset="0" stop-color="#231f20"/><stop offset="0.11" stop-color="#343031"/><stop offset="0.34" stop-color="#615e5e"/><stop offset="0.65" stop-color="#a8a7a7"/><stop offset="1" stop-color="#fff"/></linearGradient><linearGradient id="linear-gradient-3" x1="30.07" y1="235.32" x2="216.66" y2="417.62" xlink:href="#linear-gradient"/><linearGradient id="linear-gradient-4" x1="94.98" y1="402.83" x2="218.52" y2="188.86" xlink:href="#linear-gradient-2"/><linearGradient id="linear-gradient-5" x1="216.35" y1="303.67" x2="350.05" y2="434.29" xlink:href="#linear-gradient"/><linearGradient id="linear-gradient-6" x1="272.09" y1="414.66" x2="353" y2="274.52" xlink:href="#linear-gradient-2"/></defs><title>bgislands</title><g class="cls-1"><g id="Layer_1" data-name="Layer 1"><path class="cls-2" d="M14.89,440V234.63a97.29,97.29,0,0,1,91-97.09V127.39A120.41,120.41,0,0,1,226.14,7.12c2.79,0,5.67.11,8.55.31l.36,0c.82.06,1.64.14,2.45.21l.54,0c.77.08,1.54.16,2.31.26L241,8c.75.09,1.48.19,2.21.3l.75.1,2.12.34.82.14c.68.11,1.36.24,2,.37l.86.17,2,.42.88.19,2,.46.9.22,1.91.5.93.25,1.86.53.93.28,1.83.57.94.31,1.8.61.95.33,1.76.65.94.36,1.74.68.93.39c.58.23,1.15.48,1.72.72l.93.41,1.68.76.93.43,1.66.8.91.45q.83.41,1.65.84l.89.47L284,22l.89.5,1.6.9.86.52c.53.31,1.06.62,1.58.95l.84.52,1.57,1,.82.54,1.55,1,.79.54,1.54,1.08.88.64c.47.35.95.69,1.41,1.05l.69.53c.52.39,1.05.79,1.56,1.2l.62.5,1.59,1.28.52.44,1.64,1.4.32.28c2.68,2.35,5.27,4.82,7.7,7.35l.1.11c.48.5.95,1,1.42,1.52l.52.57c.36.38.71.78,1.06,1.18l.83.94c.31.35.62.71.92,1.08l.92,1.08.91,1.12.89,1.1.87,1.13s.67.86.86,1.13l.83,1.12.22.29.64.89.76,1.07s.68,1,.87,1.27.51.75.76,1.13l.82,1.25c.28.42.54.84.8,1.26l.73,1.16c.25.42.51.84.76,1.27l.71,1.19.64,1.12.08.14q.34.63.69,1.23l.67,1.26c.24.44.46.86.67,1.27s.45.87.66,1.3.43.85.64,1.27.42.87.62,1.31.41.87.61,1.31.4.86.59,1.3.39.89.59,1.33.37.87.55,1.32.37.89.55,1.35.36.88.53,1.32.35.92.52,1.38.33.89.49,1.34.34.93.5,1.4.31.89.46,1.35.31.94.46,1.41l.42,1.36c.15.47.29,1,.43,1.44s.27.9.39,1.35.27,1,.4,1.47c0,0,.26,1,.36,1.37s.21.84.31,1.27l.12.5c.09.36.17.72.25,1.08s.2.89.29,1.33c0,0,.25,1.16.33,1.55l.27,1.38.09.51c.07.34.13.68.19,1s.15.87.22,1.3l.08.53.18,1.11c.07.43.13.87.19,1.31l.09.67c0,.32.09.65.13,1l.15,1.28s.15,1.38.18,1.69c0,.46.09.92.13,1.37,0,0,.11,1.32.14,1.63,0,.52.07,1,.1,1.55l0,.67c0,.27,0,.54.05.8,0,.58,0,1.17.06,1.75l.05,1.29c0,1,0,2,0,3.06V278.18l.6,1.07c.28.49.57,1,.83,1.5s.59,1.13.88,1.7l.19.39c.24.47.48.94.7,1.42s.53,1.14.78,1.72l.22.5c.21.46.41.92.61,1.38s.44,1.12.66,1.68l.25.63.52,1.38q.3.84.57,1.68l.27.8c.14.43.29.86.42,1.3s.33,1.13.49,1.7l.23.84c.12.44.25.88.36,1.32s.28,1.16.41,1.74l.21,1q.15.62.27,1.23c.12.6.23,1.19.33,1.79l.18,1c.07.4.14.79.2,1.19.1.65.18,1.31.25,2l.13,1c.05.36.09.73.13,1.09.08.78.13,1.57.18,2.36l.07.86c0,.3.05.61.06.91.07,1.39.11,2.79.11,4.17V440Z" transform="translate(-10.39 -2.62)"/><path class="cls-3" d="M226.14,11.62c2.77,0,5.51.11,8.24.3l.34,0,2.36.2.52,0c.74.07,1.48.16,2.22.24l.64.08c.71.08,1.41.18,2.12.28l.72.1,2,.33.78.13c.66.11,1.32.24,2,.36l.82.16,1.92.4.86.19,1.86.44.88.21,1.83.48.89.24,1.79.52c.3.09.6.17.9.27.59.17,1.18.36,1.76.55l.91.29,1.73.59.9.32,1.7.62.91.35c.56.21,1.12.43,1.67.66l.91.37c.55.22,1.1.46,1.64.69l.9.39,1.62.74.89.41,1.6.77.88.43,1.58.81.86.45,1.57.84.84.48,1.54.88.84.49,1.52.91.81.51,1.51.95.78.52,1.5,1,.75.52,1.49,1,.72.53c.5.36,1,.72,1.49,1.09l.66.51c.51.39,1,.77,1.5,1.16l.6.48L300,38.21l.5.42L302,40l.31.28q3.86,3.38,7.41,7.08a.94.94,0,0,0,.1.1c.46.48.91,1,1.36,1.46l.5.54c.41.44.8.89,1.19,1.34.21.23.43.47.63.71.37.42.73.84,1.09,1.27l.69.82,1,1.23.72.9c.32.4.63.81.94,1.21l.74,1,.89,1.21.73,1,.85,1.2.72,1.05c.28.4.54.8.81,1.21s.48.72.71,1.08l.77,1.21.7,1.12.73,1.22c.23.38.46.76.68,1.15s.47.81.7,1.22l.66,1.18q.34.61.66,1.23c.22.4.43.81.64,1.21s.43.83.63,1.24l.62,1.23.6,1.25.58,1.26.57,1.26c.19.42.38.85.56,1.27l.54,1.27c.18.44.36.87.53,1.31s.34.84.5,1.27l.51,1.33c.16.43.32.85.47,1.28s.32.9.47,1.35l.45,1.29.44,1.37c.14.43.28.86.41,1.3s.28.93.41,1.39.26.87.38,1.31.26.93.38,1.41.23.87.35,1.31.23.95.34,1.43.22.88.32,1.32.21,1,.31,1.46.19.87.28,1.31.19,1,.29,1.48l.24,1.32c.09.5.17,1,.25,1.52l.21,1.3c.08.51.15,1,.22,1.55s.12.86.17,1.3.13,1,.18,1.58l.15,1.28c.05.55.1,1.1.14,1.65s.08.83.11,1.24c0,.58.07,1.16.11,1.74,0,.39.05.78.07,1.17,0,.64.05,1.29.08,1.93l0,1c0,1,0,2,0,2.94v152l.14.25c.33.55.64,1.1.95,1.66s.59,1,.87,1.57.6,1.14.88,1.72.54,1.06.8,1.59.54,1.19.8,1.79.48,1.07.71,1.62.49,1.23.73,1.84.43,1.1.63,1.65.43,1.27.64,1.91.38,1.1.55,1.66.38,1.32.56,2,.32,1.11.46,1.67.32,1.37.47,2.05.26,1.1.37,1.66c.15.71.26,1.43.39,2.15.09.54.2,1.08.28,1.63.11.76.2,1.53.29,2.3.06.52.14,1,.19,1.54.09.86.14,1.73.2,2.6,0,.43.07.86.1,1.3.06,1.31.1,2.62.1,4v116H19.39V234.63a92.79,92.79,0,0,1,91-92.77V127.39A115.77,115.77,0,0,1,226.14,11.62m0-9A124.77,124.77,0,0,0,101.37,127.39v6a101.79,101.79,0,0,0-91,101.22v209.9H362v-125c0-1.44,0-2.92-.12-4.4,0-.35,0-.71-.07-1.06l0-.39,0-.3c0-.83-.11-1.68-.2-2.59,0-.42-.1-.84-.15-1.25l-.06-.47-.05-.43c-.08-.68-.17-1.38-.28-2.14-.07-.45-.15-.89-.23-1.34l-.08-.48-.08-.44c-.11-.65-.22-1.31-.35-2-.1-.46-.2-.92-.31-1.37l-.11-.48-.09-.41c-.14-.63-.28-1.26-.44-1.88s-.25-.95-.38-1.42l-.13-.45-.1-.37c-.17-.61-.34-1.22-.53-1.83s-.3-1-.46-1.44l-.14-.42-.11-.32c-.2-.61-.4-1.21-.62-1.81s-.36-1-.55-1.47l-.15-.37-.1-.26c-.23-.6-.46-1.2-.71-1.8s-.43-1-.65-1.5l-.14-.31-.08-.18c-.27-.61-.54-1.21-.82-1.81s-.5-1-.76-1.53l-.12-.25-.05-.11c-.31-.6-.62-1.21-.94-1.81s-.59-1.08-.89-1.61V127.39c0-1,0-2.1,0-3.17l0-.73v-.57c0-.62,0-1.24-.07-1.85,0-.29,0-.59-.05-.88l0-.38,0-.33c0-.52-.06-1-.1-1.54,0-.32-.05-.63-.08-.94l0-.4,0-.33c0-.48-.08-1-.13-1.44s-.07-.67-.11-1l0-.38,0-.32c-.05-.46-.1-.92-.16-1.38s-.09-.69-.14-1l0-.36,0-.3c-.06-.46-.12-.92-.19-1.37s-.11-.71-.17-1.07l-.06-.34,0-.26c-.07-.46-.15-.91-.23-1.37s-.13-.74-.2-1.11l-.06-.31,0-.21c-.09-.46-.17-.92-.27-1.39s-.16-.77-.24-1.15l-.06-.26,0-.14c-.11-.48-.21-1-.32-1.44s-.19-.81-.28-1.21l-.05-.21,0-.06-.36-1.48-.34-1.3,0-.12-.41-1.52c-.13-.46-.27-.92-.4-1.38s-.3-1-.46-1.53-.29-.93-.44-1.4-.31-1-.47-1.47l-.48-1.4-.51-1.45L343,83.71c-.18-.48-.36-1-.55-1.44s-.36-.91-.54-1.37l-.57-1.4c-.19-.46-.39-.92-.58-1.37l-.6-1.38c-.21-.45-.41-.91-.62-1.36L338.94,74c-.21-.45-.43-.9-.65-1.35s-.44-.89-.66-1.33L337,70c-.22-.44-.45-.87-.69-1.3s-.47-.89-.71-1.33-.47-.85-.71-1.27-.5-.88-.76-1.32-.47-.82-.72-1.22-.53-.9-.8-1.33l-.69-1.12-.06-.09,0-.07c-.26-.41-.52-.82-.79-1.23l-.66-1-.11-.16-.08-.13-.79-1.17-.64-.93-.14-.2-.11-.17c-.27-.38-.53-.76-.8-1.13s-.41-.57-.62-.85l-.17-.24-.14-.19-.82-1.11-.59-.77-.2-.26-.17-.22-.84-1.09c-.19-.23-.38-.46-.56-.7l-.22-.27-.18-.21c-.3-.37-.6-.75-.9-1.11l-.53-.63-.22-.26-.17-.21-1-1.16-.47-.52-.21-.24-.15-.17-1.13-1.27c-.13-.14-.26-.27-.38-.41l-.17-.17c-.48-.53-1-1.06-1.46-1.58l-.13-.12c-2.52-2.63-5.2-5.19-8-7.61l-.07-.06-.27-.24c-.56-.49-1.13-1-1.7-1.45l-.17-.14-.37-.31c-.54-.45-1.09-.89-1.64-1.33l-.21-.17-.44-.35c-.53-.43-1.07-.84-1.61-1.25l-.23-.17-.49-.38-1.6-1.18-.24-.17-.54-.39-1.6-1.13-.24-.16-.58-.4c-.53-.37-1.07-.72-1.61-1.08l-.24-.15-.61-.4c-.53-.35-1.07-.69-1.62-1L292,21.4l-.65-.41c-.54-.33-1.08-.66-1.63-1l-.21-.13-.69-.41-1.66-.94-.18-.1L286.2,18c-.55-.31-1.12-.61-1.68-.91l-.13-.07-.8-.42-1.7-.86-.05,0-.9-.44-1.72-.83-1-.45-1.75-.79-1-.42-1.78-.75-1-.4-1.8-.71-1-.37-1.83-.67-1-.35c-.62-.22-1.24-.43-1.87-.63l-1-.32-1.9-.6-.85-.25-.12,0-1.93-.56L258.78,7l-.18,0-2-.51-.71-.18-.23-.06-2-.47L253,5.53l-.24,0L250.67,5l-.62-.12-.26,0-2.13-.39-.58-.1-.26,0L244.63,4l-.54-.07-.25,0-2.28-.31-.47,0-.21,0q-1.2-.15-2.4-.27l-.41,0-.15,0c-.84-.08-1.69-.15-2.54-.21l-.31,0H235c-3-.21-6-.32-8.86-.32Z" transform="translate(-10.39 -2.62)"/><path class="cls-4" d="M226.14,11.62A115.77,115.77,0,0,0,110.37,127.39V435.53H341.9V127.39A115.77,115.77,0,0,0,226.14,11.62Z" transform="translate(-10.39 -2.62)"/><g class="cls-5"><path class="cls-6" d="M341.9,127.39A115.78,115.78,0,0,0,231.82,11.76s47.7,35.86,44.3,120.7c-1.78,44.42-1.18,216.74-.78,303.07H341.9Z" transform="translate(-10.39 -2.62)"/></g><path class="cls-7" d="M112.18,141.84a92.79,92.79,0,0,0-92.79,92.79v200.9H205V234.63A92.79,92.79,0,0,0,112.18,141.84Z" transform="translate(-10.39 -2.62)"/><g class="cls-5"><path class="cls-8" d="M205,234.63A92.79,92.79,0,0,0,116.73,142s38.24,28.74,35.52,96.74c-1.43,35.61-.95,127.64-.63,196.84H205Z" transform="translate(-10.39 -2.62)"/></g><path class="cls-9" d="M275.15,241.62a77.86,77.86,0,0,0-77.85,77.86v116H353v-116A77.86,77.86,0,0,0,275.15,241.62Z" transform="translate(-10.39 -2.62)"/><g class="cls-5"><path class="cls-10" d="M353,319.48a77.85,77.85,0,0,0-74-77.76s32.08,24.11,29.8,81.17c-1.2,29.87-.8,54.58-.53,112.64H353Z" transform="translate(-10.39 -2.62)"/></g></g></g></svg>