<?xml version="1.0" encoding="utf-8"?>
<!-- Generator: Adobe Illustrator 23.0.3, SVG Export Plug-In . SVG Version: 6.00 Build 0)  -->
<svg version="1.1" id="Layer_1" xmlns="http://www.w3.org/2000/svg" xmlns:xlink="http://www.w3.org/1999/xlink" x="0px" y="0px"
	 viewBox="0 0 136.74 173.15" style="enable-background:new 0 0 136.74 173.15;" xml:space="preserve">
<style type="text/css">
	.st0{fill:url(#SVGID_1_);}
	.st1{fill:url(#SVGID_2_);}
	.st2{fill:url(#SVGID_3_);}
	.st3{fill:url(#SVGID_4_);}
</style>
<linearGradient id="SVGID_1_" gradientUnits="userSpaceOnUse" x1="124.6427" y1="59.3668" x2="124.6427" y2="109.9492">
	<stop  offset="0" style="stop-color:#DDB78F"/>
	<stop  offset="0.2192" style="stop-color:#DBB38C"/>
	<stop  offset="0.4214" style="stop-color:#D4A884"/>
	<stop  offset="0.617" style="stop-color:#CA9877"/>
	<stop  offset="0.8084" style="stop-color:#BD8367"/>
	<stop  offset="0.9953" style="stop-color:#AE6B54"/>
	<stop  offset="1" style="stop-color:#AD6A54"/>
</linearGradient>
<path class="st0" d="M113.07,78.8c0,0,2.87-19.21,15.9-19.44s5.74,27.23,5.74,27.23s-14.58,22.91-19.21,23.35
	s-2.43-32.25-2.43-32.25"/>
<linearGradient id="SVGID_2_" gradientUnits="userSpaceOnUse" x1="-247.3351" y1="59.3668" x2="-247.3351" y2="109.9492" gradientTransform="matrix(-1 0 0 1 -233.1732 0)">
	<stop  offset="0" style="stop-color:#DDB78F"/>
	<stop  offset="0.2192" style="stop-color:#DBB38C"/>
	<stop  offset="0.4214" style="stop-color:#D4A884"/>
	<stop  offset="0.617" style="stop-color:#CA9877"/>
	<stop  offset="0.8084" style="stop-color:#BD8367"/>
	<stop  offset="0.9953" style="stop-color:#AE6B54"/>
	<stop  offset="1" style="stop-color:#AD6A54"/>
</linearGradient>
<path class="st1" d="M25.74,78.8c0,0-2.87-19.21-15.9-19.44S4.09,86.6,4.09,86.6s14.58,22.91,19.21,23.35s2.43-32.25,2.43-32.25"/>
<g>
	<linearGradient id="SVGID_3_" gradientUnits="userSpaceOnUse" x1="70.0078" y1="2.4313" x2="70.0078" y2="129.3849">
		<stop  offset="0" style="stop-color:#DDB78F"/>
		<stop  offset="0.2192" style="stop-color:#DBB38C"/>
		<stop  offset="0.4214" style="stop-color:#D4A884"/>
		<stop  offset="0.617" style="stop-color:#CA9877"/>
		<stop  offset="0.8084" style="stop-color:#BD8367"/>
		<stop  offset="0.9953" style="stop-color:#AE6B54"/>
		<stop  offset="1" style="stop-color:#AD6A54"/>
	</linearGradient>
	<circle class="st2" cx="70.01" cy="65.91" r="63.48"/>
</g>
<linearGradient id="SVGID_4_" gradientUnits="userSpaceOnUse" x1="69.2538" y1="64.6235" x2="69.2538" y2="193.498">
	<stop  offset="0" style="stop-color:#513525"/>
	<stop  offset="1" style="stop-color:#271000"/>
</linearGradient>
<path class="st3" d="M127.75,63.67h-0.76c-1.83,0-3.5,0.77-4.71,2c-1.15,1.16-1.88,2.74-1.93,4.46l-0.05,1.75
	c-0.15,4.96-2.28,12.56-4.74,16.87l-4.61,8.09c-3.91,6.87-13.36,10.85-21.01,8.86l-7.18-1.88c-2.87-0.75-6.23-0.62-8.2,0.23
	c-0.94,0.4-1.92,0.69-2.94,0.81l-0.65,0.08c-0.52,0.06-1.05,0.1-1.6,0.1c-0.63,0-1.24-0.05-1.82-0.13l-0.62-0.08
	c-0.98-0.13-1.92-0.41-2.82-0.81c-1.91-0.86-5.26-0.99-8.16-0.23l-7.39,1.93c-7.64,1.99-17.09-1.99-20.99-8.85l-4.61-8.1
	c-2.46-4.32-4.59-11.91-4.74-16.88l-0.05-1.74c-0.05-1.73-0.79-3.3-1.94-4.46c-1.21-1.23-2.89-2-4.71-2h-0.76
	c-3.55,0-6.21,2.9-5.92,6.45l3.24,39.17c0.27,3.33,2.37,7.83,4.77,10.38c0.44,0.46,0.81,0.98,1.16,1.52l21.97,27.08
	c0.82,1.25,1.89,2.33,3.18,3.1c1.94,1.17,3.26,3.18,5.46,3.6c1.75,0.34,4.58,1.86,5.96,2.98l7.22,4.03c0.91,0.74,1.96,1.27,3.05,1.7
	c3.18,1.26,6.43,6.58,7.6,6.58c1.17,0,4.42-5.32,7.6-6.58c1.09-0.43,2.14-0.97,3.05-1.7l7.26-3.92c1.38-1.12,4.1-2.09,5.85-2.43
	c2.19-0.43,3.58-3.1,5.52-4.27c1.28-0.77,2.36-1.85,3.18-3.1l23.59-27.08c0.35-0.53,0.72-1.05,1.16-1.52
	c2.4-2.55,4.5-7.05,4.77-10.38l3.24-39.17C133.96,66.57,131.3,63.67,127.75,63.67z M97.18,118.75l-8.95,4.09l-9.91,4.53
	c-3.53,0.39-6.41-1.22-6.41-3.57c0-0.33,0-0.65,0-0.96h-5.3c0,0.31,0,0.63,0,0.96c0,2.35-2.89,3.96-6.41,3.57l-9.91-4.53l-8.95-4.09
	c-2.41-2.61-1.57-5.48,1.86-6.38l19.82-5.17c3.43-0.9,9.06-0.9,12.49,0l19.82,5.17C98.75,113.27,99.59,116.14,97.18,118.75z"/>
</svg>
