<?xml version="1.0" encoding="utf-8"?>
<!-- Generator: Adobe Illustrator 23.0.3, SVG Export Plug-In . SVG Version: 6.00 Build 0)  -->
<svg version="1.1" id="Layer_1" xmlns="http://www.w3.org/2000/svg" xmlns:xlink="http://www.w3.org/1999/xlink" x="0px" y="0px"
	 viewBox="0 0 148.9 148.9" style="enable-background:new 0 0 148.9 148.9;" xml:space="preserve">
<style type="text/css">
	.st0{fill:#020015;}
	.st1{fill:none;}
	.st2{fill:url(#SVGID_1_);}
	.st3{fill:url(#SVGID_2_);}
	.st4{fill:url(#SVGID_3_);}
</style>
<circle class="st0" cx="74.4" cy="74.4" r="74.4"/>
<g>
	<path class="st1" d="M63.7,45.7c0.1-0.1,0.2-0.3,0.3-0.4c0.1-0.1,0.1-0.2,0.2-0.2c-0.1,0.1-0.1,0.2-0.2,0.2
		C63.9,45.5,63.8,45.6,63.7,45.7z"/>
	<path class="st1" d="M39.6,100.8c0-0.2,0-0.4-0.1-0.7C39.5,100.3,39.5,100.5,39.6,100.8z"/>
	<path class="st1" d="M61.3,36.4L61.3,36.4L61.3,36.4l-0.5,0.3c-0.4,0.2-0.7,0.5-1,0.7c0.3-0.3,0.7-0.5,1-0.7L61.3,36.4z"/>
	<path class="st1" d="M58.1,85c-0.7,0.2-1.5,0.3-2.2,0.5h0h0l-0.5,0.1h0h0l-0.5,0c-0.2,0-0.3,0-0.5,0l-0.1,0l-0.5,0
		c-0.5,0-1,0.1-1.5,0.1c-2,0.3-3.7,0.8-5.2,1.7c-1.5,0.8-2.7,1.9-3.7,3.3c-0.9,1.3-1.6,2.8-2,4.6c-0.2,0.8-0.3,1.7-0.3,2.6
		c0,0.4,0,0.9,0,1.4c0,0.2,0,0.4,0,0.6c0,0.1,0,0.2,0,0.3c0,0.1,0,0.2,0,0.4c0.2,1.6,0.6,3.1,1.4,4.6c0.4,0.7,0.8,1.3,1.3,2
		c0.5,0.6,1,1.2,1.6,1.7c1.2,1,2.6,1.8,4,2.3h0h0c1.3,0.5,2.6,0.7,4,0.7c0.2,0,0.3,0,0.5,0c1.5-0.1,3-0.4,4.4-1s2.7-1.5,3.7-2.6
		c1-1.1,1.9-2.4,2.5-3.8c0.6-1.4,0.9-2.9,0.9-4.4v-0.2v-0.1l0-0.1l0-0.2c0.1-1.8,0.3-3.6,0.5-5.3c0.1-1,0.2-1.9,0.3-2.9
		c0.2-2.4,0.4-4.8,0.7-7.1l0.1-1.1c0.1-0.9,0.2-1.8,0.3-2.7c-2.3,1.8-4.7,3.2-7.2,4.1C59.5,84.6,58.8,84.8,58.1,85z"/>
	<path class="st1" d="M59.4,78c-0.4,0.1-0.8,0.2-1.1,0.3c-0.1,0-0.3,0.1-0.4,0.1c0.1,0,0.3-0.1,0.4-0.1C58.6,78.2,59,78.1,59.4,78z"
		/>
	<path class="st1" d="M86.5,23.5c-0.2,0.2-0.4,0.3-0.6,0.5c-0.2,0.1-0.4,0.3-0.6,0.5c0.2-0.1,0.4-0.3,0.6-0.5
		C86.1,23.8,86.3,23.6,86.5,23.5z"/>
	<path class="st1" d="M95.6,26.4c0,0-0.1,0.1-0.1,0.1l0,0C95.5,26.5,95.6,26.5,95.6,26.4z"/>
	<path class="st1" d="M88.2,22c-0.1,0.1-0.2,0.1-0.3,0.2C88,22.2,88.1,22.1,88.2,22c0.1-0.1,0.2-0.2,0.2-0.2l0,0
		C88.4,21.9,88.3,21.9,88.2,22z"/>
	<path class="st1" d="M52.4,78.7c-0.3,0-0.5,0-0.8,0c0.3,0,0.6,0,0.9,0C52.5,78.7,52.5,78.7,52.4,78.7z"/>
	<path class="st1" d="M41.2,81.6c0.5-0.3,0.9-0.5,1.4-0.8C42.1,81,41.7,81.3,41.2,81.6z"/>
	<polygon class="st1" points="110.7,104.7 110.9,103.9 110.7,104.7 110.6,104.8 110.6,104.8 	"/>
	<path class="st1" d="M114.7,89.3c-0.4,1.4-0.8,2.8-1.1,4.2C113.9,92,114.3,90.6,114.7,89.3z"/>
	<path class="st1" d="M106.5,96.2l0,0.7c0.1-0.3,0.1-0.6,0.2-0.9C106.6,96.1,106.5,96.1,106.5,96.2z"/>
	<path class="st1" d="M80.7,51c0-1.3,0.1-2.6,0.2-3.9C80.8,48.4,80.7,49.7,80.7,51c-0.1,2.4-0.2,4.8-0.3,7.3
		C80.4,55.8,80.6,53.4,80.7,51z"/>
	<path class="st1" d="M62.4,49.5L62.4,49.5L62.4,49.5z"/>
	<path class="st1" d="M101.3,105c-0.6,0.3-1.3,0.6-1.9,1c-0.7,0.4-1.4,0.7-2.1,1c0.7-0.4,1.4-0.7,2.1-1
		C100,105.6,100.6,105.3,101.3,105z"/>
	<polygon class="st1" points="83.7,59.9 83.7,59.8 83.7,54.2 83.7,54.2 83.7,59.8 	"/>
	<path class="st1" d="M62.4,49.5c0-0.3,0-0.6,0.1-1C62.4,48.9,62.4,49.2,62.4,49.5z"/>
	<path class="st1" d="M96.4,25.6c0.1-0.1,0.3-0.3,0.4-0.5s0.3-0.3,0.4-0.5c-0.1,0.2-0.3,0.3-0.4,0.5C96.6,25.3,96.5,25.4,96.4,25.6z
		"/>
	<path class="st1" d="M99.4,18c0,0.1,0,0.3,0,0.4C99.4,18.2,99.4,18.1,99.4,18L99.4,18z"/>
	<path class="st1" d="M94,10.2C94,10.2,94,10.2,94,10.2C94,10.2,94,10.2,94,10.2C94.1,10.2,94,10.2,94,10.2z"/>
	<path class="st1" d="M62.8,47.5c0.1-0.2,0.1-0.4,0.2-0.6C63,47.1,62.9,47.3,62.8,47.5c-0.1,0.2-0.1,0.4-0.2,0.5
		C62.7,47.9,62.7,47.7,62.8,47.5z"/>
	<g>
		
			<linearGradient id="SVGID_1_" gradientUnits="userSpaceOnUse" x1="62.2207" y1="153.1468" x2="62.4338" y2="153.1183" gradientTransform="matrix(1 0 0 -1 0 203.0811)">
			<stop  offset="0.2709" style="stop-color:#78CCCD"/>
			<stop  offset="0.3295" style="stop-color:#83C4CA"/>
			<stop  offset="0.4432" style="stop-color:#99B1C4"/>
			<stop  offset="0.5991" style="stop-color:#B58EB7"/>
			<stop  offset="0.7112" style="stop-color:#C571AE"/>
		</linearGradient>
		<path class="st2" d="M62.3,49.7c0,0.3,0,0.5,0.1,0.5C62.4,50.3,62.4,50,62.3,49.7C62.3,49.7,62.3,49.7,62.3,49.7z"/>
	</g>
	<g>
		
			<linearGradient id="SVGID_2_" gradientUnits="userSpaceOnUse" x1="39.0103" y1="110.9496" x2="68.1626" y2="107.0531" gradientTransform="matrix(1 0 0 -1 0 203.0811)">
			<stop  offset="0.2709" style="stop-color:#78CCCD"/>
			<stop  offset="0.3295" style="stop-color:#83C4CA"/>
			<stop  offset="0.4432" style="stop-color:#99B1C4"/>
			<stop  offset="0.5991" style="stop-color:#B58EB7"/>
			<stop  offset="0.7112" style="stop-color:#C571AE"/>
		</linearGradient>
		<path class="st3" d="M59.5,83c-0.6,0.2-1.3,0.4-1.9,0.6c-0.7,0.2-1.3,0.3-2,0.4L55.1,84l-0.5,0c-0.2,0-0.4,0-0.5,0l-0.5,0
			c-0.5,0-1.1,0.1-1.6,0.2c-2.1,0.3-4.1,0.9-5.8,1.9c-1.7,1-3.1,2.2-4.2,3.8c-1.1,1.5-1.8,3.3-2.2,5.2c-0.2,0.9-0.3,1.9-0.4,2.9
			c0,0.5,0,1,0,1.5c0,0.2,0,0.5,0,0.7c0,0.2,0,0.5,0.1,0.7c0.2,1.8,0.8,3.6,1.6,5.2c0.4,0.8,0.9,1.5,1.5,2.2
			c0.6,0.7,1.2,1.3,1.9,1.9c1.4,1.1,2.9,2.1,4.6,2.6c1.6,0.6,3.4,0.8,5.1,0.8c1.8-0.1,3.5-0.5,5-1.2c1.6-0.7,3-1.7,4.2-3
			c1.2-1.2,2.2-2.7,2.8-4.3c0.7-1.6,1-3.3,1-5v-0.2l0-0.2c0.2-2.7,0.5-5.5,0.7-8.2c0.2-2.7,0.5-5.5,0.8-8.2c0.2-2.3,0.4-4.5,0.7-6.8
			c-1,0.9-2,1.8-3,2.6C64.3,80.7,62.1,82,59.5,83z M39.5,100.1c0,0.2,0,0.4,0.1,0.7C39.5,100.5,39.5,100.3,39.5,100.1z M40.6,92.5
			c0.2-0.6,0.5-1.1,0.8-1.7C41.1,91.4,40.8,92,40.6,92.5z M67.2,83l-0.1,1.1c-0.2,2.3-0.5,4.7-0.7,7.1c-0.1,1-0.2,1.9-0.3,2.9
			c-0.2,1.8-0.3,3.5-0.5,5.3l0,0.2l0,0.1v0.1v0.2c0,1.5-0.3,3-0.9,4.4c-0.6,1.4-1.4,2.7-2.5,3.8c-1,1.1-2.3,2-3.7,2.6s-2.9,1-4.4,1
			c-0.2,0-0.3,0-0.5,0c-1.4,0-2.8-0.2-4-0.7h0h0c-1.4-0.5-2.8-1.3-4-2.3c-0.6-0.5-1.1-1.1-1.6-1.7c-0.5-0.6-1-1.3-1.3-2
			c-0.8-1.5-1.3-3-1.4-4.6c0-0.1,0-0.2,0-0.4c0-0.1,0-0.2,0-0.3c0-0.2,0-0.4,0-0.6c0-0.5,0-0.9,0-1.4c0-0.9,0.2-1.8,0.3-2.6
			c0.4-1.7,1-3.3,2-4.6c0.9-1.4,2.2-2.5,3.7-3.3c1.5-0.8,3.3-1.4,5.2-1.7c0.5-0.1,1-0.1,1.5-0.1l0.5,0l0.1,0c0.1,0,0.3,0,0.5,0
			l0.5,0h0h0l0.5-0.1h0h0c0.7-0.1,1.5-0.3,2.2-0.5c0.7-0.2,1.4-0.4,2.1-0.7c2.5-0.9,4.9-2.3,7.2-4.1C67.4,81.2,67.3,82.1,67.2,83z"
			/>
	</g>
	<g>
		
			<linearGradient id="SVGID_3_" gradientUnits="userSpaceOnUse" x1="30.27" y1="135.7104" x2="120.3912" y2="123.665" gradientTransform="matrix(1 0 0 -1 0 203.0811)">
			<stop  offset="0.2709" style="stop-color:#78CCCD"/>
			<stop  offset="0.3295" style="stop-color:#83C4CA"/>
			<stop  offset="0.4432" style="stop-color:#99B1C4"/>
			<stop  offset="0.5991" style="stop-color:#B58EB7"/>
			<stop  offset="0.7112" style="stop-color:#C571AE"/>
		</linearGradient>
		<path class="st4" d="M116,80.4l-5,2.8c-2.1,1.1-4,2.2-6,3.1c-1.1,0.5-2.1,1-3,1.5c-0.9,0.4-2,0.9-3.1,1.3l-0.5,0.2l-0.3,0.4
			l-2.5,3.8l-0.9,1.3l1.3,0.9l1.3,0.9l6.7,5c-1.9,1-3.7,2-5.4,2.8c-2.7,1.4-5.6,2.8-8.4,4.1c-1.6,0.7-3.2,1.4-4.8,2.1l-0.1-50.9
			l0-5.6l0-4.8l-2.9,3.8l-0.2,0.2c0-0.8,0.1-1.6,0.1-2.4c0.2-4,0.4-9.1,0.5-14.5c0.6-0.3,1.2-0.6,1.8-0.9h0h0l1.6-0.8l0,0l0,0
			l1.6-0.9l0,0l0,0l1.6-0.9l0,0l0,0c0.3-0.2,0.6-0.4,1-0.6c0.2-0.1,0.5-0.3,0.7-0.4l0,0l0,0c0.4-0.2,0.7-0.5,1-0.7
			c0.2-0.1,0.4-0.3,0.6-0.4l0,0l0,0l0.8-0.6l0,0l0,0c0.2-0.2,0.4-0.3,0.6-0.5c0.1-0.1,0.2-0.1,0.2-0.2c0.2-0.2,0.4-0.4,0.6-0.5
			c0.1-0.1,0.2-0.1,0.2-0.2l0,0l0,0c0.2-0.2,0.4-0.4,0.6-0.6c0.1-0.1,0.1-0.1,0.2-0.2l0,0l0,0c0.2-0.2,0.4-0.4,0.6-0.6l0.2-0.2l0,0
			l0,0c0.3-0.3,0.5-0.6,0.8-1l0,0l0,0c0.5-0.7,1.1-1.5,1.5-2.4c0.5-0.8,0.8-1.9,1.1-3l0,0l0,0c0-0.3,0.1-0.5,0.1-0.8v0v0l0.1-0.4
			l0,0v0c0-0.1,0-0.2,0-0.4l0-0.1c0-0.3,0-0.6,0-0.8v0v0c0-0.3,0-0.5,0-0.7l0-0.1c0-0.6-0.1-1.1-0.2-1.6l0-0.1
			c0-0.3-0.1-0.5-0.2-0.7c0,0,0-0.1,0-0.2v0v0c-0.1-0.3-0.1-0.5-0.2-0.8l-0.2-0.6v0v0c-0.2-0.6-0.5-1.2-0.8-1.7
			c-1.2-1.8-3.2-2.9-5.4-2.9c-1.3,0-2.5,0.4-3.6,1.1c-1.4,1-2.4,2.4-2.8,4.1c-0.4,1.7,0,3.4,0.9,4.9c0,0,0.1,0.1,0.1,0.1
			c0,0.1-0.1,0.3-0.3,0.5c-0.2,0.3-0.6,0.9-1.4,1.6C87,20.9,87,20.9,86.9,21c-0.1,0.1-0.2,0.2-0.3,0.3l-0.5,0.5l-0.3,0.2
			c-0.3,0.2-0.6,0.5-0.9,0.7c-1.5,1.1-3.3,2.1-5.4,3.3L78,26.6c-0.3,0.2-0.6,0.3-1,0.5c-0.2,0.1-0.4,0.2-0.6,0.3c-1,0.5-2,1-3.1,1.5
			l-1.6,0.7l-1.6,0.7l-3.3,1.5h0h0l-1.6,0.8h0h0c-0.2,0.1-0.4,0.2-0.6,0.3c-0.4,0.2-0.7,0.4-1.1,0.5h0h0c-0.2,0.1-0.4,0.2-0.7,0.3
			c-0.3,0.2-0.7,0.3-1,0.5L61,34.7l-0.2,0.1l-0.1,0.1l0,0l0,0l0,0l-0.1,0h0h0L60,35.3l0,0l0,0c-1.4,0.9-2.7,2-4,3.5v0v0
			c-1.1,1.2-2,2.6-2.8,4.1c-0.9,1.7-1.4,3.3-1.8,5.1v0v0c-0.2,1.2-0.3,2.3-0.1,3.4c0.1,1.7,0.7,3.2,1.6,4.6l0,0l0,0
			c1.2,1.7,3.3,2.8,5.4,2.8c1.4,0,2.7-0.4,3.9-1.2c2.8-2,3.6-5.8,1.9-8.7c0-0.3,0.1-0.6,0.3-1.1c0.2-0.6,0.5-1.2,0.9-1.8
			c0.3-0.5,0.7-0.9,1.1-1.3l0.1-0.1l0.1,0l0.2-0.1l0.7-0.4c0.3-0.2,0.6-0.4,1-0.6c0.1-0.1,0.3-0.1,0.4-0.2c0.3-0.2,0.6-0.3,0.9-0.5
			c0.2-0.1,0.4-0.2,0.5-0.3c0.3-0.2,0.6-0.3,1-0.5c0.1-0.1,0.3-0.1,0.4-0.2c-0.3,2.5-0.6,5.1-1,8.1c-0.2,2-0.5,4-0.7,5.9
			c-0.1,0.8-0.2,1.5-0.3,2.3v0v0c-0.1,1-0.2,1.9-0.3,2.9c-0.2,1.7-0.4,3.5-0.6,5.3l-0.1,1.2c-0.1,0.7-0.2,1.5-0.2,2.2
			c-0.1,0.1-0.1,0.1-0.2,0.2c-0.8,0.7-1.6,1.5-2.4,2.2c-0.9,0.8-1.8,1.4-2.6,1.9c-1.9,1.2-3.7,2-5.4,2.5c-0.9,0.2-1.8,0.4-2.7,0.4
			l-0.3,0h-0.4h0h0l0,0c0,0-0.1,0-0.1,0c0,0-0.1,0-0.1,0l-0.4,0c-0.4,0-0.8,0-1.3,0c-0.3,0-0.6,0-0.9,0c-3.1,0.1-6,0.7-8.6,1.8
			c-1.5,0.6-2.8,1.4-4.1,2.2c-1.3,0.9-2.5,2-3.5,3.1c-2,2.3-3.6,5.1-4.6,8.1c-0.5,1.4-0.8,2.9-1.1,4.4c-0.1,0.7-0.2,1.5-0.3,2.2
			c0,0.3-0.1,0.7-0.1,1.1v0v0c0,0.1,0,0.2,0,0.3c0,0.3,0,0.6,0,0.9v0v0c0.1,3.2,0.8,6.4,2,9.3c0.6,1.5,1.4,2.9,2.4,4.2
			c0.9,1.3,2,2.5,3.1,3.7c2.3,2.2,5.1,4,8.1,5.2l0,0l0,0c2.9,1.1,6,1.7,9,1.7c0.2,0,0.4,0,0.5,0c3.3-0.1,6.5-0.8,9.5-2.1
			c1.6-0.7,3.1-1.6,4.6-2.6l-0.2,1.5l0,0.3l0,0.3l2.7,14.6l0.6,3.1l2.2-2.3l7.9-8.2c2.3-2.4,4.8-4.6,6.9-6.4c2.3-2,4.7-4,7.2-6
			c2.5-1.9,4.9-3.8,7.4-5.6c2.4-1.7,5-3.6,7.6-5.3l0.8-0.5l0.5-0.4l0.1-0.6l0.2-0.8c0.3-1.2,0.6-2.5,1-4.2c0.3-1.3,0.7-2.7,1.1-4.2
			c0.7-2.8,1.5-5.6,2.3-8.3l1.5-5.3l1.1-3.8L116,80.4z M99.4,105.9c0.6-0.3,1.3-0.6,1.9-1C100.6,105.3,100,105.6,99.4,105.9
			c-0.7,0.4-1.4,0.7-2.1,1C98,106.6,98.7,106.3,99.4,105.9z M83.7,54.2l0,5.6v0.1v-0.1L83.7,54.2L83.7,54.2z M96.8,25.1
			c-0.1,0.2-0.3,0.3-0.4,0.5C96.5,25.4,96.6,25.3,96.8,25.1s0.3-0.3,0.4-0.5C97,24.8,96.9,24.9,96.8,25.1z M99.4,18L99.4,18
			c0,0.1,0,0.3,0,0.4C99.4,18.2,99.4,18.1,99.4,18z M94,10.2C94,10.2,94,10.2,94,10.2C94,10.2,94,10.2,94,10.2
			C94,10.2,94,10.2,94,10.2z M85.9,23.9c0.2-0.2,0.4-0.3,0.6-0.5C86.3,23.6,86.1,23.8,85.9,23.9s-0.4,0.3-0.6,0.5
			C85.4,24.2,85.6,24.1,85.9,23.9z M60.8,36.8l0.5-0.3l0,0l0,0L60.8,36.8c-0.4,0.2-0.7,0.5-1,0.7C60.1,37.2,60.4,37,60.8,36.8z
			 M63.9,45.3c-0.1,0.1-0.2,0.3-0.3,0.4s-0.2,0.3-0.2,0.4c0.1-0.1,0.1-0.3,0.2-0.4C63.8,45.6,63.9,45.5,63.9,45.3
			c0.1-0.1,0.1-0.2,0.2-0.2C64.1,45.2,64,45.2,63.9,45.3z M58.2,78.3c0.4-0.1,0.8-0.2,1.1-0.3C59,78.1,58.6,78.2,58.2,78.3
			c-0.1,0-0.3,0.1-0.4,0.1C58,78.4,58.1,78.3,58.2,78.3z M52.4,78.7c0,0,0.1,0,0.1,0c-0.3,0-0.6,0-0.9,0
			C51.9,78.7,52.2,78.7,52.4,78.7z M42.6,80.8c-0.5,0.2-1,0.5-1.4,0.8C41.7,81.3,42.1,81,42.6,80.8z M113.6,93.4
			c0.4-1.4,0.8-2.8,1.1-4.2C114.3,90.6,113.9,92,113.6,93.4z M115.2,87.3c-0.8,2.8-1.6,5.5-2.3,8.3c-0.4,1.4-0.7,2.8-1.1,4.2
			c-0.4,1.4-0.7,2.8-1,4.2l-0.2,0.8l0.1-0.1l0.2-0.8l-0.2,0.8l-0.1,0.1l0,0.1l-0.8,0.5c-2.6,1.7-5.2,3.5-7.7,5.3
			c-2.5,1.8-5,3.7-7.5,5.7c-2.5,2-4.9,4-7.3,6s-4.7,4.2-7,6.5l-7.9,8.2l-2.7-14.6l0,0l0.9-5.9c0,0,0,0-0.1,0.1
			c-2.1,2.2-4.7,4-7.5,5.2c-2.8,1.2-5.9,1.9-8.9,1.9c-3,0.1-6.1-0.5-8.9-1.6c-2.8-1.1-5.4-2.8-7.6-4.9c-1.1-1-2.1-2.2-2.9-3.4
			c-0.9-1.2-1.6-2.5-2.2-3.9c-1.2-2.7-1.8-5.7-1.9-8.6c0-0.4,0-0.7,0-1.1c0-0.4,0-0.7,0.1-1.1c0.1-0.7,0.1-1.4,0.2-2.1
			c0.2-1.4,0.5-2.8,1-4.2c0.9-2.7,2.4-5.3,4.3-7.5c1-1.1,2.1-2.1,3.3-2.9c1.2-0.8,2.5-1.5,3.8-2.1c2.6-1.1,5.4-1.6,8-1.6
			c0.7,0,1.3,0,2,0l0.4,0c0.1,0,0.3,0,0.4,0h0.4l0.4,0c1,0,2-0.2,3-0.5c2-0.5,4-1.5,5.9-2.7c0.9-0.6,1.9-1.3,2.7-2s1.7-1.5,2.6-2.3
			c0.2-0.2,0.4-0.4,0.6-0.6c0.1-1.4,0.3-2.7,0.4-4c0.3-2.7,0.6-5.5,0.9-8.2c0.3-2.7,0.6-5.5,1-8.2c0.5-3.7,0.9-7.4,1.4-11.1
			c-0.9,0.5-1.8,0.9-2.7,1.4c-0.5,0.3-1,0.5-1.5,0.8c-0.5,0.3-1,0.5-1.5,0.8c-0.5,0.3-1,0.5-1.4,0.8l-0.7,0.4l-0.2,0.1l-0.1,0l0,0
			l0,0l-0.2,0.1c-0.2,0.1-0.4,0.3-0.5,0.5c-0.1,0.1-0.3,0.3-0.4,0.4c0.1-0.1,0.3-0.3,0.4-0.4c-0.3,0.3-0.7,0.7-1,1.1
			c-0.5,0.7-0.9,1.4-1.1,2.2c-0.3,0.7-0.4,1.5-0.4,2c1.6,2.2,1,5.3-1.2,6.9c-2.3,1.6-5.4,1.1-7-1.2c-0.9-1.4-1.2-2.8-1.3-3.9
			c-0.1-1.1,0-2.1,0.1-3c0.3-1.8,0.9-3.3,1.6-4.6c0.7-1.4,1.5-2.6,2.5-3.8c1-1.2,2.2-2.3,3.6-3.2l0.5-0.3l0.1,0l0,0l0.1-0.1l0.2-0.1
			l0.8-0.5c0.6-0.3,1.1-0.6,1.7-0.9c0.5-0.3,1.1-0.5,1.6-0.8l1.6-0.8l3.3-1.5l1.6-0.7l1.6-0.7c1.1-0.5,2.1-1,3.1-1.5
			c0.5-0.3,1-0.5,1.5-0.8l1.5-0.8c2-1.1,3.9-2.2,5.6-3.4c0.4-0.3,0.8-0.6,1.2-0.9l0.6-0.5c0.2-0.2,0.4-0.3,0.5-0.5
			c0.1-0.1,0.3-0.3,0.4-0.4c-0.1,0.1-0.2,0.2-0.2,0.2c-0.1,0.1-0.2,0.1-0.3,0.2c0.1-0.1,0.2-0.1,0.3-0.2c0.1-0.1,0.2-0.2,0.2-0.2
			c0.5-0.5,1-1.1,1.3-1.6c0.4-0.6,0.5-1.2,0.5-1.5c0-0.3-0.1-0.5-0.4-0.9c-1.5-2.2-0.9-5.2,1.4-6.7c2.2-1.5,5.2-0.9,6.7,1.4
			c0.3,0.4,0.5,0.9,0.6,1.3l0.2,0.6c0.1,0.2,0.1,0.5,0.2,0.7c0.1,0.2,0.1,0.5,0.2,0.7c0.1,0.5,0.2,1,0.2,1.5c0,0.3,0,0.5,0,0.8
			c0,0.3,0,0.5,0,0.8c0,0.1,0,0.3,0,0.4l-0.1,0.4c0,0.3-0.1,0.5-0.1,0.8c-0.3,1-0.6,1.9-1,2.7c-0.4,0.8-0.9,1.5-1.4,2.2
			c-0.3,0.3-0.5,0.6-0.8,0.9c-0.1,0.1-0.3,0.3-0.4,0.4c0,0,0.1-0.1,0.1-0.1c0,0-0.1,0.1-0.1,0.1c-0.1,0.1-0.3,0.3-0.4,0.4
			c-0.3,0.3-0.5,0.5-0.8,0.7c-0.3,0.2-0.5,0.5-0.8,0.7s-0.5,0.4-0.8,0.6l-0.8,0.6c-0.5,0.4-1.1,0.7-1.6,1.1c-0.5,0.3-1.1,0.7-1.6,1
			l-1.6,0.9l-1.6,0.9l-1.6,0.8c-0.9,0.5-1.8,0.9-2.6,1.3c-0.1,5.1-0.3,10.3-0.5,15.4c-0.1,2.5-0.2,5.1-0.4,7.6c0,0,0.1-0.1,0.1-0.1
			l0,0l3.3-4.2l0,5.6l0.1,53.3c2.4-1,4.8-2,7.1-3.1c2.9-1.3,5.7-2.7,8.5-4.1c2.5-1.3,5-2.6,7.5-4c0.3-1.1,0.6-2.2,0.9-3.3
			c0.4-1.4,0.7-2.8,1-4.2c0.2-0.8,0.4-1.7,0.6-2.5c-0.3,0.2-0.5,0.4-0.7,0.5c-0.9,0.7-1.8,1.4-2.7,2c-0.4,0.3-0.8,0.6-1.2,0.9
			l0.3,4.9l-6.7-5l-1.3-0.9l2.5-3.8l0,0c1.1-0.4,2.1-0.9,3.1-1.4c1-0.5,2-1,3.1-1.5c2-1,4-2.1,6-3.2l5-2.8L115.2,87.3z M63,46.9
			c-0.1,0.2-0.2,0.4-0.2,0.6c-0.1,0.2-0.1,0.4-0.2,0.5c0-0.2,0.1-0.4,0.2-0.5C62.9,47.3,63,47.1,63,46.9z M62.4,49.5
			c0-0.3,0-0.6,0.1-1C62.4,48.9,62.4,49.2,62.4,49.5z M62.4,49.5L62.4,49.5C62.4,49.5,62.4,49.5,62.4,49.5L62.4,49.5z M80.8,47.1
			c0,1.3-0.1,2.6-0.2,3.9c-0.1,2.4-0.2,4.8-0.3,7.3c0.1-2.4,0.2-4.8,0.3-7.3C80.7,49.7,80.8,48.4,80.8,47.1z M106.5,96.2
			c0.1-0.1,0.2-0.1,0.3-0.2c-0.1,0.3-0.1,0.6-0.2,0.9L106.5,96.2z"/>
	</g>
</g>
</svg>
