<?xml version="1.0" encoding="utf-8"?>
<!-- Generator: Adobe Illustrator 23.0.3, SVG Export Plug-In . SVG Version: 6.00 Build 0)  -->
<svg version="1.1" id="Layer_1" xmlns="http://www.w3.org/2000/svg" xmlns:xlink="http://www.w3.org/1999/xlink" x="0px" y="0px"
	 viewBox="0 0 152.6 164.1" style="enable-background:new 0 0 152.6 164.1;" xml:space="preserve">
<style type="text/css">
	.st0{fill:url(#SVGID_1_);stroke:#000000;stroke-width:3;stroke-miterlimit:10;}
	.st1{fill:url(#SVGID_2_);}
	.st2{fill:#232323;}
</style>
<linearGradient id="SVGID_1_" gradientUnits="userSpaceOnUse" x1="48.1816" y1="45.9017" x2="139.9072" y2="163.2029">
	<stop  offset="0" style="stop-color:#F0EE2E"/>
	<stop  offset="1" style="stop-color:#FF5A32"/>
</linearGradient>
<circle class="st0" cx="76.4" cy="82" r="74.4"/>
<g>
	<g>
		<linearGradient id="SVGID_2_" gradientUnits="userSpaceOnUse" x1="22.0796" y1="73.25" x2="134.1801" y2="88.2331">
			<stop  offset="0.2709" style="stop-color:#32FFEA"/>
			<stop  offset="0.3214" style="stop-color:#41F3EC"/>
			<stop  offset="0.4193" style="stop-color:#6AD2F0"/>
			<stop  offset="0.5549" style="stop-color:#AB9DF6"/>
			<stop  offset="0.7112" style="stop-color:#FF5AFF"/>
		</linearGradient>
		<path class="st1" d="M128.8,89.4l-6.2,3.4c-2.6,1.4-5,2.7-7.4,3.9c-1.3,0.7-2.6,1.3-3.8,1.8c-1.1,0.5-2.5,1.1-3.8,1.7l-0.6,0.2
			l-0.4,0.5l-3.1,4.7l-1.1,1.6l1.6,1.2l1.6,1.2l8.3,6.2c-2.3,1.3-4.6,2.5-6.7,3.5c-3.4,1.7-6.9,3.4-10.4,5.1c-2,0.9-4,1.8-6,2.7
			l-0.1-63.3l0-7l0-5.9l-3.6,4.7l-0.2,0.3c0-1,0.1-2,0.1-3c0.2-4.9,0.5-11.4,0.6-18c0.8-0.4,1.5-0.8,2.2-1.1l0,0l0,0l2-1l0,0l0,0
			l2-1.1l0,0l0,0l2-1.2l0,0l0,0c0.4-0.2,0.8-0.5,1.2-0.7c0.3-0.2,0.6-0.3,0.8-0.5l0,0l0,0c0.4-0.3,0.9-0.6,1.3-0.8
			c0.3-0.2,0.5-0.4,0.8-0.5l0,0l0,0l1-0.7l0,0l0,0c0.3-0.2,0.5-0.4,0.7-0.6c0.1-0.1,0.2-0.2,0.3-0.2c0.3-0.2,0.5-0.4,0.8-0.6
			c0.1-0.1,0.2-0.2,0.3-0.3l0,0l0,0c0.3-0.2,0.5-0.5,0.8-0.7c0.1-0.1,0.2-0.2,0.3-0.3l0,0l0,0c0.3-0.3,0.5-0.5,0.8-0.8l0.2-0.2l0,0
			l0,0c0.4-0.4,0.7-0.8,1-1.2l0,0l0,0c0.7-0.9,1.3-1.8,1.9-3c0.6-1,1-2.3,1.4-3.8l0-0.1l0-0.1c0.1-0.3,0.1-0.7,0.2-1l0,0l0,0
			l0.1-0.5l0-0.1l0-0.1c0-0.1,0-0.3,0-0.4l0-0.1c0-0.4,0-0.7,0.1-1l0,0l0,0c0-0.3,0-0.6,0-0.9l0-0.1c0-0.7-0.1-1.4-0.2-2l0-0.2
			c-0.1-0.3-0.1-0.6-0.2-0.9c0-0.1,0-0.1-0.1-0.2l0,0l0,0c-0.1-0.3-0.2-0.6-0.3-0.9l-0.2-0.7l0,0l0,0c-0.2-0.8-0.6-1.5-1-2.2
			c-1.5-2.3-4-3.6-6.7-3.6c-1.6,0-3.1,0.5-4.4,1.3c-1.8,1.2-3,3-3.5,5.1c-0.4,2.1,0,4.3,1.2,6.1c0,0.1,0.1,0.1,0.1,0.1
			c0,0.1-0.1,0.4-0.3,0.6c-0.2,0.4-0.7,1.1-1.7,2c-0.1,0.1-0.2,0.2-0.3,0.2c-0.1,0.1-0.2,0.2-0.4,0.3l-0.7,0.6l-0.4,0.3
			c-0.4,0.3-0.7,0.6-1.1,0.8c-1.9,1.3-4.1,2.7-6.8,4.1l-1.9,1c-0.4,0.2-0.8,0.4-1.2,0.6c-0.2,0.1-0.5,0.2-0.7,0.3
			c-1.2,0.6-2.5,1.2-3.8,1.8l-2,0.9l-2,0.9l-4,1.8l0,0l0,0l-2,1l0,0l0,0c-0.2,0.1-0.5,0.2-0.7,0.3c-0.4,0.2-0.9,0.4-1.4,0.7l0,0l0,0
			c-0.3,0.1-0.5,0.3-0.8,0.4c-0.4,0.2-0.8,0.4-1.3,0.7l-1,0.6l-0.3,0.1l-0.1,0.1l-0.1,0l0,0l0,0l-0.1,0l0,0l0,0L59,33.4l0,0l0,0
			c-1.8,1.1-3.4,2.5-4.9,4.3l0,0l0,0c-1.3,1.5-2.4,3.2-3.4,5.1c-1.1,2.1-1.8,4.1-2.2,6.3l0,0l0,0c-0.3,1.5-0.3,2.9-0.2,4.3
			c0.2,2.1,0.9,4,2,5.8l0,0l0,0c1.5,2.2,4.1,3.5,6.7,3.5c1.7,0,3.4-0.5,4.8-1.5c3.5-2.5,4.4-7.2,2.4-10.8c0.1-0.3,0.2-0.8,0.4-1.3
			c0.2-0.7,0.7-1.5,1.2-2.2c0.4-0.6,0.9-1.2,1.4-1.6l0.2-0.1l0.1-0.1l0.2-0.1l0.9-0.5c0.4-0.2,0.8-0.5,1.2-0.7
			c0.2-0.1,0.3-0.2,0.5-0.3c0.4-0.2,0.7-0.4,1.1-0.6c0.2-0.1,0.5-0.2,0.7-0.4c0.4-0.2,0.8-0.4,1.2-0.6c0.2-0.1,0.4-0.2,0.5-0.3
			c-0.4,3-0.8,6.3-1.3,10.1c-0.3,2.4-0.6,4.9-0.9,7.3c-0.1,1-0.2,1.9-0.3,2.9l0,0l0,0c-0.1,1.2-0.3,2.4-0.4,3.6
			c-0.2,2.2-0.5,4.4-0.7,6.6l-0.2,1.5c-0.1,0.9-0.2,1.9-0.3,2.8c-0.1,0.1-0.2,0.2-0.3,0.3c-0.9,0.9-2,1.8-3,2.7
			c-1.2,0.9-2.2,1.7-3.2,2.3c-2.3,1.5-4.6,2.5-6.8,3.1c-1.2,0.3-2.3,0.5-3.3,0.5l-0.4,0l-0.4,0l0,0l0,0c0,0,0,0,0,0
			c-0.1,0-0.1,0-0.2,0c-0.1,0-0.1,0-0.2,0l-0.5,0c-0.5,0-1,0-1.6,0c-0.3,0-0.7,0-1.1,0c-3.8,0.1-7.4,0.8-10.7,2.2
			c-1.8,0.7-3.5,1.7-5.1,2.8c-1.6,1.1-3.1,2.4-4.4,3.9c-2.5,2.8-4.5,6.3-5.8,10.1c-0.6,1.8-1,3.7-1.3,5.5c-0.1,0.9-0.2,1.8-0.3,2.8
			c0,0.4-0.1,0.9-0.1,1.4l0,0l0,0c0,0.1,0,0.2,0,0.4c0,0.3,0,0.7,0,1.1l0,0l0,0c0.1,4,0.9,8,2.5,11.5c0.8,1.9,1.8,3.6,2.9,5.2
			c1.1,1.6,2.5,3.2,3.9,4.6c2.8,2.8,6.3,5,10.1,6.5l0,0l0,0c3.6,1.4,7.4,2.1,11.2,2.1c0.2,0,0.5,0,0.7,0c4-0.1,8.1-1,11.8-2.6
			c2-0.9,3.9-1.9,5.7-3.2l-0.3,1.8l-0.1,0.4l0.1,0.3l3.3,18.1l0.7,3.9l2.8-2.9l9.8-10.2c2.9-3,5.9-5.7,8.5-8c2.9-2.5,5.9-5,9-7.4
			c3-2.4,6.2-4.8,9.2-7c3-2.2,6.2-4.5,9.5-6.6l1-0.6l0.7-0.4l0.2-0.8l0.2-1c0.4-1.5,0.8-3.1,1.3-5.2c0.4-1.6,0.8-3.3,1.3-5.2
			c0.9-3.5,1.9-7,2.8-10.3l1.9-6.6l1.4-4.7L128.8,89.4z M105.2,106.8L105.2,106.8l0.9,0.7L105.2,106.8z M108.1,11.7L108.1,11.7
			c0,0.2,0,0.3,0,0.5C108.1,12.1,108.1,11.9,108.1,11.7z M104.8,20.6c0.2-0.2,0.3-0.4,0.5-0.6C105.1,20.2,105,20.4,104.8,20.6
			c-0.2,0.2-0.3,0.4-0.5,0.6C104.5,21,104.6,20.8,104.8,20.6z M102.9,22.8c0.2-0.2,0.3-0.3,0.5-0.5C103.2,22.4,103,22.6,102.9,22.8
			c-0.2,0.2-0.3,0.3-0.5,0.5C102.5,23.1,102.7,22.9,102.9,22.8z M101.4,2C101.4,2,101.4,2,101.4,2C101.4,2,101.4,2,101.4,2
			C101.4,2,101.4,2,101.4,2z M95.6,9.5c0-0.2-0.1-0.4-0.1-0.6C95.5,9.1,95.5,9.3,95.6,9.5z M94.2,16.8c0.1-0.1,0.2-0.2,0.3-0.3
			C94.4,16.6,94.3,16.7,94.2,16.8c-0.1,0.1-0.2,0.2-0.3,0.3C94,17,94.1,16.9,94.2,16.8z M91.2,19.2c0.3-0.2,0.5-0.4,0.8-0.6
			C91.8,18.8,91.5,19,91.2,19.2c-0.3,0.2-0.5,0.4-0.8,0.6C90.7,19.6,91,19.4,91.2,19.2z M90.7,30.9l2-1.1L90.7,30.9l-2,1L90.7,30.9z
			 M50.2,51.3c0-0.3,0-0.6,0.1-0.9c0-0.3,0.1-0.6,0.1-0.9c0-0.2,0.1-0.4,0.1-0.7c0,0.2-0.1,0.4-0.1,0.7c0,0.3-0.1,0.6-0.1,0.9
			C50.2,50.7,50.2,51,50.2,51.3z M52.4,43.8c-0.1,0.2-0.2,0.4-0.3,0.7C52.2,44.2,52.3,44,52.4,43.8c0.1-0.2,0.2-0.4,0.3-0.6
			C52.6,43.4,52.5,43.6,52.4,43.8z M57,60.7C56.9,60.7,56.9,60.7,57,60.7C56.9,60.7,57,60.7,57,60.7C57,60.7,57,60.7,57,60.7z
			 M60.7,34.7l-0.7,0.4c-0.4,0.3-0.9,0.6-1.3,0.9c0.4-0.3,0.8-0.6,1.3-0.9L60.7,34.7L60.7,34.7L60.7,34.7z M62.1,51
			C62.1,51,62.1,51,62.1,51C62.1,51,62.1,51,62.1,51C62.1,51,62.1,51,62.1,51z M62.1,51c0-0.4,0.1-0.8,0.2-1.2
			C62.1,50.2,62,50.6,62.1,51z M62.6,48.5c-0.1,0.2-0.2,0.5-0.2,0.7C62.4,48.9,62.5,48.7,62.6,48.5c0.1-0.2,0.2-0.5,0.3-0.7
			C62.8,48,62.7,48.2,62.6,48.5z M64,45.8c-0.2,0.3-0.4,0.6-0.6,1C63.6,46.4,63.8,46.1,64,45.8c0.1-0.1,0.1-0.2,0.2-0.3
			C64.1,45.6,64.1,45.7,64,45.8z M64.5,45c0.3-0.4,0.7-0.8,1.1-1.1C65.2,44.3,64.9,44.6,64.5,45z M66.1,43.6L66.1,43.6l-0.3,0.2
			L66.1,43.6L66.1,43.6L66.1,43.6L66.1,43.6z M24.6,104.9c0,0.1-0.1,0.2-0.1,0.3C24.5,105.1,24.5,105,24.6,104.9
			c0.2-0.7,0.5-1.4,0.8-2.2C25.1,103.4,24.8,104.2,24.6,104.9z M25.6,126.8c0.3,0.6,0.6,1.3,1,1.9C26.2,128,25.9,127.4,25.6,126.8z
			 M28,131c-0.4-0.6-0.8-1.2-1.1-1.8C27.3,129.8,27.6,130.4,28,131c1.1,1.5,2.3,3,3.6,4.3C30.3,133.9,29.1,132.5,28,131z M66.2,88.3
			c-0.7,0.5-1.5,1-2.3,1.5C64.7,89.4,65.5,88.8,66.2,88.3z M62.3,90.7c-0.8,0.4-1.6,0.8-2.5,1.2C60.7,91.6,61.5,91.2,62.3,90.7z
			 M56.9,86.8c0.5-0.1,0.9-0.3,1.4-0.4C57.8,86.6,57.3,86.7,56.9,86.8c-0.2,0-0.3,0.1-0.5,0.1C56.6,86.9,56.7,86.9,56.9,86.8z
			 M53.1,93.8l0.6-0.1L53.1,93.8L53.1,93.8L53.1,93.8z M49.7,87.3c0.1,0,0.1,0,0.2,0c-0.4,0-0.8,0-1.2,0
			C49,87.3,49.3,87.3,49.7,87.3z M42,96.5c0.2-0.1,0.4-0.2,0.6-0.3c0.4-0.2,0.9-0.4,1.3-0.6c-0.4,0.2-0.9,0.4-1.3,0.6
			C42.4,96.2,42.2,96.3,42,96.5c-0.5,0.3-1,0.6-1.5,1C41,97.1,41.5,96.8,42,96.5z M37.5,89.9c-0.6,0.3-1.2,0.6-1.8,0.9
			C36.3,90.5,36.9,90.2,37.5,89.9z M33.6,113.9c0,0.3,0,0.6,0.1,0.8C33.6,114.5,33.6,114.2,33.6,113.9z M35.9,102.4
			c-0.4,0.7-0.7,1.4-1,2.1C35.2,103.8,35.6,103.1,35.9,102.4z M51.6,143.3C51.6,143.3,51.6,143.2,51.6,143.3c0.2,0,0.4,0,0.6,0
			C52,143.2,51.8,143.3,51.6,143.3z M63.3,140.8c-0.1,0.1-0.3,0.1-0.4,0.2C63,140.9,63.2,140.9,63.3,140.8c0.1-0.1,0.2-0.1,0.4-0.2
			C63.5,140.7,63.4,140.8,63.3,140.8z M66.9,120.1c-0.2,0.5-0.4,1-0.7,1.5C66.5,121.1,66.7,120.6,66.9,120.1
			c0.1-0.2,0.2-0.5,0.3-0.8C67.1,119.6,67,119.8,66.9,120.1z M68,92.6L67.9,94c-0.3,2.9-0.6,5.9-0.8,8.8c-0.1,1.2-0.2,2.4-0.3,3.6
			c-0.2,2.2-0.4,4.4-0.6,6.6l0,0.2l0,0.1l0,0.1l0,0.3c0,1.9-0.4,3.8-1.1,5.5c-0.7,1.8-1.8,3.4-3.1,4.7c-1.3,1.3-2.9,2.5-4.6,3.3
			c-1.7,0.8-3.6,1.2-5.5,1.3c-0.2,0-0.4,0-0.6,0c-1.8,0-3.5-0.3-5-0.8l0,0l0,0c-1.8-0.6-3.5-1.6-5-2.9c-0.7-0.6-1.4-1.3-2-2.1
			c-0.6-0.8-1.2-1.6-1.6-2.5c-1-1.8-1.6-3.8-1.8-5.7c0-0.2,0-0.3,0-0.4c0-0.1,0-0.3,0-0.4c0-0.3,0-0.6,0-0.8c0-0.6,0-1.1,0-1.7
			c0.1-1.2,0.2-2.3,0.4-3.3c0.5-2.2,1.3-4.1,2.4-5.7c1.2-1.7,2.7-3.1,4.6-4.1c1.9-1,4-1.7,6.5-2.1c0.6-0.1,1.2-0.2,1.8-0.2l0.6,0
			l0.2,0c0.2,0,0.4,0,0.6,0l0.6-0.1l0,0l0,0l0.6-0.1l0,0l0,0c0.9-0.1,1.8-0.3,2.7-0.6c0.9-0.2,1.7-0.5,2.6-0.8
			c3.1-1.1,6.1-2.9,9-5.1C68.2,90.4,68.1,91.5,68,92.6z M72.7,134.3C72.7,134.3,72.7,134.4,72.7,134.3
			C72.7,134.4,72.7,134.3,72.7,134.3L72.7,134.3z M72.8,39.8c-0.6,0.3-1.3,0.6-1.9,1c-0.6,0.3-1.2,0.7-1.8,1
			c-0.4,0.2-0.8,0.4-1.2,0.7c0.4-0.2,0.8-0.5,1.2-0.7c0.6-0.3,1.2-0.7,1.8-1C71.6,40.4,72.2,40.1,72.8,39.8c0.6-0.3,1.1-0.6,1.7-0.8
			C74,39.2,73.4,39.5,72.8,39.8z M85,48c-0.1,1.6-0.1,3.2-0.2,4.8c-0.1,3-0.3,6-0.4,9c0.1-3,0.3-6,0.4-9C84.8,51.2,84.9,49.6,85,48z
			 M84.4,62.1L84.4,62.1L84.4,62.1l1.5-1.9L84.4,62.1z M88.5,56.8l0,7l0,0.1l0-0.1L88.5,56.8L88.5,56.8z M86.7,147.5
			c1.4-1.4,2.9-2.7,4.3-4C89.6,144.8,88.1,146.1,86.7,147.5z M102.3,134c-0.8,0.6-1.5,1.2-2.3,1.8
			C100.8,135.2,101.5,134.6,102.3,134c1.5-1.2,3.1-2.4,4.6-3.6C105.4,131.6,103.8,132.8,102.3,134z M108.1,121.2
			c-0.9,0.4-1.7,0.9-2.6,1.3C106.3,122,107.2,121.6,108.1,121.2c0.8-0.4,1.6-0.8,2.4-1.2C109.6,120.4,108.8,120.8,108.1,121.2z
			 M117.2,108.8c-0.1,0.4-0.2,0.7-0.3,1.1l-0.1-0.9C117,109,117.1,108.9,117.2,108.8z M120.5,103.8c-0.3,0.2-0.6,0.4-0.9,0.7
			C119.9,104.2,120.2,104,120.5,103.8L120.5,103.8z M122.1,119.7l-1,0.6L122.1,119.7l0.2-1L122.1,119.7z M125.7,105.6
			c0.5-1.7,0.9-3.5,1.4-5.2C126.6,102.1,126.2,103.9,125.7,105.6z"/>
	</g>
	<path class="st2" d="M123.4,94.8c-2.5,1.4-5,2.7-7.5,3.9c-1.3,0.6-2.5,1.2-3.8,1.8c-1.3,0.6-2.6,1.2-3.9,1.7l0,0L105,107l1.6,1.2
		l8.4,6.2l-0.4-6.1c0.5-0.4,1-0.8,1.5-1.2c1.1-0.9,2.3-1.7,3.4-2.5c0.3-0.2,0.6-0.4,0.9-0.7c-0.2,1-0.5,2.1-0.8,3.1
		c-0.4,1.7-0.9,3.5-1.3,5.2c-0.3,1.4-0.7,2.7-1.1,4.1c-3.1,1.8-6.2,3.4-9.3,5c-3.5,1.8-7,3.5-10.5,5.1c-2.9,1.3-5.9,2.6-8.9,3.9
		L88.4,64l0-7l-4.1,5.2l0,0c0,0.1-0.1,0.1-0.1,0.2c0.2-3.2,0.3-6.3,0.4-9.5c0.3-6.4,0.5-12.8,0.6-19.2c1.1-0.5,2.2-1.1,3.3-1.6l2-1
		l2-1.1l2-1.2c0.7-0.4,1.4-0.8,2-1.2c0.7-0.4,1.4-0.9,2-1.4l1-0.7c0.3-0.3,0.7-0.5,1-0.8c0.3-0.3,0.7-0.6,1-0.8
		c0.3-0.3,0.7-0.6,1-0.9c0.3-0.3,0.7-0.7,1-1c0.3-0.4,0.6-0.7,1-1.1c0.6-0.8,1.2-1.7,1.7-2.7c0.5-1,0.9-2.1,1.3-3.4
		c0.1-0.3,0.1-0.6,0.2-0.9l0.1-0.5c0-0.2,0-0.3,0-0.5c0-0.3,0-0.6,0.1-1c0-0.3,0-0.6,0-1c0-0.7-0.1-1.3-0.2-1.9
		c0-0.3-0.1-0.6-0.2-0.9c-0.1-0.3-0.2-0.6-0.2-0.9L107,6.5c-0.2-0.6-0.4-1.1-0.8-1.6c-1.8-2.8-5.6-3.5-8.3-1.7
		c-2.8,1.8-3.5,5.6-1.7,8.3c0.3,0.5,0.4,0.7,0.5,1.1c0,0.4-0.2,1.1-0.6,1.8c-0.5,0.8-1.2,1.6-2.1,2.4c-0.2,0.2-0.4,0.4-0.7,0.6
		l-0.7,0.6c-0.5,0.4-1,0.8-1.5,1.2c-2.1,1.5-4.5,2.9-7,4.2l-1.9,1c-0.6,0.3-1.3,0.6-1.9,0.9c-1.3,0.6-2.6,1.2-3.9,1.8l-2,0.9l-2,0.9
		l-4,1.8l-2,1c-0.7,0.3-1.4,0.6-2.1,1c-0.7,0.4-1.4,0.7-2.1,1.1l-1,0.6l-0.3,0.1l-0.1,0.1l-0.1,0l-0.1,0l-0.7,0.4
		c-1.8,1.1-3.2,2.5-4.5,3.9c-1.3,1.5-2.3,3-3.2,4.7c-0.9,1.7-1.6,3.6-2,5.8c-0.2,1.1-0.3,2.3-0.2,3.7c0.1,1.4,0.5,3.1,1.7,4.8
		c2,2.8,5.9,3.4,8.7,1.5c2.8-2,3.4-5.8,1.5-8.6c0-0.7,0.2-1.6,0.5-2.5c0.3-0.9,0.8-1.9,1.4-2.7c0.6-0.8,1.2-1.5,1.9-2l0.2-0.2l0,0
		l0.1,0l0.1-0.1l0.2-0.1l0.9-0.5c0.6-0.4,1.2-0.7,1.8-1c0.6-0.3,1.2-0.7,1.8-1c0.6-0.3,1.3-0.7,1.9-1c1.1-0.6,2.2-1.1,3.4-1.7
		c-0.6,4.6-1.2,9.2-1.8,13.9c-0.4,3.4-0.8,6.8-1.2,10.2c-0.4,3.4-0.8,6.8-1.1,10.2c-0.2,1.7-0.4,3.3-0.5,5c-0.3,0.3-0.5,0.5-0.8,0.8
		c-1,1-2.1,2-3.2,2.8c-1.1,0.9-2.2,1.7-3.4,2.5c-2.3,1.5-4.8,2.7-7.4,3.3c-1.3,0.3-2.5,0.5-3.8,0.6l-0.5,0l-0.5,0
		c-0.2,0-0.3,0-0.5,0l-0.5,0c-0.8,0-1.6,0-2.5,0c-3.3,0.1-6.7,0.7-10,2c-1.6,0.7-3.2,1.5-4.7,2.6c-1.5,1-2.9,2.2-4.1,3.6
		c-2.4,2.7-4.2,6-5.4,9.3c-0.6,1.7-1,3.4-1.2,5.2c-0.1,0.9-0.2,1.7-0.3,2.6c0,0.4-0.1,0.9-0.1,1.3c0,0.5,0,0.9,0,1.4
		c0.1,3.7,0.9,7.4,2.4,10.8c0.7,1.7,1.7,3.3,2.7,4.9c1.1,1.5,2.3,3,3.6,4.3c2.7,2.6,5.9,4.7,9.5,6c3.5,1.4,7.3,2,11.1,2
		c3.8-0.1,7.6-0.9,11.1-2.4c3.5-1.5,6.7-3.7,9.3-6.4c0,0,0,0,0.1-0.1l-1.1,7.3l0,0l3.3,18.2l9.8-10.2c2.8-2.9,5.7-5.5,8.6-8.1
		c3-2.6,6-5.1,9-7.5c3.1-2.4,6.2-4.8,9.3-7.1c3.1-2.3,6.3-4.5,9.6-6.6l1-0.6l0.2-1c0.4-1.7,0.9-3.5,1.3-5.2c0.4-1.7,0.9-3.5,1.3-5.2
		c0.9-3.5,1.9-6.9,2.8-10.4l1.9-6.6L123.4,94.8z M62,51.9c-0.1,0-0.1-0.3-0.1-0.6c0,0,0,0,0-0.1C62.1,51.6,62.1,51.9,62,51.9z
		 M68.9,103.2c-0.3,3.4-0.6,6.8-0.9,10.2l0,0.2l0,0.3c0,2.2-0.4,4.3-1.3,6.3c-0.8,2-2,3.8-3.5,5.4c-1.5,1.5-3.3,2.8-5.3,3.7
		c-2,0.9-4.1,1.4-6.3,1.5c-2.2,0.1-4.4-0.2-6.4-0.9c-2.1-0.7-4-1.8-5.7-3.3c-0.8-0.7-1.6-1.5-2.3-2.4c-0.7-0.9-1.3-1.8-1.8-2.8
		c-1-2-1.8-4.2-2-6.4c0-0.3,0-0.6-0.1-0.9c0-0.3,0-0.6,0-0.9c0-0.6,0-1.2,0-1.8c0.1-1.2,0.2-2.4,0.5-3.6c0.5-2.3,1.4-4.5,2.7-6.4
		c1.3-1.9,3.1-3.5,5.2-4.7c2.1-1.2,4.6-2,7.2-2.3c0.7-0.1,1.3-0.2,2-0.2l0.6,0c0.2,0,0.4,0,0.7-0.1l0.6-0.1l0.6-0.1
		c0.9-0.1,1.7-0.3,2.5-0.5c0.8-0.2,1.6-0.5,2.4-0.8c3.1-1.2,6-2.9,8.5-4.8c1.3-1,2.6-2.1,3.7-3.2c-0.3,2.8-0.6,5.6-0.8,8.5
		C69.6,96.4,69.2,99.8,68.9,103.2z"/>
</g>
</svg>
