<svg id="Layer_1" data-name="Layer 1" xmlns="http://www.w3.org/2000/svg" xmlns:xlink="http://www.w3.org/1999/xlink" viewBox="0 0 2905.26 96.23"><defs><style>.cls-1{fill:none;}.cls-2{stroke:#262230;stroke-linejoin:round;fill:url(#linear-gradient);}.cls-2,.cls-3{stroke-width:2px;}.cls-3{fill:#006c73;stroke:#fff;}.cls-3,.cls-6,.cls-8{stroke-miterlimit:10;}.cls-4{fill:#231f20;}.cls-5{fill:#fff;}.cls-6,.cls-8{stroke:#19212a;stroke-width:5px;}.cls-6{fill:url(#linear-gradient-2);}.cls-7{fill:#19212a;}.cls-8{fill:url(#linear-gradient-3);}.cls-9{fill:url(#linear-gradient-4);}.cls-10{fill:url(#linear-gradient-5);}.cls-11{fill:url(#linear-gradient-6);}.cls-12{fill:url(#linear-gradient-7);}.cls-13{fill:url(#linear-gradient-8);}.cls-14{fill:url(#linear-gradient-9);}.cls-15{fill:url(#linear-gradient-10);}.cls-16{fill:url(#linear-gradient-11);}</style><linearGradient id="linear-gradient" x1="-37.22" y1="271.37" x2="-22.55" y2="-52.82" gradientTransform="matrix(1, 0, 0, -1, 35.09, 131.27)" gradientUnits="userSpaceOnUse"><stop offset="0.21" stop-color="#67c5ad"/><stop offset="0.22" stop-color="#65c0aa"/><stop offset="0.39" stop-color="#4d8783"/><stop offset="0.55" stop-color="#3a5a65"/><stop offset="0.7" stop-color="#2c394f"/><stop offset="0.81" stop-color="#242542"/><stop offset="0.89" stop-color="#211e3d"/></linearGradient><linearGradient id="linear-gradient-2" x1="2139.12" y1="241.14" x2="2139.12" y2="48.07" gradientTransform="matrix(1, 0, 0, -1, 35.09, 131.27)" gradientUnits="userSpaceOnUse"><stop offset="0" stop-color="#67c5ad"/><stop offset="0.13" stop-color="#61b6a3"/><stop offset="0.39" stop-color="#519089"/><stop offset="0.73" stop-color="#375360"/><stop offset="1" stop-color="#211e3d"/></linearGradient><linearGradient id="linear-gradient-3" x1="694.49" y1="241.14" x2="694.49" y2="48.07" xlink:href="#linear-gradient-2"/><linearGradient id="linear-gradient-4" x1="2174.19" y1="34.19" x2="2174.19" y2="8.71" gradientUnits="userSpaceOnUse"><stop offset="0.21" stop-color="#1a4f5f"/><stop offset="0.89" stop-color="#2a6c7a"/></linearGradient><linearGradient id="linear-gradient-5" x1="729.56" y1="34.19" x2="729.56" y2="8.71" xlink:href="#linear-gradient-4"/><linearGradient id="linear-gradient-6" x1="2174.19" y1="50.73" x2="2174.19" y2="25.22" xlink:href="#linear-gradient-4"/><linearGradient id="linear-gradient-7" x1="729.56" y1="50.73" x2="729.56" y2="25.22" xlink:href="#linear-gradient-4"/><linearGradient id="linear-gradient-8" x1="2174.19" y1="62.05" x2="2174.19" y2="36.59" xlink:href="#linear-gradient-4"/><linearGradient id="linear-gradient-9" x1="729.56" y1="62.05" x2="729.56" y2="36.59" xlink:href="#linear-gradient-4"/><linearGradient id="linear-gradient-10" x1="2174.21" y1="88.88" x2="2174.21" y2="47.96" xlink:href="#linear-gradient-4"/><linearGradient id="linear-gradient-11" x1="729.58" y1="88.88" x2="729.58" y2="47.96" xlink:href="#linear-gradient-4"/></defs><title>oceanbreak2</title><path class="cls-1" d="M7.16,53.84v9.87h.11V53.84Z" transform="translate(0.73 -0.94)"/><path class="cls-1" d="M7.27,42.47H7.16V48.3h.11Z" transform="translate(0.73 -0.94)"/><path class="cls-1" d="M7.27,31H7.16v5.89h.11Z" transform="translate(0.73 -0.94)"/><path class="cls-2" d="M7.16,63.71v5.53h.11V63.71Z" transform="translate(0.73 -0.94)"/><path class="cls-3" d="M7.27,31V25.56H7.16v5.53Z" transform="translate(0.73 -0.94)"/><path class="cls-3" d="M7.27,36.93H7.16v5.54h.11Z" transform="translate(0.73 -0.94)"/><path class="cls-4" d="M2757.73,93.17c-37.71,0-56.88-5.22-75.42-10.27l-.43-.12c-17.85-4.91-34.7-9.54-69.26-9.54s-51.49,4.63-69.26,9.54c-18.61,5.11-37.84,10.39-75.85,10.39-37.69,0-56.87-5.22-75.41-10.27l-.43-.12c-17.85-4.91-34.7-9.54-69.26-9.54-34.71,0-51.49,4.63-69.25,9.54-18.62,5.11-37.86,10.39-75.85,10.39-37.71,0-56.89-5.22-75.43-10.28l-.41-.11c-17.85-4.91-34.69-9.54-69.26-9.54s-51.49,4.63-69.25,9.54c-18.66,5.11-37.9,10.39-75.87,10.39-37.71,0-56.89-5.22-75.43-10.28l-.41-.11c-17.85-4.91-34.7-9.54-69.26-9.54-34.71,0-51.49,4.63-69.25,9.54-18.61,5.11-37.84,10.39-75.85,10.39-37.72,0-56.89-5.22-75.43-10.28l-.41-.11c-17.89-4.91-34.73-9.54-69.15-9.54h-4V5h4c38,0,57.27,5.29,75.85,10.4,17.86,4.91,34.72,9.53,69.25,9.53,34.74,0,51.5-4.63,69.24-9.53,18.6-5.11,37.83-10.4,75.87-10.4,37.67,0,56.84,5.22,75.37,10.27l.47.13c17.86,4.9,34.71,9.53,69.25,9.53,34.74,0,51.5-4.63,69.24-9.53C1975.1,10.28,1994.33,5,2032.3,5c37.65,0,56.81,5.22,75.34,10.26l.5.14c17.87,4.91,34.72,9.53,69.26,9.53,34.74,0,51.5-4.63,69.24-9.53C2265.23,10.29,2284.45,5,2322.5,5s57.22,5.29,75.81,10.4c17.89,4.91,34.74,9.53,69.27,9.53,34.75,0,51.51-4.63,69.25-9.53,18.61-5.11,37.85-10.4,75.88-10.4,37.67,0,56.84,5.22,75.37,10.27l.47.13c17.87,4.9,34.72,9.53,69.27,9.53,34.74,0,51.5-4.63,69.24-9.53l1.64-.44c16.09-4.38,34.33-9.34,67.71-9.9l4.11-.18V27.1h0V40.88h0V52.25h0v21l-3.93.07c-30.41.52-46.25,4.87-63,9.48C2815,87.89,2795.72,93.17,2757.73,93.17Z" transform="translate(0.73 -0.94)"/><path class="cls-5" d="M2612.71,9c37.46,0,56.44,5.26,74.79,10.26,18.11,5,35.23,9.67,70.32,9.67s52.2-4.67,70.31-9.67l1.62-.44c16.78-4.56,34.52-9.22,66.73-9.76h0v22h0v5.78h0v5.53h0v5.84h0v21c-30.91.53-47,5-64,9.62-18.36,5-37.33,10.25-74.79,10.25s-56.44-5.25-74.8-10.25c-18.11-5-35.21-9.68-70.31-9.68s-52.2,4.68-70.32,9.68C2524,84,2505,89.17,2467.51,89.17s-56.43-5.25-74.79-10.25c-18.11-5-35.22-9.68-70.31-9.68s-52.2,4.68-70.31,9.68c-18.36,5-37.33,10.25-74.79,10.25s-56.44-5.25-74.79-10.25c-18.11-5-35.22-9.68-70.31-9.68s-52.2,4.68-70.31,9.68c-18.38,5-37.35,10.25-74.81,10.25s-56.44-5.25-74.79-10.25c-18.11-5-35.22-9.68-70.31-9.68s-52.2,4.68-70.31,9.68c-18.35,5-37.33,10.25-74.79,10.25s-56.44-5.25-74.79-10.25c-18.09-5-35.2-9.68-70.2-9.68V9c37.46,0,56.44,5.21,74.79,10.26,18.11,5,35.22,9.67,70.31,9.67s52.2-4.67,70.31-9.67C1685.67,14.21,1704.65,9,1742.11,9s56.44,5.26,74.79,10.26c18.1,5,35.21,9.67,70.3,9.67s52.2-4.67,70.31-9.67C1975.9,14.21,1994.84,9,2032.3,9s56.43,5.26,74.79,10.26c18.11,5,35.22,9.67,70.31,9.67s52.2-4.67,70.31-9.67C2266.06,14.21,2285,9,2322.5,9s56.4,5.21,74.77,10.26c18.11,5,35.21,9.67,70.31,9.67s52.21-4.67,70.32-9.67C2556.27,14.21,2575.25,9,2612.71,9M2904.52.94l-8.13.12h-.07c-33.86.57-52.35,5.6-68.67,10l-1,.26-.64.18c-17.51,4.83-34,9.39-68.21,9.39-34,0-50.61-4.56-68.19-9.38l-.5-.14C2670.35,6.29,2650.92,1,2612.71,1c-38.57,0-58.07,5.36-76.93,10.55-17.49,4.82-34,9.38-68.2,9.38-34,0-50.59-4.55-68.15-9.37l-2.18,7.7,2.12-7.72C2380.52,6.36,2361,1,2322.5,1s-58.07,5.36-76.91,10.55c-17.49,4.82-34,9.38-68.19,9.38-34,0-50.6-4.55-68.17-9.38l-.54-.14C2089.91,6.29,2070.49,1,2032.3,1c-38.51,0-58,5.35-76.86,10.53h0l0,0c-17.48,4.82-34,9.38-68.18,9.38-34,0-50.6-4.56-68.17-9.38l-.5-.14C1799.75,6.29,1780.32,1,1742.11,1c-38.58,0-58.07,5.36-76.92,10.55-17.49,4.82-34,9.38-68.19,9.38-34,0-50.6-4.55-68.17-9.38C1510,6.36,1490.49,1,1451.9,1h-8V77.24h8c33.89,0,50.47,4.56,68,9.38h0l.43.12c18.8,5.12,38.23,10.42,76.48,10.42,38.55,0,58-5.36,76.91-10.54,17.5-4.83,34-9.39,68.19-9.39s50.62,4.56,68.19,9.39l.43.12c18.8,5.12,38.23,10.42,76.48,10.42,38.51,0,58-5.35,76.88-10.52h0l0,0c17.49-4.83,34-9.39,68.18-9.39s50.62,4.56,68.19,9.39l.43.12c18.8,5.12,38.23,10.42,76.48,10.42,38.53,0,58-5.35,76.89-10.53,17.52-4.84,34-9.4,68.21-9.4s50.62,4.56,68.19,9.39l.45.13c18.79,5.12,38.23,10.41,76.46,10.41,38.55,0,58-5.36,76.91-10.54,17.51-4.83,34-9.39,68.2-9.39s50.62,4.56,68.19,9.39l.45.13c18.79,5.12,38.23,10.41,76.47,10.41,38.53,0,58-5.35,76.89-10.53,16.53-4.54,32.13-8.83,62-9.34l7.87-.14V23.1h0V.94Z" transform="translate(0.73 -0.94)"/><path class="cls-3" d="M7.27,48.3H7.16v5.54h.11Z" transform="translate(0.73 -0.94)"/><path class="cls-4" d="M1313.1,93.17c-37.71,0-56.88-5.22-75.42-10.27l-.43-.12c-17.85-4.91-34.7-9.54-69.26-9.54s-51.49,4.63-69.26,9.54c-18.61,5.11-37.84,10.39-75.85,10.39-37.7,0-56.87-5.22-75.41-10.27l-.43-.12c-17.85-4.91-34.7-9.54-69.26-9.54s-51.49,4.63-69.25,9.54c-18.62,5.11-37.86,10.39-75.85,10.39-37.71,0-56.89-5.22-75.43-10.28l-.41-.11c-17.85-4.91-34.7-9.54-69.26-9.54-34.71,0-51.49,4.63-69.25,9.54-18.66,5.11-37.9,10.39-75.87,10.39-37.71,0-56.89-5.22-75.43-10.28l-.41-.11c-17.85-4.91-34.7-9.54-69.26-9.54-34.71,0-51.49,4.63-69.25,9.54-18.61,5.11-37.84,10.39-75.85,10.39-37.71,0-56.89-5.22-75.43-10.28l-.41-.11c-17.89-4.91-34.73-9.54-69.15-9.54h-4V5h4c38.05,0,57.27,5.29,75.85,10.4,17.86,4.91,34.72,9.53,69.25,9.53,34.74,0,51.5-4.63,69.24-9.53C240.21,10.29,259.44,5,297.48,5c37.67,0,56.84,5.22,75.37,10.27l.47.13c17.86,4.9,34.71,9.53,69.25,9.53,34.74,0,51.5-4.63,69.24-9.53C530.47,10.28,549.7,5,587.67,5c37.65,0,56.81,5.22,75.34,10.26l.5.14c17.87,4.91,34.72,9.53,69.26,9.53,34.74,0,51.5-4.63,69.24-9.53C820.6,10.29,839.82,5,877.87,5s57.22,5.29,75.81,10.4c17.89,4.91,34.74,9.53,69.27,9.53,34.75,0,51.51-4.63,69.25-9.53,18.61-5.11,37.85-10.4,75.88-10.4,37.67,0,56.84,5.22,75.37,10.27l.47.13c17.87,4.9,34.72,9.53,69.27,9.53,34.74,0,51.5-4.63,69.24-9.53l1.64-.44c16.09-4.38,34.33-9.34,67.71-9.9l4.11-.18V27.1h0V40.88h0V52.25h0v21l-3.93.07c-30.41.52-46.25,4.87-63,9.48C1370.33,87.89,1351.09,93.17,1313.1,93.17Z" transform="translate(0.73 -0.94)"/><path class="cls-5" d="M1168.08,9c37.46,0,56.44,5.26,74.79,10.26,18.11,5,35.23,9.67,70.32,9.67s52.2-4.67,70.31-9.67l1.62-.44c16.78-4.56,34.52-9.22,66.73-9.76h0v22h0v5.78h0v5.53h0v5.84h0v21c-30.91.53-47,5-64,9.62-18.36,5-37.33,10.25-74.79,10.25s-56.44-5.25-74.8-10.25c-18.11-5-35.21-9.68-70.31-9.68s-52.2,4.68-70.32,9.68c-18.35,5-37.34,10.25-74.79,10.25s-56.43-5.25-74.79-10.25c-18.11-5-35.22-9.68-70.31-9.68s-52.2,4.68-70.31,9.68c-18.36,5-37.33,10.25-74.79,10.25s-56.44-5.25-74.79-10.25c-18.11-5-35.22-9.68-70.31-9.68s-52.2,4.68-70.31,9.68c-18.38,5-37.35,10.25-74.81,10.25S386,83.92,367.67,78.92c-18.11-5-35.22-9.68-70.31-9.68s-52.2,4.68-70.31,9.68c-18.35,5-37.33,10.25-74.79,10.25S95.82,83.92,77.47,78.92c-18.09-5-35.2-9.68-70.2-9.68V9c37.46,0,56.44,5.21,74.79,10.26,18.11,5,35.22,9.67,70.31,9.67s52.2-4.67,70.31-9.67C241,14.21,260,9,297.48,9s56.44,5.26,74.79,10.26c18.1,5,35.21,9.67,70.3,9.67s52.2-4.67,70.31-9.67C531.27,14.21,550.21,9,587.67,9s56.43,5.26,74.79,10.26c18.11,5,35.22,9.67,70.31,9.67s52.2-4.67,70.31-9.67C821.43,14.21,840.41,9,877.87,9s56.4,5.21,74.77,10.26c18.11,5,35.21,9.67,70.31,9.67s52.21-4.67,70.32-9.67C1111.64,14.21,1130.62,9,1168.08,9M1459.89.94l-8.12.12h-.08c-33.86.57-52.35,5.6-68.67,10l-.94.26-.68.18c-17.51,4.83-34,9.39-68.21,9.39-34,0-50.61-4.56-68.2-9.38l-.49-.14C1225.72,6.29,1206.29,1,1168.08,1c-38.57,0-58.07,5.36-76.93,10.55-17.49,4.82-34,9.38-68.2,9.38-34,0-50.59-4.55-68.15-9.37l-2.18,7.7,2.12-7.72C935.89,6.36,916.4,1,877.87,1S819.8,6.36,801,11.55c-17.49,4.82-34,9.38-68.19,9.38-34,0-50.6-4.55-68.17-9.38l-.54-.14C645.28,6.29,625.86,1,587.67,1c-38.51,0-58,5.35-76.86,10.53h0l-.05,0c-17.48,4.82-34,9.38-68.18,9.38-34,0-50.6-4.56-68.17-9.38l-.5-.14C355.12,6.29,335.69,1,297.48,1c-38.58,0-58.07,5.36-76.92,10.55-17.49,4.82-34,9.38-68.19,9.38-34,0-50.6-4.55-68.17-9.38C65.34,6.36,45.86,1,7.27,1h-8V77.24h8c33.89,0,50.47,4.56,68,9.38h0l.43.12c18.8,5.12,38.23,10.42,76.48,10.42,38.55,0,58.05-5.36,76.91-10.54,17.5-4.83,34-9.39,68.19-9.39S348,81.8,365.55,86.63l.43.12c18.8,5.12,38.23,10.42,76.48,10.42,38.5,0,58-5.35,76.88-10.52h0l0,0c17.49-4.83,34-9.39,68.18-9.39s50.62,4.56,68.19,9.39l.43.12c18.8,5.12,38.23,10.42,76.48,10.42,38.53,0,58-5.35,76.89-10.53,17.52-4.84,34-9.4,68.21-9.4S928.4,81.8,946,86.63l.45.13c18.79,5.12,38.23,10.41,76.46,10.41,38.55,0,58.05-5.36,76.91-10.54,17.51-4.83,34-9.39,68.2-9.39s50.62,4.56,68.19,9.39l.45.13c18.79,5.12,38.23,10.41,76.47,10.41,38.53,0,58-5.35,76.89-10.53,16.53-4.54,32.13-8.83,62-9.34l7.86-.14V23.1h0V.94Z" transform="translate(0.73 -0.94)"/><path class="cls-6" d="M2828.13,19c-18.11,5-35.22,9.67-70.31,9.67s-52.21-4.7-70.32-9.67c-18.35-5-37.33-10.26-74.79-10.26S2556.27,13.92,2537.9,19c-18.11,5-35.22,9.67-70.32,9.67s-52.2-4.7-70.31-9.67c-18.37-5-37.31-10.26-74.77-10.26s-56.44,5.21-74.79,10.26c-18.11,5-35.22,9.67-70.31,9.67s-52.2-4.7-70.31-9.67c-18.36-5-37.33-10.26-74.79-10.26s-56.4,5.21-74.79,10.26c-18.11,5-35.22,9.67-70.31,9.67s-52.2-4.7-70.3-9.67c-18.35-5-37.33-10.26-74.79-10.26s-56.44,5.21-74.8,10.26c-18.11,5-35.22,9.67-70.31,9.67s-52.2-4.7-70.31-9.67c-18.35-5-37.33-10.26-74.79-10.26h0V69c35,0,52.11,4.71,70.2,9.68,18.35,5,37.33,10.25,74.79,10.25s56.44-5.21,74.79-10.25c18.11-5,35.22-9.68,70.31-9.68s52.2,4.7,70.31,9.68c18.35,5,37.33,10.25,74.79,10.25s56.43-5.21,74.81-10.25c18.11-5,35.22-9.68,70.31-9.68s52.2,4.7,70.31,9.68c18.35,5,37.33,10.25,74.79,10.25s56.43-5.21,74.79-10.25c18.11-5,35.22-9.68,70.31-9.68s52.2,4.7,70.31,9.68c18.36,5,37.34,10.25,74.79,10.25s56.44-5.21,74.79-10.25c18.12-5,35.22-9.68,70.32-9.68s52.2,4.7,70.31,9.68c18.36,5,37.34,10.25,74.8,10.25s56.43-5.21,74.79-10.25c17-4.67,33.09-9.09,64-9.62V8.77C2863.23,9.33,2845.4,14.27,2828.13,19Z" transform="translate(0.73 -0.94)"/><path class="cls-7" d="M2757.82,50.68c-37.46,0-56.44-5.21-74.8-10.26-18.11-5-35.22-9.67-70.31-9.67s-52.2,4.7-70.31,9.67c-18.36,5-37.34,10.26-74.8,10.26s-56.43-5.21-74.79-10.26c-18.11-5-35.21-9.67-70.31-9.67s-52.2,4.7-70.31,9.67c-18.35,5-37.29,10.26-74.79,10.26s-56.44-5.21-74.79-10.26c-18.11-5-35.22-9.67-70.31-9.67s-52.2,4.7-70.31,9.67c-18.36,5-37.34,10.26-74.79,10.26s-56.44-5.21-74.79-10.26c-18.11-5-35.22-9.67-70.31-9.67s-52.2,4.7-70.31,9.67c-18.35,5-37.33,10.26-74.79,10.26s-56.44-5.21-74.79-10.26c-18.11-5-35.22-9.67-70.31-9.67h0v5.89c33.25.56,51.08,5.46,68.35,10.2,18.11,5,35.21,9.67,70.31,9.67s52.2-4.69,70.31-9.67c18.35-5,37.33-10.25,74.79-10.25s56.43,5.21,74.79,10.25c18.11,5,35.21,9.67,70.3,9.67s52.2-4.69,70.31-9.67c18.36-5,37.34-10.25,74.79-10.25s56.44,5.21,74.79,10.25c18.12,5,35.22,9.67,70.31,9.67s52.21-4.69,70.32-9.67c18.35-5,37.33-10.25,74.79-10.25s56.43,5.21,74.84,10.25c18.11,5,35.22,9.67,70.31,9.67s52.2-4.69,70.31-9.67c18.36-5,37.34-10.25,74.79-10.25s56.44,5.21,74.8,10.25c18.11,5,35.22,9.67,70.31,9.67s52.2-4.69,70.32-9.67c18.35-5,37.33-10.25,74.79-10.25h0V30.81c-30.82.54-46.9,4.95-63.87,9.61C2814.26,45.47,2795.28,50.68,2757.82,50.68Z" transform="translate(0.73 -0.94)"/><path class="cls-7" d="M2826.17,51.79c-18.36,5-37.34,10.26-74.8,10.26s-56.44-5.21-74.79-10.26c-18.11-5-35.22-9.67-70.32-9.67s-52.2,4.7-70.31,9.67c-18.35,5-37.33,10.26-74.79,10.26s-56.44-5.21-74.79-10.26c-18.11-5-35.22-9.67-70.31-9.67s-52.2,4.7-70.31,9.67c-18.36,5-37.34,10.26-74.8,10.26s-56.43-5.21-74.79-10.26c-18.11-5-35.21-9.67-70.31-9.67s-52.2,4.7-70.31,9.67c-18.35,5-37.33,10.26-74.79,10.26s-56.43-5.21-74.78-10.26c-18.11-5-35.22-9.67-70.31-9.67s-52.2,4.7-70.31,9.67c-18.36,5-37.34,10.26-74.79,10.26s-56.44-5.21-74.79-10.26c-17-4.66-33.06-9.07-63.87-9.61V48c33.25.56,51.08,5.46,68.35,10.2,18.11,5,35.21,9.67,70.31,9.67s52.2-4.69,70.31-9.67c18.35-5,37.33-10.25,74.79-10.25s56.43,5.21,74.79,10.25c18.11,5,35.21,9.67,70.3,9.67s52.2-4.69,70.31-9.67c18.36-5,37.34-10.25,74.79-10.25s56.44,5.21,74.79,10.25c18.12,5,35.22,9.67,70.31,9.67s52.21-4.69,70.32-9.67c18.35-5,37.33-10.25,74.79-10.25s56.43,5.21,74.84,10.25c18.11,5,35.22,9.67,70.31,9.67s52.2-4.69,70.31-9.67c18.36-5,37.34-10.25,74.79-10.25s56.44,5.21,74.8,10.25c18.11,5,35.22,9.67,70.31,9.67s52.2-4.69,70.32-9.67c18.35-5,37.33-10.25,74.79-10.25h0V42.12h0C2861.39,42.12,2844.28,46.82,2826.17,51.79Z" transform="translate(0.73 -0.94)"/><path class="cls-7" d="M1526.69,35.47c18.11,5,35.22,9.67,70.31,9.67s52.2-4.69,70.31-9.67c18.36-5,37.33-10.2,74.79-10.2s56.44,5.16,74.8,10.2c18.11,5,35.22,9.67,70.31,9.67s52.2-4.69,70.31-9.67c18.38-5,37.32-10.2,74.78-10.2s56.43,5.21,74.79,10.25c18.11,5,35.22,9.67,70.31,9.67s52.2-4.69,70.31-9.67c18.35-5.09,37.33-10.25,74.79-10.25s56.4,5.16,74.79,10.2c18.11,5,35.22,9.67,70.31,9.67s52.21-4.69,70.32-9.67c18.35-5,37.33-10.25,74.79-10.25s56.44,5.21,74.79,10.25c18.11,5,35.22,9.67,70.32,9.67s52.2-4.69,70.31-9.67c17.27-4.74,35.1-9.64,68.35-10.2v-11c-30.82.54-46.9,5-63.87,9.62-18.35,5-37.33,10.25-74.79,10.25s-56.44-5.21-74.8-10.25c-18.12-4.94-35.22-9.62-70.31-9.62s-52.2,4.7-70.31,9.67c-18.36,5-37.34,10.25-74.8,10.25s-56.43-5.21-74.79-10.25c-18.11-5-35.21-9.67-70.31-9.67s-52.2,4.7-70.31,9.67c-18.35,5-37.29,10.23-74.79,10.23S2121,29,2102.61,23.92c-18.11-5-35.22-9.65-70.31-9.65S1980.1,19,1962,23.94c-18.36,5-37.34,10.25-74.79,10.25s-56.44-5.21-74.79-10.25c-18.11-5-35.22-9.67-70.31-9.67s-52.2,4.7-70.31,9.67c-18.35,5-37.33,10.25-74.79,10.25s-56.44-5.23-74.79-10.27c-18.11-5-35.22-9.65-70.31-9.65h0v11h0C1489.36,25.27,1508.34,30.43,1526.69,35.47Z" transform="translate(0.73 -0.94)"/><path class="cls-8" d="M1383.5,19c-18.11,5-35.22,9.67-70.31,9.67S1261,23.94,1242.87,19c-18.35-5-37.33-10.26-74.79-10.26s-56.44,5.21-74.81,10.26c-18.11,5-35.22,9.67-70.32,9.67s-52.2-4.7-70.31-9.67c-18.37-5-37.31-10.26-74.77-10.26S821.43,13.92,803.08,19c-18.11,5-35.22,9.67-70.31,9.67s-52.2-4.7-70.31-9.67C644.1,14,625.13,8.71,587.67,8.71S531.27,13.92,512.88,19c-18.11,5-35.22,9.67-70.31,9.67s-52.2-4.7-70.3-9.67c-18.35-5-37.33-10.26-74.79-10.26S241,13.92,222.68,19c-18.11,5-35.22,9.67-70.31,9.67s-52.2-4.7-70.31-9.67C63.71,13.92,44.73,8.71,7.27,8.71h0V69c35,0,52.11,4.71,70.2,9.68,18.35,5,37.33,10.25,74.79,10.25s56.44-5.21,74.79-10.25c18.11-5,35.22-9.68,70.31-9.68s52.2,4.7,70.31,9.68c18.35,5,37.33,10.25,74.79,10.25s56.43-5.21,74.81-10.25c18.11-5,35.22-9.68,70.31-9.68s52.2,4.7,70.31,9.68c18.35,5,37.33,10.25,74.79,10.25s56.43-5.21,74.79-10.25c18.11-5,35.22-9.68,70.31-9.68s52.2,4.7,70.31,9.68c18.36,5,37.34,10.25,74.79,10.25s56.44-5.21,74.79-10.25c18.12-5,35.22-9.68,70.32-9.68s52.2,4.7,70.31,9.68c18.36,5,37.34,10.25,74.8,10.25s56.43-5.21,74.79-10.25c17-4.67,33.09-9.09,64-9.62V8.77C1418.6,9.33,1400.77,14.27,1383.5,19Z" transform="translate(0.73 -0.94)"/><path class="cls-7" d="M1313.19,50.68c-37.46,0-56.44-5.21-74.8-10.26-18.11-5-35.22-9.67-70.31-9.67s-52.2,4.7-70.31,9.67c-18.36,5-37.34,10.26-74.8,10.26s-56.43-5.21-74.79-10.26c-18.11-5-35.21-9.67-70.31-9.67s-52.2,4.7-70.31,9.67c-18.35,5-37.29,10.26-74.79,10.26S676.33,45.47,658,40.42c-18.11-5-35.22-9.67-70.31-9.67s-52.2,4.7-70.31,9.67C499,45.47,480,50.68,442.57,50.68s-56.44-5.21-74.79-10.26c-18.11-5-35.22-9.67-70.31-9.67s-52.2,4.7-70.31,9.67c-18.35,5-37.33,10.26-74.79,10.26S95.93,45.47,77.58,40.42c-18.11-5-35.22-9.67-70.31-9.67h0v5.89c33.25.56,51.08,5.46,68.35,10.2,18.11,5,35.21,9.67,70.31,9.67s52.2-4.69,70.31-9.67c18.35-5,37.33-10.25,74.79-10.25s56.43,5.21,74.79,10.25c18.11,5,35.21,9.67,70.3,9.67s52.2-4.69,70.31-9.67c18.36-5,37.34-10.25,74.79-10.25S637.66,41.8,656,46.84c18.12,5,35.22,9.67,70.31,9.67s52.21-4.69,70.32-9.67c18.35-5,37.33-10.25,74.79-10.25s56.43,5.21,74.84,10.25c18.11,5,35.22,9.67,70.31,9.67s52.2-4.69,70.31-9.67c18.36-5,37.34-10.25,74.79-10.25s56.44,5.21,74.8,10.25c18.11,5,35.22,9.67,70.31,9.67s52.2-4.69,70.32-9.67c18.35-5,37.33-10.25,74.79-10.25h0V30.81c-30.82.54-46.9,4.95-63.87,9.61C1369.63,45.47,1350.65,50.68,1313.19,50.68Z" transform="translate(0.73 -0.94)"/><path class="cls-7" d="M1381.54,51.79c-18.36,5-37.34,10.26-74.8,10.26S1250.3,56.84,1232,51.79c-18.11-5-35.22-9.67-70.32-9.67s-52.2,4.7-70.31,9.67c-18.35,5-37.33,10.26-74.79,10.26s-56.44-5.21-74.79-10.26c-18.11-5-35.22-9.67-70.31-9.67s-52.2,4.7-70.31,9.67c-18.36,5-37.34,10.26-74.8,10.26s-56.43-5.21-74.79-10.26c-18.11-5-35.21-9.67-70.31-9.67s-52.2,4.7-70.31,9.67c-18.35,5-37.33,10.26-74.79,10.26s-56.43-5.21-74.78-10.26c-18.11-5-35.22-9.67-70.31-9.67s-52.2,4.7-70.31,9.67c-18.36,5-37.34,10.26-74.79,10.26S89.49,56.84,71.14,51.79c-17-4.66-33.06-9.07-63.87-9.61V48c33.25.56,51.08,5.46,68.35,10.2,18.11,5,35.21,9.67,70.31,9.67s52.2-4.69,70.31-9.67C234.59,53.21,253.57,48,291,48s56.43,5.21,74.79,10.25c18.11,5,35.21,9.67,70.3,9.67s52.2-4.69,70.31-9.67c18.36-5,37.34-10.25,74.79-10.25S637.66,53.17,656,58.21c18.12,5,35.22,9.67,70.31,9.67s52.21-4.69,70.32-9.67C815,53.21,834,48,871.43,48s56.43,5.21,74.84,10.25c18.11,5,35.22,9.67,70.31,9.67s52.2-4.69,70.31-9.67c18.36-5,37.34-10.25,74.79-10.25s56.44,5.21,74.8,10.25c18.11,5,35.22,9.67,70.31,9.67s52.2-4.69,70.32-9.67c18.35-5,37.33-10.25,74.79-10.25h0V42.12h0C1416.76,42.12,1399.65,46.82,1381.54,51.79Z" transform="translate(0.73 -0.94)"/><path class="cls-7" d="M82.06,35.47c18.11,5,35.22,9.67,70.31,9.67s52.2-4.69,70.31-9.67c18.36-5,37.33-10.2,74.79-10.2s56.44,5.16,74.8,10.2c18.11,5,35.22,9.67,70.31,9.67s52.2-4.69,70.31-9.67c18.38-5,37.32-10.2,74.78-10.2s56.43,5.21,74.79,10.25c18.11,5,35.22,9.67,70.31,9.67s52.2-4.69,70.31-9.67c18.35-5.09,37.33-10.25,74.79-10.25s56.4,5.16,74.79,10.2c18.11,5,35.22,9.67,70.31,9.67s52.21-4.69,70.32-9.67c18.35-5,37.33-10.25,74.79-10.25s56.44,5.21,74.79,10.25c18.11,5,35.22,9.67,70.32,9.67s52.2-4.69,70.31-9.67c17.27-4.74,35.1-9.64,68.35-10.2v-11c-30.82.54-46.9,5-63.87,9.62-18.35,5-37.33,10.25-74.79,10.25s-56.44-5.21-74.8-10.25c-18.12-4.94-35.22-9.62-70.31-9.62s-52.2,4.7-70.31,9.67c-18.36,5-37.34,10.25-74.8,10.25S966.54,29,948.18,23.94c-18.11-5-35.21-9.67-70.31-9.67s-52.2,4.7-70.31,9.67c-18.35,5-37.29,10.23-74.79,10.23S676.33,29,658,23.92c-18.11-5-35.22-9.65-70.31-9.65s-52.2,4.7-70.31,9.67C499,28.94,480,34.19,442.57,34.19S386.13,29,367.78,23.94c-18.11-5-35.22-9.67-70.31-9.67s-52.2,4.7-70.31,9.67c-18.35,5-37.33,10.25-74.79,10.25S95.93,29,77.58,23.92c-18.11-5-35.22-9.65-70.31-9.65h0v11h0C44.73,25.27,63.71,30.43,82.06,35.47Z" transform="translate(0.73 -0.94)"/><path class="cls-9" d="M2828.13,19c-18.11,5-35.22,9.67-70.31,9.67s-52.21-4.7-70.32-9.67c-18.35-5-37.33-10.26-74.79-10.26S2556.27,13.92,2537.9,19c-18.11,5-35.22,9.67-70.32,9.67s-52.2-4.7-70.31-9.67c-18.37-5-37.31-10.26-74.77-10.26s-56.44,5.21-74.79,10.26c-18.11,5-35.22,9.67-70.31,9.67s-52.2-4.7-70.31-9.67c-18.36-5-37.33-10.26-74.79-10.26s-56.4,5.21-74.79,10.26c-18.11,5-35.22,9.67-70.31,9.67s-52.2-4.7-70.3-9.67c-18.35-5-37.33-10.26-74.79-10.26s-56.44,5.21-74.8,10.26c-18.11,5-35.22,9.67-70.31,9.67s-52.2-4.7-70.31-9.67c-18.35-5-37.33-10.26-74.79-10.26v5.56c35.09,0,52.2,4.7,70.31,9.67,18.35,5,37.33,10.25,74.79,10.25s56.44-5.21,74.79-10.25c18.11-5,35.22-9.67,70.31-9.67s52.2,4.7,70.31,9.67c18.35,5,37.33,10.25,74.79,10.25S1943.63,29,1962,23.94c18.11-5,35.22-9.67,70.31-9.67s52.2,4.7,70.31,9.67c18.35,5,37.33,10.25,74.79,10.25s56.44-5.21,74.79-10.25c18.11-5,35.22-9.67,70.31-9.67s52.2,4.7,70.31,9.67c18.36,5,37.34,10.25,74.79,10.25S2524,29,2542.4,23.94c18.11-5,35.21-9.67,70.31-9.67s52.2,4.7,70.31,9.67c18.36,5,37.34,10.25,74.8,10.25s56.44-5.21,74.79-10.25c17-4.66,33-9.08,63.87-9.62V8.77C2863.23,9.33,2845.4,14.27,2828.13,19Z" transform="translate(0.73 -0.94)"/><path class="cls-10" d="M1313.19,28.64c-35.09,0-52.21-4.7-70.32-9.67-18.35-5-37.33-10.26-74.79-10.26s-56.44,5.21-74.81,10.26c-18.11,5-35.22,9.67-70.32,9.67s-52.2-4.7-70.31-9.67c-18.37-5-37.31-10.26-74.77-10.26S821.43,13.92,803.08,19c-18.11,5-35.22,9.67-70.31,9.67s-52.2-4.7-70.31-9.67C644.1,14,625.13,8.71,587.67,8.71S531.27,13.92,512.88,19c-18.11,5-35.22,9.67-70.31,9.67s-52.2-4.7-70.3-9.67c-18.35-5-37.33-10.26-74.79-10.26S241,13.92,222.68,19c-18.11,5-35.22,9.67-70.31,9.67s-52.2-4.7-70.31-9.67C63.71,13.92,44.73,8.71,7.27,8.71v5.56c35.09,0,52.2,4.7,70.31,9.67,18.35,5,37.33,10.25,74.79,10.25S208.81,29,227.16,23.94c18.11-5,35.22-9.67,70.31-9.67s52.2,4.7,70.31,9.67c18.35,5,37.33,10.25,74.79,10.25S499,29,517.36,23.94c18.11-5,35.22-9.67,70.31-9.67S639.87,19,658,23.94c18.35,5,37.33,10.25,74.79,10.25S789.21,29,807.56,23.94c18.11-5,35.22-9.67,70.31-9.67s52.2,4.7,70.31,9.67c18.36,5,37.34,10.25,74.79,10.25s56.44-5.21,74.8-10.25c18.11-5,35.21-9.67,70.31-9.67s52.2,4.7,70.31,9.67c18.36,5,37.34,10.25,74.8,10.25S1369.63,29,1388,23.94c17-4.66,33-9.08,63.87-9.62V8.77c-33.25.56-51.08,5.5-68.35,10.2C1365.39,24,1348.28,28.64,1313.19,28.64Z" transform="translate(0.73 -0.94)"/><path class="cls-11" d="M2828.13,35.47c-18.11,5-35.23,9.67-70.31,9.67s-52.21-4.69-70.32-9.67c-18.35-5-37.33-10.25-74.79-10.25s-56.44,5.21-74.81,10.25c-18.11,5-35.22,9.67-70.32,9.67s-52.2-4.69-70.31-9.67c-18.37-5-37.31-10.2-74.77-10.2s-56.44,5.21-74.79,10.25c-18.11,5-35.22,9.67-70.31,9.67s-52.2-4.69-70.31-9.67c-18.36-5.09-37.33-10.25-74.79-10.25s-56.4,5.16-74.79,10.2c-18.11,5-35.22,9.67-70.31,9.67s-52.2-4.69-70.3-9.67c-18.36-5-37.34-10.2-74.8-10.2s-56.43,5.21-74.79,10.25c-18.11,5-35.22,9.67-70.31,9.67s-52.2-4.74-70.31-9.72c-18.35-5-37.33-10.2-74.79-10.2V30.8c35.09,0,52.2,4.7,70.31,9.67,18.35,5.05,37.33,10.26,74.79,10.26s56.44-5.21,74.79-10.26c18.11-5,35.22-9.67,70.31-9.67s52.2,4.7,70.31,9.67c18.35,5.05,37.33,10.26,74.79,10.26s56.43-5.21,74.79-10.26c18.11-5,35.22-9.67,70.31-9.67s52.2,4.7,70.31,9.67c18.35,5,37.29,10.21,74.79,10.21s56.44-5.21,74.79-10.26c18.11-5,35.22-9.67,70.31-9.67s52.2,4.7,70.31,9.67c18.36,5,37.34,10.26,74.79,10.26s56.44-5.21,74.8-10.26c18.11-5,35.21-9.67,70.31-9.67s52.2,4.7,70.31,9.67c18.36,5,37.34,10.26,74.8,10.26s56.44-5.21,74.79-10.26c17-4.66,33-9.07,63.87-9.61V25.27C2863.23,25.83,2845.4,30.73,2828.13,35.47Z" transform="translate(0.73 -0.94)"/><path class="cls-12" d="M1313.19,45.14c-35.1,0-52.21-4.69-70.32-9.67-18.35-5-37.33-10.25-74.79-10.25s-56.44,5.21-74.81,10.25c-18.11,5-35.22,9.67-70.32,9.67s-52.2-4.69-70.31-9.67c-18.37-5-37.31-10.2-74.77-10.2s-56.44,5.21-74.79,10.25c-18.11,5-35.22,9.67-70.31,9.67s-52.2-4.69-70.31-9.67c-18.36-5.09-37.33-10.25-74.79-10.25s-56.4,5.16-74.79,10.2c-18.11,5-35.22,9.67-70.31,9.67s-52.2-4.69-70.3-9.67c-18.36-5-37.34-10.2-74.8-10.2S241,30.48,222.68,35.52c-18.11,5-35.22,9.67-70.31,9.67s-52.2-4.74-70.31-9.72c-18.35-5-37.33-10.2-74.79-10.2V30.8c35.09,0,52.2,4.7,70.31,9.67,18.35,5.05,37.33,10.26,74.79,10.26s56.44-5.21,74.79-10.26c18.11-5,35.22-9.67,70.31-9.67s52.2,4.7,70.31,9.67c18.35,5.05,37.33,10.26,74.79,10.26S499,45.52,517.36,40.47c18.11-5,35.22-9.67,70.31-9.67s52.2,4.7,70.31,9.67c18.35,5,37.29,10.21,74.79,10.21s56.44-5.21,74.79-10.26c18.11-5,35.22-9.67,70.31-9.67s52.2,4.7,70.31,9.67c18.36,5,37.34,10.26,74.79,10.26s56.44-5.21,74.8-10.26c18.11-5,35.21-9.67,70.31-9.67s52.2,4.7,70.31,9.67c18.36,5,37.34,10.26,74.8,10.26s56.44-5.21,74.79-10.26c17-4.66,33-9.07,63.87-9.61V25.27c-33.25.56-51.08,5.46-68.35,10.2C1365.39,40.45,1348.27,45.14,1313.19,45.14Z" transform="translate(0.73 -0.94)"/><path class="cls-13" d="M2821.69,46.84c-18.12,5-35.22,9.67-70.32,9.67s-52.2-4.69-70.31-9.67c-18.36-5-37.34-10.25-74.8-10.25s-56.43,5.21-74.79,10.25c-18.11,5-35.22,9.67-70.31,9.67s-52.2-4.69-70.31-9.67c-18.36-5-37.34-10.25-74.79-10.25s-56.44,5.21-74.79,10.25c-18.11,5-35.22,9.67-70.32,9.67s-52.19-4.69-70.31-9.67c-18.35-5-37.33-10.25-74.79-10.25s-56.43,5.21-74.79,10.25c-18.11,5-35.21,9.67-70.31,9.67s-52.19-4.69-70.3-9.67c-18.36-5-37.34-10.25-74.79-10.25s-56.44,5.21-74.76,10.25c-18.11,5-35.22,9.67-70.31,9.67s-52.2-4.69-70.31-9.67c-17.3-4.74-35.13-9.64-68.38-10.2v5.54c30.81.54,46.9,5,63.87,9.61,18.35,5,37.33,10.26,74.79,10.26s56.43-5.21,74.79-10.26c18.11-5,35.21-9.67,70.31-9.67s52.2,4.7,70.31,9.67c18.35,5,37.33,10.26,74.78,10.26s56.44-5.21,74.79-10.26c18.11-5,35.22-9.67,70.31-9.67s52.2,4.7,70.31,9.67c18.36,5,37.34,10.26,74.79,10.26s56.44-5.21,74.8-10.26c18.11-5,35.21-9.67,70.31-9.67s52.2,4.7,70.31,9.67c18.35,5,37.33,10.26,74.79,10.26s56.44-5.21,74.79-10.26c18.11-5,35.22-9.67,70.31-9.67s52.21,4.7,70.32,9.67c18.35,5,37.33,10.26,74.79,10.26s56.44-5.21,74.8-10.26c18.11-5,35.22-9.67,70.31-9.67V36.59C2859,36.59,2840,41.8,2821.69,46.84Z" transform="translate(0.73 -0.94)"/><path class="cls-14" d="M1306.74,56.51c-35.1,0-52.2-4.69-70.31-9.67-18.36-5-37.34-10.25-74.8-10.25s-56.43,5.21-74.79,10.25c-18.11,5-35.22,9.67-70.31,9.67s-52.2-4.69-70.31-9.67c-18.36-5-37.34-10.25-74.79-10.25S815,41.8,796.64,46.84c-18.11,5-35.22,9.67-70.32,9.67S674.13,51.82,656,46.84c-18.35-5-37.33-10.25-74.79-10.25s-56.43,5.21-74.79,10.25c-18.11,5-35.21,9.67-70.31,9.67s-52.19-4.69-70.3-9.67c-18.36-5-37.34-10.25-74.79-10.25s-56.44,5.21-74.76,10.25c-18.11,5-35.22,9.67-70.31,9.67s-52.2-4.69-70.31-9.67C58.35,42.1,40.52,37.2,7.27,36.64v5.54c30.81.54,46.9,5,63.87,9.61,18.35,5,37.33,10.26,74.79,10.26s56.43-5.21,74.79-10.26c18.11-5,35.21-9.67,70.31-9.67s52.2,4.7,70.31,9.67c18.35,5,37.33,10.26,74.78,10.26s56.44-5.21,74.79-10.26c18.11-5,35.22-9.67,70.31-9.67s52.2,4.7,70.31,9.67c18.36,5,37.34,10.26,74.79,10.26s56.44-5.21,74.8-10.26c18.11-5,35.21-9.67,70.31-9.67s52.2,4.7,70.31,9.67c18.35,5,37.33,10.26,74.79,10.26s56.44-5.21,74.79-10.26c18.11-5,35.22-9.67,70.31-9.67s52.21,4.7,70.32,9.67c18.35,5,37.33,10.26,74.79,10.26s56.44-5.21,74.8-10.26c18.11-5,35.22-9.67,70.31-9.67V36.59c-37.46,0-56.44,5.21-74.79,10.25C1358.94,51.84,1341.84,56.51,1306.74,56.51Z" transform="translate(0.73 -0.94)"/><path class="cls-15" d="M2821.69,58.21c-18.12,5-35.22,9.67-70.32,9.67s-52.2-4.69-70.31-9.67c-18.36-5-37.34-10.25-74.8-10.25s-56.43,5.21-74.79,10.25c-18.11,5-35.22,9.67-70.31,9.67s-52.2-4.69-70.31-9.67c-18.36-5-37.34-10.25-74.79-10.25s-56.44,5.21-74.79,10.25c-18.11,5-35.22,9.67-70.32,9.67s-52.19-4.69-70.31-9.67c-18.35-5-37.33-10.25-74.79-10.25s-56.43,5.21-74.79,10.25c-18.11,5-35.21,9.67-70.31,9.67s-52.19-4.69-70.3-9.67c-18.36-5-37.34-10.25-74.79-10.25s-56.44,5.21-74.76,10.25c-18.11,5-35.22,9.67-70.31,9.67s-52.2-4.69-70.31-9.67c-17.3-4.74-35.13-9.64-68.38-10.2V69c35,0,52.11,4.71,70.2,9.68,18.35,5,37.33,10.25,74.79,10.25s56.44-5.21,74.79-10.25c18.11-5,35.22-9.68,70.31-9.68s52.2,4.7,70.31,9.68c18.35,5,37.33,10.25,74.79,10.25s56.43-5.21,74.81-10.25c18.11-5,35.22-9.68,70.31-9.68s52.2,4.7,70.31,9.68c18.35,5,37.33,10.25,74.79,10.25s56.43-5.21,74.79-10.25c18.11-5,35.22-9.68,70.31-9.68s52.2,4.7,70.31,9.68c18.36,5,37.34,10.25,74.79,10.25s56.44-5.21,74.79-10.25c18.12-5,35.22-9.68,70.32-9.68s52.2,4.7,70.31,9.68c18.36,5,37.34,10.25,74.8,10.25s56.43-5.21,74.79-10.25c17-4.67,33.09-9.09,64-9.62V48C2859,48,2840,53.17,2821.69,58.21Z" transform="translate(0.73 -0.94)"/><path class="cls-16" d="M1306.74,67.88c-35.1,0-52.2-4.69-70.31-9.67-18.36-5-37.34-10.25-74.8-10.25s-56.43,5.21-74.79,10.25c-18.11,5-35.22,9.67-70.31,9.67s-52.2-4.69-70.31-9.67C927.86,53.21,908.88,48,871.43,48S815,53.17,796.64,58.21c-18.11,5-35.22,9.67-70.32,9.67S674.13,63.19,656,58.21C637.66,53.21,618.68,48,581.22,48s-56.43,5.21-74.79,10.25c-18.11,5-35.21,9.67-70.31,9.67s-52.19-4.69-70.3-9.67C347.46,53.21,328.48,48,291,48s-56.44,5.21-74.76,10.25c-18.11,5-35.22,9.67-70.31,9.67s-52.2-4.69-70.31-9.67C58.35,53.47,40.52,48.57,7.27,48V69c35,0,52.11,4.71,70.2,9.68,18.35,5,37.33,10.25,74.79,10.25s56.44-5.21,74.79-10.25c18.11-5,35.22-9.68,70.31-9.68s52.2,4.7,70.31,9.68c18.35,5,37.33,10.25,74.79,10.25s56.43-5.21,74.81-10.25c18.11-5,35.22-9.68,70.31-9.68s52.2,4.7,70.31,9.68c18.35,5,37.33,10.25,74.79,10.25s56.43-5.21,74.79-10.25c18.11-5,35.22-9.68,70.31-9.68s52.2,4.7,70.31,9.68c18.36,5,37.34,10.25,74.79,10.25s56.44-5.21,74.79-10.25c18.12-5,35.22-9.68,70.32-9.68s52.2,4.7,70.31,9.68c18.36,5,37.34,10.25,74.8,10.25s56.43-5.21,74.79-10.25c17-4.67,33.09-9.09,64-9.62V48c-37.5,0-56.48,5.21-74.83,10.25C1358.94,63.21,1341.84,67.88,1306.74,67.88Z" transform="translate(0.73 -0.94)"/></svg>