<svg id="Layer_1" data-name="Layer 1" xmlns="http://www.w3.org/2000/svg" xmlns:xlink="http://www.w3.org/1999/xlink" viewBox="0 0 1466.64 149.16"><defs><style>.cls-1{fill:url(#linear-gradient);}.cls-2{fill:#262230;}.cls-3,.cls-5,.cls-6{stroke:#262230;stroke-linejoin:round;}.cls-3,.cls-5,.cls-6,.cls-8{stroke-width:2px;}.cls-3{fill:url(#linear-gradient-2);}.cls-4{fill:url(#linear-gradient-3);}.cls-5{fill:url(#linear-gradient-4);}.cls-6{fill:url(#linear-gradient-5);}.cls-7{fill:url(#linear-gradient-6);}.cls-8{fill:#006c73;stroke:#fff;stroke-miterlimit:10;}</style><linearGradient id="linear-gradient" x1="706.77" y1="-301.46" x2="733.62" y2="292" gradientUnits="userSpaceOnUse"><stop offset="0.21" stop-color="#67c5ad"/><stop offset="0.22" stop-color="#65c0aa"/><stop offset="0.39" stop-color="#4d8783"/><stop offset="0.55" stop-color="#3a5a65"/><stop offset="0.7" stop-color="#2c394f"/><stop offset="0.81" stop-color="#242542"/><stop offset="0.89" stop-color="#211e3d"/></linearGradient><linearGradient id="linear-gradient-2" x1="-10.21" y1="-264.82" x2="16.34" y2="321.95" xlink:href="#linear-gradient"/><linearGradient id="linear-gradient-3" x1="708.91" y1="-303.65" x2="735.98" y2="294.59" xlink:href="#linear-gradient"/><linearGradient id="linear-gradient-4" x1="1424.49" y1="-321.6" x2="1450.54" y2="254.3" xlink:href="#linear-gradient"/><linearGradient id="linear-gradient-5" x1="-14.73" y1="-264.56" x2="11.82" y2="322.21" xlink:href="#linear-gradient"/><linearGradient id="linear-gradient-6" x1="704.35" y1="-305.33" x2="731.42" y2="292.91" xlink:href="#linear-gradient"/></defs><title>oceanbreak</title><path class="cls-1" d="M1305.49,141.41c-35.27,0-52.44-8.56-70.63-17.62s-37-18.46-74.2-18.46-56,9.38-74.2,18.46-35.36,17.62-70.62,17.62-52.43-8.56-70.62-17.62-37-18.46-74.2-18.46-56,9.38-74.19,18.46-35.36,17.62-70.62,17.62-52.44-8.56-70.62-17.62-37.05-18.46-74.2-18.46-56,9.38-74.2,18.46-35.35,17.62-70.62,17.62-52.43-8.56-70.61-17.62-37-18.46-74.2-18.46-56,9.38-74.2,18.46S182.21,141.41,147,141.41s-52.44-8.56-70.62-17.62-37-18.45-74.09-18.46a1,1,0,0,1-1-1v-89a1,1,0,0,1,1-1c35.26,0,52.43,8.56,70.62,17.62s37.05,18.47,74.2,18.47S203,41,221.25,31.91s35.36-17.62,70.62-17.62,52.43,8.56,70.62,17.62,37.05,18.47,74.19,18.47,56-9.39,74.2-18.47,35.36-17.62,70.62-17.62,52.43,8.56,70.62,17.62,37,18.47,74.2,18.47,56-9.39,74.2-18.47,35.35-17.62,70.61-17.62,52.44,8.56,70.62,17.62,37,18.47,74.2,18.47,56-9.39,74.2-18.47,35.36-17.62,70.62-17.62,52.44,8.56,70.62,17.62,37.06,18.47,74.21,18.47,56-9.39,74.2-18.47c17.06-8.5,33.18-16.53,64.16-17.52h0a1,1,0,0,1,1,1v89a1,1,0,0,1-1,1c-33,1-50.77,9.83-67.91,18.37C1357.92,132.85,1340.75,141.41,1305.49,141.41Z" transform="translate(10.2 -3.27)"/><path class="cls-2" d="M1160.77,15.29c35,0,52.1,8.51,70.18,17.52,18.32,9.13,37.26,18.57,74.65,18.57s56.33-9.44,74.64-18.57c16.94-8.44,33-16.44,63.75-17.42v89c-33.26,1-51.07,9.87-68.33,18.47-18.07,9-35.15,17.52-70.17,17.52s-52.1-8.51-70.18-17.52c-18.32-9.13-37.26-18.57-74.65-18.57s-56.32,9.44-74.64,18.57c-18.08,9-35.15,17.52-70.18,17.52s-52.1-8.51-70.17-17.52c-18.32-9.13-37.26-18.57-74.65-18.57s-56.32,9.44-74.64,18.57c-18.08,9-35.15,17.52-70.17,17.52s-52.1-8.51-70.18-17.52c-18.31-9.13-37.26-18.57-74.64-18.57s-56.32,9.44-74.64,18.57c-18.08,9-35.15,17.52-70.18,17.52s-52.09-8.51-70.17-17.52c-18.31-9.13-37.26-18.57-74.64-18.57s-56.32,9.44-74.64,18.57C199,131.9,182,140.41,147,140.41s-52.1-8.51-70.18-17.52c-18.3-9.12-37.22-18.55-74.53-18.56v-89h0c35,0,52.1,8.51,70.17,17.52,18.32,9.13,37.26,18.57,74.65,18.57s56.32-9.44,74.64-18.57c18.08-9,35.15-17.52,70.17-17.52S344,23.8,362,32.81c18.32,9.13,37.26,18.57,74.64,18.57S493,41.94,511.33,32.81c18.07-9,35.15-17.52,70.17-17.52s52.1,8.51,70.17,17.52c18.32,9.13,37.26,18.57,74.65,18.57S782.64,41.94,801,32.81c18.08-9,35.15-17.52,70.17-17.52s52.1,8.51,70.18,17.52c18.32,9.13,37.26,18.57,74.64,18.57s56.33-9.44,74.65-18.57c18.07-9,35.15-17.52,70.17-17.52m0-2c-35.49,0-52.77,8.61-71.06,17.73-18.12,9-36.84,18.36-73.76,18.36S960.31,40,942.2,31c-18.29-9.12-35.57-17.73-71.07-17.73S818.36,21.9,800.07,31C782,40,763.23,49.38,726.32,49.38S670.68,40,652.57,31C634.27,21.9,617,13.29,581.5,13.29S528.73,21.9,510.44,31c-18.12,9-36.84,18.36-73.76,18.36S381.05,40,362.94,31c-18.3-9.12-35.57-17.73-71.07-17.73S239.1,21.9,220.81,31C202.7,40,184,49.38,147.06,49.38S91.42,40,73.3,31C55,21.9,37.73,13.29,2.24,13.29a2,2,0,0,0-2,2v89a2,2,0,0,0,2,2c36.84,0,55.55,9.34,73.64,18.35,18.29,9.12,35.57,17.73,71.07,17.73s52.77-8.61,71.06-17.73c18.11-9,36.84-18.36,73.75-18.36s55.64,9.34,73.75,18.36c18.29,9.12,35.57,17.73,71.06,17.73s52.78-8.61,71.07-17.73c18.11-9,36.84-18.36,73.75-18.36s55.64,9.34,73.75,18.36c18.29,9.12,35.57,17.73,71.07,17.73s52.77-8.61,71.06-17.73c18.11-9,36.84-18.36,73.75-18.36s55.65,9.34,73.76,18.36c18.29,9.12,35.57,17.73,71.06,17.73s52.78-8.61,71.07-17.73c18.11-9,36.84-18.36,73.75-18.36s55.64,9.34,73.76,18.36c18.29,9.12,35.57,17.73,71.07,17.73s52.77-8.61,71.06-17.73c17-8.49,34.67-17.27,67.5-18.26a2,2,0,0,0,1.94-2v-89a2,2,0,0,0-2-2h-.06c-31.2,1-47.41,9.07-64.58,17.63-18.11,9-36.84,18.36-73.75,18.36S1250,40,1231.84,31c-18.29-9.12-35.57-17.73-71.07-17.73Z" transform="translate(10.2 -3.27)"/><path class="cls-3" d="M2.24,15.29v-10" transform="translate(10.2 -3.27)"/><path class="cls-4" d="M1305.6,52.38c-37.62,0-56.67-9.5-75.1-18.68-18-9-34.94-17.41-69.73-17.41S1109,24.75,1091.05,33.7c-18.43,9.18-37.48,18.68-75.1,18.68s-56.66-9.5-75.09-18.68c-18-9-34.94-17.41-69.73-17.41s-51.76,8.46-69.72,17.41C783,42.88,763.94,52.38,726.32,52.38s-56.67-9.5-75.09-18.68c-18-9-34.94-17.41-69.73-17.41s-51.76,8.46-69.73,17.41c-18.42,9.18-37.47,18.68-75.09,18.68S380,42.88,361.6,33.7c-18-9-34.94-17.41-69.73-17.41s-51.76,8.46-69.72,17.41c-18.43,9.18-37.47,18.68-75.09,18.68S90.39,42.88,72,33.7C54,24.75,37,16.29,2.24,16.29a1,1,0,0,1-1-1v-10a1,1,0,0,1,1-1c37.62,0,56.67,9.49,75.09,18.67,18,9,34.94,17.41,69.73,17.41s51.76-8.45,69.72-17.41c18.43-9.18,37.47-18.67,75.09-18.67S348.54,13.76,367,22.94c18,9,34.94,17.41,69.72,17.41s51.77-8.45,69.73-17.41c18.42-9.18,37.47-18.67,75.09-18.67s56.67,9.49,75.09,18.67c18,9,34.94,17.41,69.73,17.41S778.08,31.9,796,22.94c18.43-9.18,37.48-18.67,75.09-18.67s56.67,9.49,75.09,18.67c18,9,34.94,17.41,69.73,17.41s51.76-8.45,69.73-17.41c18.43-9.18,37.47-18.67,75.09-18.67s56.67,9.49,75.09,18.67c18,9,34.94,17.41,69.74,17.41s51.76-8.45,69.73-17.41c17.31-8.63,35.21-17.55,68.63-18.57h0a1,1,0,0,1,1,1v10a1,1,0,0,1-1,1c-30.54,1-46.47,8.91-63.33,17.31C1362.27,42.88,1343.22,52.38,1305.6,52.38Z" transform="translate(10.2 -3.27)"/><path class="cls-2" d="M1160.77,5.27c37.39,0,56.33,9.44,74.65,18.57,18.08,9,35.15,17.51,70.18,17.51s52.1-8.51,70.17-17.51c17.24-8.59,35-17.45,68.22-18.47v10c-30.76,1-46.81,9-63.75,17.42-18.31,9.13-37.26,18.57-74.64,18.57s-56.33-9.44-74.65-18.57c-18.08-9-35.15-17.52-70.18-17.52s-52.1,8.51-70.17,17.52c-18.32,9.13-37.26,18.57-74.65,18.57s-56.32-9.44-74.64-18.57c-18.08-9-35.15-17.52-70.18-17.52S819,23.8,801,32.81c-18.32,9.13-37.26,18.57-74.64,18.57S670,41.94,651.67,32.81c-18.07-9-35.14-17.52-70.17-17.52s-52.1,8.51-70.17,17.52C493,41.94,474.07,51.38,436.68,51.38S380.36,41.94,362,32.81c-18.07-9-35.14-17.52-70.17-17.52S239.78,23.8,221.7,32.81c-18.32,9.13-37.26,18.57-74.64,18.57S90.73,41.94,72.41,32.81c-18.07-9-35.15-17.52-70.17-17.52h0v-10h0c37.38,0,56.32,9.44,74.64,18.57C95,32.84,112,41.35,147.06,41.35s52.09-8.51,70.17-17.51c18.32-9.13,37.26-18.57,74.64-18.57s56.33,9.44,74.64,18.57c18.08,9,35.15,17.51,70.17,17.51s52.1-8.51,70.18-17.51c18.32-9.13,37.26-18.57,74.64-18.57s56.33,9.44,74.65,18.57c18.07,9,35.14,17.51,70.17,17.51s52.1-8.51,70.17-17.51c18.32-9.13,37.26-18.57,74.64-18.57s56.33,9.44,74.65,18.57c18.07,9,35.15,17.51,70.17,17.51s52.1-8.51,70.18-17.51c18.32-9.13,37.26-18.57,74.64-18.57m0-2c-37.85,0-57,9.55-75.53,18.78-17.86,8.9-34.73,17.3-69.29,17.3s-51.42-8.4-69.28-17.3C928.15,12.82,909,3.27,871.13,3.27s-57,9.55-75.53,18.78c-17.86,8.9-34.73,17.3-69.28,17.3S674.9,31,657,22.05C638.51,12.82,619.35,3.27,581.5,3.27s-57,9.55-75.53,18.78c-17.86,8.9-34.73,17.3-69.29,17.3s-51.42-8.4-69.27-17.3c-18.53-9.23-37.68-18.78-75.54-18.78s-57,9.55-75.53,18.78c-17.86,8.9-34.73,17.3-69.28,17.3S95.63,31,77.78,22.05C59.25,12.82,40.09,3.27,2.24,3.27a2,2,0,0,0-2,2v10a2,2,0,0,0,2,2c34.55,0,51.42,8.41,69.28,17.31,18.53,9.23,37.68,18.78,75.54,18.78s57-9.55,75.53-18.78c17.86-8.9,34.73-17.31,69.28-17.31s51.42,8.41,69.28,17.31c18.53,9.23,37.68,18.78,75.53,18.78s57-9.55,75.54-18.78C530.08,25.7,547,17.29,581.5,17.29s51.42,8.41,69.28,17.31c18.53,9.23,37.68,18.78,75.54,18.78s57-9.55,75.53-18.78c17.86-8.9,34.73-17.31,69.28-17.31s51.43,8.41,69.29,17.31c18.52,9.23,37.68,18.78,75.53,18.78s57-9.55,75.54-18.78c17.86-8.9,34.73-17.31,69.28-17.31s51.43,8.41,69.29,17.31c18.52,9.23,37.68,18.78,75.54,18.78s57-9.55,75.54-18.78c16.76-8.35,32.59-16.24,62.91-17.21a2,2,0,0,0,1.94-2v-10a2,2,0,0,0-.61-1.44,2,2,0,0,0-1.39-.56h-.06c-33.64,1-51.64,10-69,18.68-17.86,8.9-34.73,17.3-69.28,17.3s-51.43-8.4-69.29-17.3c-18.53-9.23-37.68-18.78-75.54-18.78Z" transform="translate(10.2 -3.27)"/><path class="cls-5" d="M1444,104.42v10" transform="translate(10.2 -3.27)"/><path class="cls-6" d="M2.13,114.35h.11v-10H2.13" transform="translate(10.2 -3.27)"/><path class="cls-7" d="M1305.49,151.43c-37.63,0-56.68-9.49-75.1-18.67-18-9-34.94-17.41-69.73-17.41s-51.76,8.45-69.72,17.41c-18.43,9.18-37.48,18.67-75.1,18.67s-56.67-9.49-75.09-18.67c-18-9-34.94-17.41-69.73-17.41s-51.75,8.45-69.72,17.41c-18.42,9.18-37.47,18.67-75.09,18.67s-56.67-9.49-75.09-18.67c-18-9-34.94-17.41-69.73-17.41s-51.76,8.45-69.72,17.41c-18.43,9.18-37.48,18.67-75.1,18.67s-56.66-9.49-75.08-18.67c-18-9-34.94-17.41-69.73-17.41S240,123.8,222,132.76c-18.43,9.18-37.48,18.67-75.09,18.67s-56.67-9.49-75.09-18.67c-18-8.95-34.9-17.39-69.62-17.41a1,1,0,0,1-1-1v-10a1,1,0,0,1,.29-.71,1,1,0,0,1,.71-.29h0c37.55,0,56.58,9.5,75,18.67,18,8.95,34.94,17.41,69.73,17.41S198.71,131,216.67,122c18.42-9.18,37.47-18.67,75.09-18.67s56.67,9.49,75.09,18.67c18,8.95,34.94,17.41,69.72,17.41S488.34,131,506.3,122c18.42-9.18,37.47-18.67,75.09-18.67s56.67,9.49,75.09,18.67c18,8.95,34.94,17.41,69.73,17.41S778,131,795.93,122c18.42-9.18,37.47-18.67,75.09-18.67s56.67,9.49,75.1,18.67c18,8.95,34.93,17.41,69.72,17.41S1067.6,131,1085.57,122c18.42-9.18,37.47-18.67,75.09-18.67s56.67,9.49,75.09,18.67c18,8.95,34.94,17.41,69.74,17.41s51.76-8.46,69.73-17.41c17.33-8.64,35.25-17.57,68.74-18.58h0a1,1,0,0,1,1,1v10a1,1,0,0,1-1,1c-30.61,1-46.56,8.91-63.44,17.32C1362.16,141.94,1343.11,151.43,1305.49,151.43Z" transform="translate(10.2 -3.27)"/><path class="cls-2" d="M1160.66,104.32c37.39,0,56.33,9.44,74.65,18.57,18.08,9,35.15,17.52,70.18,17.52s52.1-8.51,70.17-17.52c17.26-8.6,35.07-17.47,68.33-18.47v10c-30.83,1-46.9,9-63.86,17.42-18.32,9.13-37.26,18.57-74.64,18.57s-56.33-9.44-74.65-18.57c-18.08-9-35.15-17.51-70.18-17.51s-52.1,8.51-70.17,17.51c-18.32,9.13-37.26,18.57-74.65,18.57S959.52,141,941.2,131.86c-18.08-9-35.15-17.51-70.18-17.51s-52.09,8.51-70.17,17.51c-18.32,9.13-37.26,18.57-74.64,18.57s-56.33-9.44-74.65-18.57c-18.07-9-35.14-17.51-70.17-17.51s-52.1,8.51-70.17,17.51C492.9,141,474,150.43,436.57,150.43s-56.32-9.44-74.64-18.57c-18.07-9-35.14-17.51-70.17-17.51s-52.1,8.51-70.17,17.51C203.27,141,184.33,150.43,147,150.43S90.62,141,72.3,131.86c-18-9-35.11-17.49-70.06-17.51v-10c37.31,0,56.23,9.44,74.53,18.56,18.08,9,35.15,17.52,70.18,17.52s52.09-8.51,70.17-17.52c18.32-9.13,37.26-18.57,74.64-18.57s56.33,9.44,74.64,18.57c18.08,9,35.15,17.52,70.17,17.52s52.1-8.51,70.18-17.52c18.32-9.13,37.26-18.57,74.64-18.57s56.33,9.44,74.64,18.57c18.08,9,35.15,17.52,70.18,17.52s52.09-8.51,70.17-17.52c18.32-9.13,37.26-18.57,74.64-18.57s56.33,9.44,74.65,18.57c18.07,9,35.15,17.52,70.17,17.52s52.1-8.51,70.18-17.52c18.32-9.13,37.26-18.57,74.64-18.57m0-2c-37.85,0-57,9.55-75.54,18.78-17.85,8.9-34.72,17.31-69.28,17.31S964.42,130,946.56,121.1C928,111.87,908.88,102.32,871,102.32s-57,9.55-75.53,18.78c-17.86,8.9-34.73,17.31-69.28,17.31S674.78,130,656.93,121.1c-18.53-9.23-37.69-18.78-75.54-18.78s-57,9.55-75.53,18.78c-17.86,8.9-34.73,17.31-69.29,17.31S385.15,130,367.3,121.1c-18.53-9.23-37.68-18.78-75.54-18.78s-57,9.55-75.53,18.78C198.37,130,181.5,138.41,147,138.41S95.52,130,77.66,121.1C59.16,111.88,40,102.34,2.24,102.33a2,2,0,0,0-2,2v10a2,2,0,0,0,2,2c34.48,0,51.33,8.41,69.17,17.3,18.52,9.24,37.68,18.78,75.54,18.78s57-9.54,75.53-18.78c17.86-8.9,34.73-17.3,69.28-17.3s51.42,8.4,69.28,17.3c18.53,9.24,37.68,18.78,75.53,18.78s57-9.54,75.54-18.78c17.86-8.9,34.73-17.3,69.28-17.3s51.42,8.4,69.28,17.3c18.53,9.24,37.68,18.78,75.54,18.78s57-9.54,75.53-18.78c17.86-8.9,34.73-17.3,69.28-17.3s51.43,8.4,69.29,17.3c18.52,9.24,37.68,18.78,75.53,18.78s57-9.54,75.54-18.78c17.86-8.9,34.73-17.3,69.28-17.3s51.43,8.4,69.29,17.3c18.52,9.24,37.68,18.78,75.54,18.78s57-9.54,75.53-18.78c16.79-8.36,32.64-16.26,63-17.21a2,2,0,0,0,1.94-2v-10a2,2,0,0,0-2-2h-.06c-33.71,1-51.73,10-69.16,18.68-17.86,8.9-34.73,17.31-69.28,17.31s-51.43-8.41-69.29-17.31c-18.53-9.23-37.68-18.78-75.54-18.78Z" transform="translate(10.2 -3.27)"/><path class="cls-8" d="M1305.6,81.26c-37.39,0-56.33-9.44-74.65-18.57-18.08-9-35.15-17.51-70.18-17.51s-52.1,8.51-70.17,17.51c-18.32,9.13-37.26,18.57-74.65,18.57s-56.32-9.44-74.64-18.57c-18.08-9-35.15-17.51-70.18-17.51S819,53.69,801,62.69c-18.32,9.13-37.26,18.57-74.64,18.57S670,71.82,651.67,62.69c-18.07-9-35.14-17.51-70.17-17.51s-52.1,8.51-70.17,17.51C493,71.82,474.07,81.26,436.68,81.26S380.36,71.82,362,62.69c-18.07-9-35.14-17.51-70.17-17.51s-52.09,8.51-70.17,17.51c-18.32,9.13-37.26,18.57-74.64,18.57S90.73,71.82,72.41,62.69c-18.07-9-35.15-17.51-70.17-17.51a5,5,0,0,1,0-10c37.38,0,56.32,9.44,74.64,18.57C95,62.73,112,71.24,147.06,71.24s52.09-8.51,70.17-17.52c18.32-9.13,37.26-18.57,74.64-18.57s56.33,9.44,74.64,18.57c18.08,9,35.15,17.52,70.17,17.52s52.1-8.51,70.18-17.52c18.32-9.13,37.26-18.57,74.64-18.57s56.33,9.44,74.65,18.57c18.07,9,35.14,17.52,70.17,17.52s52.1-8.51,70.17-17.52c18.32-9.13,37.26-18.57,74.64-18.57s56.33,9.44,74.65,18.57c18.08,9,35.15,17.52,70.17,17.52s52.1-8.51,70.18-17.52c18.32-9.13,37.26-18.57,74.64-18.57s56.33,9.44,74.65,18.57c18.08,9,35.15,17.52,70.18,17.52s52.1-8.51,70.17-17.52c18.32-9.13,37.27-18.57,74.65-18.57a5,5,0,0,1,0,10c-35,0-52.1,8.51-70.17,17.51C1361.93,71.82,1343,81.26,1305.6,81.26Z" transform="translate(10.2 -3.27)"/><path class="cls-8" d="M1299.16,101.85c-37.38,0-56.32-9.44-74.64-18.57-18.08-9-35.15-17.51-70.18-17.51s-52.1,8.5-70.17,17.51c-18.32,9.13-37.26,18.57-74.65,18.57s-56.32-9.44-74.64-18.57c-18.08-9-35.15-17.51-70.18-17.51s-52.1,8.5-70.17,17.51c-18.32,9.13-37.26,18.57-74.64,18.57s-56.33-9.44-74.65-18.57c-18.07-9-35.15-17.51-70.17-17.51S523,74.27,504.9,83.28c-18.32,9.13-37.26,18.57-74.65,18.57s-56.32-9.44-74.64-18.57c-18.07-9-35.15-17.51-70.17-17.51s-52.1,8.5-70.17,17.51C197,92.41,178,101.85,140.62,101.85S84.3,92.41,66,83.28c-18.07-9-35.15-17.51-70.17-17.51a5,5,0,0,1-5-5,5,5,0,0,1,5-5c37.38,0,56.32,9.44,74.64,18.57,18.08,9,35.15,17.52,70.17,17.52s52.1-8.51,70.18-17.52c18.32-9.13,37.26-18.57,74.64-18.57s56.33,9.44,74.64,18.57c18.08,9,35.15,17.52,70.17,17.52s52.1-8.51,70.18-17.52c18.31-9.13,37.26-18.57,74.64-18.57s56.32,9.44,74.64,18.57c18.08,9,35.15,17.52,70.18,17.52S772,83.32,790.06,74.31c18.32-9.13,37.26-18.57,74.64-18.57S921,65.18,939.35,74.31c18.07,9,35.15,17.52,70.17,17.52s52.1-8.51,70.18-17.52c18.31-9.13,37.26-18.57,74.64-18.57s56.33,9.44,74.65,18.57c18.07,9,35.15,17.52,70.17,17.52s52.11-8.51,70.18-17.52c18.32-9.13,37.26-18.57,74.65-18.57a5,5,0,0,1,0,10c-35,0-52.1,8.5-70.18,17.51C1355.49,92.41,1336.55,101.85,1299.16,101.85Z" transform="translate(10.2 -3.27)"/><path class="cls-8" d="M1299.16,122.44c-37.38,0-56.32-9.44-74.64-18.57-18.08-9-35.15-17.52-70.18-17.52s-52.1,8.51-70.17,17.52c-18.32,9.13-37.26,18.57-74.65,18.57S953.2,113,934.88,103.87c-18.08-9-35.15-17.52-70.18-17.52s-52.1,8.51-70.17,17.52c-18.32,9.13-37.26,18.57-74.64,18.57s-56.33-9.44-74.65-18.57c-18.07-9-35.15-17.52-70.17-17.52S523,94.86,504.9,103.87c-18.32,9.13-37.26,18.57-74.65,18.57s-56.32-9.44-74.64-18.57c-18.07-9-35.15-17.52-70.17-17.52s-52.1,8.51-70.17,17.52C197,113,178,122.44,140.62,122.44S84.3,113,66,103.87c-18.07-9-35.15-17.52-70.17-17.52a5,5,0,0,1-5-5,5,5,0,0,1,5-5c37.38,0,56.32,9.44,74.64,18.57,18.08,9,35.15,17.51,70.17,17.51s52.1-8.5,70.18-17.51c18.32-9.13,37.26-18.57,74.64-18.57s56.33,9.44,74.64,18.57c18.08,9,35.15,17.51,70.17,17.51s52.1-8.5,70.18-17.51c18.31-9.13,37.26-18.57,74.64-18.57s56.32,9.44,74.64,18.57c18.08,9,35.15,17.51,70.18,17.51s52.09-8.5,70.17-17.51c18.32-9.13,37.26-18.57,74.64-18.57S921,85.77,939.35,94.9c18.07,9,35.15,17.51,70.17,17.51s52.1-8.5,70.18-17.51c18.31-9.13,37.26-18.57,74.64-18.57s56.33,9.44,74.65,18.57c18.07,9,35.15,17.51,70.17,17.51s52.11-8.5,70.18-17.51c18.32-9.13,37.26-18.57,74.65-18.57a5,5,0,0,1,0,10c-35,0-52.1,8.51-70.18,17.52C1355.49,113,1336.55,122.44,1299.16,122.44Z" transform="translate(10.2 -3.27)"/></svg>