<svg id="Layer_1" data-name="Layer 1" xmlns="http://www.w3.org/2000/svg" viewBox="0 0 1515.98 119.12"><defs><style>.cls-1{fill:#231f20;}</style></defs><title>oceanwaveshadow</title><path class="cls-1" d="M1511.79,33.2c-.73.67-1.48,1.32-2.24,1.95l-.27.23c-.75.62-1.51,1.23-2.29,1.82l0,0q-2.45,1.86-5,3.48l-.36.23c-.76.47-1.52.92-2.29,1.36l-.34.2q-2.64,1.47-5.4,2.73l-.47.21q-1.14.49-2.28,1l-.62.25c-.85.33-1.71.65-2.58,1l-.21.07c-.95.33-1.91.63-2.89.92l-.55.15c-.77.22-1.54.43-2.32.62l-.83.2c-.75.18-1.51.34-2.28.5l-.67.13c-1,.19-2,.36-3,.5l-.5.06q-1.23.18-2.49.3l-.94.09-2.2.16-.91,0c-1,0-2,.07-3.06.07a69.9,69.9,0,0,1-63.17-39.95h0c-.48,1-1,2-1.52,3-.11.22-.23.43-.34.64-.55,1-1.1,2-1.69,2.92h0a70.38,70.38,0,0,1-11.92,14.58c-1.51,1.41-3.08,2.76-4.71,4l-.35.27c-.76.58-1.52,1.15-2.3,1.7l-.14.1c-1.67,1.17-3.39,2.28-5.17,3.31l-.47.27c-.77.44-1.55.86-2.34,1.27l-.34.19c-.92.47-1.85.92-2.8,1.36l-.07,0c-.87.4-1.76.77-2.65,1.14l-.64.25c-.76.3-1.53.59-2.3.87l-.58.21q-1.44.49-2.91.93l-.15.05c-.9.26-1.81.51-2.73.74l-.8.19c-.75.18-1.5.34-2.26.5l-.78.16q-1.48.28-3,.51l-.17,0c-1,.14-1.9.25-2.85.35l-.91.08c-.75.07-1.5.12-2.26.16l-.91.05c-1,0-2.06.08-3.1.08a69.9,69.9,0,0,1-63.17-39.95h0c-.46,1-.94,1.9-1.44,2.84l-.26.49c-.5.91-1,1.81-1.54,2.7h0A70,70,0,0,1,1260.41,32a69.58,69.58,0,0,1-7.48,6.23l-.08.06a69,69,0,0,1-8.16,5.06l-.28.15q-2.81,1.47-5.76,2.69l-.29.11c-.85.35-1.72.68-2.59,1l-.55.19c-1,.34-1.93.67-2.92,1h0c-1,.31-2,.58-3,.84l-.62.15c-.81.2-1.61.38-2.42.54l-.78.16c-1,.19-1.94.36-2.92.51l-.13,0c-1,.15-2,.27-3.08.38l-.85.08c-.77.07-1.56.13-2.34.17l-.91.05c-1,0-2.09.08-3.15.08a69.89,69.89,0,0,1-63.16-39.95h0c-.43.91-.89,1.8-1.36,2.69,0,.09-.1.18-.15.27-.46.86-.93,1.7-1.42,2.54h0a69.8,69.8,0,0,1-11.27,14.41c-.72.72-1.47,1.41-2.22,2.09l-.41.36c-.72.64-1.46,1.27-2.21,1.88l-.14.12c-.82.67-1.65,1.31-2.5,1.94l-.29.21c-.74.54-1.49,1.06-2.25,1.57l-.49.33q-2.57,1.71-5.3,3.18l-.53.28c-.76.4-1.52.78-2.29,1.16l-.57.27c-.94.44-1.89.87-2.85,1.27l-.05,0c-.92.39-1.85.74-2.78,1.09l-.73.26c-.79.28-1.59.54-2.39.8l-.59.18q-1.47.45-3,.84l-.55.13c-.82.21-1.65.39-2.49.57l-.86.17c-.86.17-1.73.33-2.61.47l-.48.07c-1,.16-2.05.28-3.09.39l-.81.08c-.8.07-1.61.13-2.42.18l-.91.05c-1.06,0-2.12.08-3.19.08a69.89,69.89,0,0,1-63.16-39.95h0c-.4.84-.82,1.67-1.25,2.49l-.06.11c-.42.79-.86,1.58-1.31,2.36A69.94,69.94,0,0,1,1009,30.74h0c-1.55,1.57-3.19,3.07-4.89,4.48l-.16.14c-1.69,1.4-3.45,2.73-5.26,4l-.15.1c-.85.58-1.73,1.14-2.61,1.69l-.22.14c-1.84,1.11-3.73,2.15-5.67,3.1l-.45.22c-.91.44-1.83.86-2.77,1.26l-.13.06c-1,.42-2,.81-3,1.19l-.47.17c-.84.31-1.7.6-2.56.87l-.63.2c-1,.32-2,.61-3.08.88h0c-1,.26-2,.49-3,.71l-.8.16c-.85.17-1.71.33-2.58.46l-.6.1c-1,.16-2.09.3-3.14.41l-.72.06c-.85.08-1.69.15-2.54.2l-.9.05c-1.08,0-2.15.08-3.24.08a69.89,69.89,0,0,1-63.16-39.95h0c-.72,1.51-1.48,3-2.3,4.42a70,70,0,0,1-10.62,14.19,69.28,69.28,0,0,1-7.61,6.81l-.09.08c-1.77,1.36-3.61,2.63-5.5,3.82l-.24.14c-1.88,1.17-3.82,2.26-5.82,3.25l-.25.12c-.9.44-1.81.86-2.73,1.27l-.4.17c-1,.44-2,.86-3.07,1.25h0c-1,.37-2,.71-3,1l-.64.21c-1,.3-2,.59-2.94.85l-.15,0c-1,.27-2.09.51-3.14.74L847,50c-.86.17-1.73.33-2.6.47l-.69.12c-1.05.16-2.11.3-3.18.41l-.62.06c-.89.08-1.78.15-2.68.2l-.89.05c-1.08,0-2.18.09-3.28.09a69.91,69.91,0,0,1-63.17-39.95h0c-.31.66-.63,1.31-1,2s-.66,1.26-1,1.88h0a70.43,70.43,0,0,1-10.3,14.12c-.72.76-1.47,1.51-2.22,2.24l-.55.52c-.65.63-1.32,1.24-2,1.84l-.35.3c-.78.69-1.59,1.35-2.4,2l-.55.42c-.68.53-1.38,1.05-2.09,1.56l-.54.39c-.85.6-1.71,1.18-2.59,1.75l-.46.28c-.75.47-1.51.93-2.28,1.37l-.67.39c-.92.51-1.84,1-2.78,1.49l-.18.08c-.88.44-1.78.86-2.68,1.27l-.75.33c-.88.38-1.76.74-2.65,1.09l-.3.12c-1,.37-2,.72-3,1l-.77.25c-.84.26-1.69.51-2.54.74l-.62.18c-1,.27-2.05.52-3.09.74l-.71.15c-.86.17-1.72.33-2.59.48l-.8.13c-1.06.16-2.13.31-3.2.42l-.52,0c-.94.09-1.87.17-2.81.22l-.89.05c-1.1,0-2.21.09-3.33.09a69.91,69.91,0,0,1-63.17-39.95h0c-.52,1.1-1.08,2.18-1.66,3.25h0a69.93,69.93,0,0,1-10,14h0a69.24,69.24,0,0,1-5,5l0,0a69.85,69.85,0,0,1-5.45,4.4l-.12.08A68.18,68.18,0,0,1,615.5,42l-.22.13c-1,.56-2,1.11-3,1.62l0,0c-1,.52-2.06,1-3.11,1.49l-.32.15q-1.43.63-2.88,1.2l-.35.14c-1,.41-2.1.78-3.16,1.14L602,48c-.93.3-1.88.59-2.83.85l-.6.17c-1.06.28-2.14.55-3.22.79l-.42.08c-1,.2-1.91.38-2.87.54l-.78.13c-1.08.17-2.18.33-3.29.45l-.32,0c-1,.1-2,.18-3,.24l-.86.05c-1.13,0-2.26.09-3.39.09a69.9,69.9,0,0,1-63.17-39.95h0c-.42.9-.87,1.78-1.33,2.65h0A70,70,0,0,1,506.26,28c-.76.86-1.55,1.7-2.36,2.53-.06.05-.11.11-.17.17a68.62,68.62,0,0,1-5.12,4.67l-.23.2q-2.65,2.17-5.51,4.09l-.34.22c-1,.64-1.93,1.25-2.92,1.84h0c-.95.56-1.91,1.09-2.89,1.61l-.47.25c-1,.52-2,1-3.05,1.49l-.08,0c-1,.44-2,.86-3,1.27l-.6.23c-1,.41-2.09.8-3.15,1.16l-.13,0c-1,.34-2,.64-3.06.94l-.7.19c-1.08.3-2.16.57-3.26.81l-.14,0c-1,.23-2.1.43-3.15.61l-.8.13c-1.11.18-2.23.34-3.35.46h-.1c-1.09.12-2.19.2-3.29.27l-.86,0c-1.14.06-2.29.1-3.44.1a69.9,69.9,0,0,1-63.17-39.95h0c-.32.69-.66,1.36-1,2h0a70.05,70.05,0,0,1-9.34,13.78c-.79.91-1.6,1.79-2.43,2.66l-.12.12A70.6,70.6,0,0,1,372.81,35l-.18.16c-1.8,1.5-3.68,2.92-5.62,4.25l-.3.2c-.95.64-1.92,1.26-2.9,1.86h0c-1,.6-2,1.17-3,1.72l-.43.23c-1,.52-2,1-3,1.49l-.08,0c-1,.49-2.09.94-3.15,1.37l-.56.23c-1,.4-2,.79-3.08,1.14l-.13.05c-1.07.36-2.16.7-3.25,1l-.69.19c-1,.29-2.1.56-3.16.81l-.16,0c-1.1.25-2.21.46-3.34.66l-.78.13c-1.09.17-2.19.33-3.3.45l-.12,0c-1.13.13-2.28.21-3.43.29l-.85,0c-1.16.06-2.32.1-3.5.1a69.89,69.89,0,0,1-63.16-39.95h0a69.73,69.73,0,0,1-9.71,15.06A68.17,68.17,0,0,1,249.81,32l-.05.05a72.18,72.18,0,0,1-5.55,4.79l-.14.1A67.55,67.55,0,0,1,238.13,41l-.24.15c-1,.63-2.08,1.24-3.14,1.82h0c-1,.56-2.09,1.09-3.15,1.6l-.34.17c-1.06.5-2.13,1-3.22,1.42l-.32.13c-1,.41-2,.8-3.06,1.16l-.41.15c-1.08.37-2.18.72-3.3,1l-.56.16c-1,.29-2,.55-3.07.79l-.41.1c-1.11.25-2.24.48-3.38.67l-.73.13q-1.59.26-3.21.45l-.3,0c-1.15.13-2.31.22-3.48.29l-.83,0c-1.18.06-2.36.1-3.56.1a69.89,69.89,0,0,1-63.16-39.95h0a70.15,70.15,0,0,1-9.07,14.31l-.33.39c-.36.43-.72.86-1.09,1.28l-.56.63-.93,1-.59.63c-.35.37-.7.72-1,1.08-.17.16-.33.33-.49.49-.5.5-1,1-1.53,1.46l-.54.49-1.1,1-.65.56-1.08.89-.64.52c-.48.38-1,.76-1.45,1.12l-.39.3c-.54.4-1.08.79-1.63,1.17l-.64.45c-.4.27-.8.54-1.21.8l-.7.46-1.29.8-.59.36c-.62.37-1.25.73-1.88,1.08l-.49.26c-.49.27-1,.53-1.48.78l-.71.36-1.34.64c-.23.11-.47.23-.71.33-.54.25-1.09.5-1.64.73l-.4.17c-.67.29-1.36.56-2,.82l-.64.24-1.49.53-.75.25-1.52.49-.65.2c-.72.21-1.44.42-2.16.61l-.33.08c-.62.16-1.26.31-1.89.45l-.73.16-1.56.32-.76.14c-.59.11-1.18.2-1.78.29l-.5.08c-.75.11-1.52.21-2.28.3l-.6.06-1.74.16-.78,0c-.56,0-1.11.07-1.67.09l-.72,0c-.79,0-1.58,0-2.37,0A69.89,69.89,0,0,1,11.93,11.48V130.61h1516V11.48A69.84,69.84,0,0,1,1511.79,33.2Z" transform="translate(-11.93 -11.48)"/></svg>