<svg id="Layer_1" data-name="Layer 1" xmlns="http://www.w3.org/2000/svg" xmlns:xlink="http://www.w3.org/1999/xlink" viewBox="0 0 1539.98 143.12"><defs><style>.cls-1{fill:url(#linear-gradient);}.cls-2{fill:#fff;}.cls-3{fill:url(#linear-gradient-2);}.cls-4,.cls-6{fill:#231f20;}.cls-5{opacity:0.84;}.cls-6{opacity:0.34;}</style><linearGradient id="linear-gradient" x1="769.91" y1="8.13" x2="769.91" y2="139.26" gradientUnits="userSpaceOnUse"><stop offset="0.21" stop-color="#67c5ad"/><stop offset="0.22" stop-color="#65c0aa"/><stop offset="0.39" stop-color="#4d8783"/><stop offset="0.55" stop-color="#3a5a65"/><stop offset="0.7" stop-color="#2c394f"/><stop offset="0.81" stop-color="#242542"/><stop offset="0.89" stop-color="#211e3d"/></linearGradient><linearGradient id="linear-gradient-2" x1="770.41" y1="14.14" x2="770.41" y2="133.26" xlink:href="#linear-gradient"/></defs><title>oceanwave2</title><path class="cls-1" d="M11.93,139.26a6,6,0,0,1-6-6V14.14a6,6,0,0,1,4.68-5.86,5.94,5.94,0,0,1,1.32-.15,6,6,0,0,1,5.42,3.43A64.24,64.24,0,0,0,75.09,48.08a64.25,64.25,0,0,0,57.75-36.52,6,6,0,0,1,10.84,0,64.24,64.24,0,0,0,57.74,36.52,64.25,64.25,0,0,0,57.75-36.52,6,6,0,0,1,10.84,0,64.25,64.25,0,0,0,57.74,36.52A64.25,64.25,0,0,0,385.5,11.56a6,6,0,0,1,10.84,0,64.25,64.25,0,0,0,57.75,36.52,64.25,64.25,0,0,0,57.74-36.52,6,6,0,0,1,10.84,0,64.25,64.25,0,0,0,57.75,36.52,64.24,64.24,0,0,0,57.74-36.52,6,6,0,0,1,10.84,0,64.25,64.25,0,0,0,57.75,36.52A64.26,64.26,0,0,0,764.5,11.56a6,6,0,0,1,10.83,0,64.25,64.25,0,0,0,57.75,36.52,64.25,64.25,0,0,0,57.75-36.52,6,6,0,0,1,10.83,0,64.26,64.26,0,0,0,57.75,36.52,64.25,64.25,0,0,0,57.75-36.52,6,6,0,0,1,10.84,0,64.24,64.24,0,0,0,57.74,36.52,64.25,64.25,0,0,0,57.75-36.52,6,6,0,0,1,10.84,0,64.24,64.24,0,0,0,57.74,36.52,64.25,64.25,0,0,0,57.75-36.52,6,6,0,0,1,10.84,0,64.25,64.25,0,0,0,57.74,36.52,64.25,64.25,0,0,0,57.75-36.52,6,6,0,0,1,10.84,0,64.25,64.25,0,0,0,57.75,36.52,64.24,64.24,0,0,0,57.74-36.52,6,6,0,0,1,11.42,2.57V133.26a6,6,0,0,1-6,6Z" transform="translate(0.07 -2.13)"/><path class="cls-2" d="M1527.9,14.14V133.26H11.93V14.14A69.9,69.9,0,0,0,75.09,54.08a69.9,69.9,0,0,0,63.17-39.94,69.9,69.9,0,0,0,63.16,39.94,69.9,69.9,0,0,0,63.17-39.94,69.9,69.9,0,0,0,63.16,39.94,69.9,69.9,0,0,0,63.17-39.94,69.9,69.9,0,0,0,63.17,39.94,69.9,69.9,0,0,0,63.16-39.94,69.9,69.9,0,0,0,63.17,39.94,69.9,69.9,0,0,0,63.16-39.94,69.92,69.92,0,0,0,63.17,39.94,69.9,69.9,0,0,0,63.16-39.94,69.92,69.92,0,0,0,63.17,39.94,69.92,69.92,0,0,0,63.17-39.94,69.9,69.9,0,0,0,63.16,39.94,69.92,69.92,0,0,0,63.17-39.94,69.9,69.9,0,0,0,63.16,39.94,69.9,69.9,0,0,0,63.17-39.94,69.9,69.9,0,0,0,63.16,39.94,69.9,69.9,0,0,0,63.17-39.94,69.9,69.9,0,0,0,63.17,39.94,69.9,69.9,0,0,0,63.16-39.94,69.9,69.9,0,0,0,63.17,39.94,69.9,69.9,0,0,0,63.16-39.94m0-12A12,12,0,0,0,1517.06,9a58.21,58.21,0,0,1-52.32,33.09A58.21,58.21,0,0,1,1412.41,9a12,12,0,0,0-21.68,0,58.21,58.21,0,0,1-52.32,33.09A58.21,58.21,0,0,1,1286.08,9a12,12,0,0,0-21.68,0,58.21,58.21,0,0,1-52.33,33.09A58.21,58.21,0,0,1,1159.75,9a12,12,0,0,0-21.68,0,58.21,58.21,0,0,1-52.33,33.09A58.21,58.21,0,0,1,1033.42,9a12,12,0,0,0-21.68,0,58.21,58.21,0,0,1-52.33,33.09A58.23,58.23,0,0,1,907.08,9a12,12,0,0,0-21.67,0,58.22,58.22,0,0,1-52.33,33.09A58.21,58.21,0,0,1,780.75,9a12,12,0,0,0-21.67,0,58.23,58.23,0,0,1-52.33,33.09A58.21,58.21,0,0,1,654.42,9a12,12,0,0,0-21.68,0,58.21,58.21,0,0,1-52.32,33.09A58.21,58.21,0,0,1,528.09,9a12,12,0,0,0-21.68,0,58.21,58.21,0,0,1-52.32,33.09A58.21,58.21,0,0,1,401.76,9a12,12,0,0,0-21.68,0,58.21,58.21,0,0,1-52.33,33.09A58.21,58.21,0,0,1,275.43,9a12,12,0,0,0-21.68,0,58.21,58.21,0,0,1-52.33,33.09A58.21,58.21,0,0,1,149.1,9a12,12,0,0,0-21.68,0A58.21,58.21,0,0,1,75.09,42.08,58.21,58.21,0,0,1,22.77,9,12,12,0,0,0,11.93,2.13a12,12,0,0,0-12,12V133.26a12,12,0,0,0,12,12h1516a12,12,0,0,0,12-12V14.14a12,12,0,0,0-12-12Z" transform="translate(0.07 -2.13)"/><path class="cls-3" d="M1515.85,36.4c-2.69,1.55-2.92,1.49-3.48,1.35a1.53,1.53,0,0,1-.94-.71c-.75-1.3-.75-1.3,9.55-10.44.34-.3.69-.6,1-.92-5.42,3.19-5.51,3.17-6.13,3a1.52,1.52,0,0,1-.91-.7c-.69-1.19-.69-1.19,6.06-7.66,1.59-1.52,3.54-3.39,4.9-4.75l-.42-.83,1.29-.75c1.84-1.08,1.84-1.07,2.45-.91a1.48,1.48,0,0,1,.92.7c.63,1.09.71,1.23-4.52,6.26,6.65-3.91,6.71-3.89,7.37-3.72a1.54,1.54,0,0,1,.92.7c.77,1.34.79,1.38-10.14,11.07,8.73-5.3,8.86-5.26,9.67-5.06a1.6,1.6,0,0,1,1,.72,1.51,1.51,0,0,1-.55,2,1.37,1.37,0,0,1-.55.18c-1.12.51-6,3.51-9.67,5.72C1519.84,34,1517.43,35.49,1515.85,36.4Zm16-11.13Zm0,0Zm0,0Zm0,0Zm0,0Zm0,0Zm-150,15.65c-3.09,1.79-3.36,1.72-3.93,1.58a1.6,1.6,0,0,1-.95-.72c-.85-1.47.19-2.16,5.19-5.47,1.92-1.27,4.28-2.8,6.76-4.39-.67-1.18-.48-1.38,9.21-11.33l2.73-2.82c-1.59.89-1.74.85-2.16.74h-.05c-.82.41-1,.37-1.3.28l.32-1.21a1.34,1.34,0,0,1-.12-.6l-.49-1c.24-.12,2.51-1.45,4.34-2.51,5.16-3,5.17-3,5.79-2.84h0c1.13-.61,1.28-.57,1.67-.47a1.56,1.56,0,0,1,.91.7c.73,1.27.73,1.27-9.51,11.8l-2.44,2.51,1.29-.78c8.68-5.26,8.67-5.25,9.52-5a1.53,1.53,0,0,1,.94.71c.83,1.44,0,2-4.91,5.24l-.31.21a1.3,1.3,0,0,1,.22.29,1.51,1.51,0,0,1-1.18,2.25c-1.38.59-7.55,4.36-12.11,7.15S1383.66,39.83,1381.78,40.91Zm20.15-13.59Zm0,0h0Zm-140.66,10.2c-2.08,1.2-2.33,1.14-2.87,1a1.62,1.62,0,0,1-1-.72c-.7-1.22-.7-1.22,9.13-13.17,2.43-2.95,5.25-6.38,7-8.61l-.65-1.35c.16-.08.77-.44,1.39-.81,2-1.21,2.06-1.21,2.68-1a1.48,1.48,0,0,1,.92.7c.7,1.21.7,1.21-9,13-1.45,1.76-3.13,3.8-4.62,5.64l1.91-1.19c9.49-5.92,10-6.07,10.92-5.83a1.62,1.62,0,0,1,1,.73,1.51,1.51,0,0,1-.55,2.05,1.56,1.56,0,0,1-.72.2c-1.22.52-5.89,3.43-9,5.39S1262.56,36.77,1261.26,37.52Zm14.25-10Zm0-.07,0,.07Zm0,0h0Zm0,0Zm0,0Zm0,0ZM1129,41c-3.69,2.13-4,2.06-4.55,1.91a1.6,1.6,0,0,1-1-.72c-.83-1.44-.86-1.5,14.8-16.29,2.52-2.38,5.43-5.13,8-7.61-1.52.84-1.66.8-2.06.69l.38-1.44,1.3-.75-1.3.75-.67-1.35c.26-.13,2.79-1.6,4.82-2.78,5.52-3.21,5.52-3.21,6.15-3a1.48,1.48,0,0,1,.91.7c.84,1.46.89,1.55-15.48,17-2.47,2.33-5.19,4.9-7.59,7.2,1.86-1.12,3.79-2.28,5.51-3.33,13-7.87,13.09-7.85,14-7.62a1.53,1.53,0,0,1,.94.71,1.49,1.49,0,0,1-.55,2.05,1.59,1.59,0,0,1-.54.19c-1.28.57-7.36,4.25-12.28,7.24C1134.56,37.71,1131.21,39.73,1129,41Zm21.62-14.45Zm0,0Zm0,0Zm0,0ZM1008.06,38c-4.43,2.56-4.74,2.48-5.36,2.32a1.63,1.63,0,0,1-1-.72c-.82-1.43.27-2.23,4.33-5.18,1.48-1.08,3.26-2.33,5.12-3.64l-.11-.16c-.65-1.13-.65-1.13,6.43-10.2,1.12-1.44,2.39-3.07,3.38-4.37l-.64-1.33c.17-.08.77-.44,1.37-.8,2.06-1.22,2.07-1.22,2.7-1.05a1.5,1.5,0,0,1,.92.7c.6,1.05.6,1.05-5.37,8.7l-2.22,2.85.61-.37c6.63-4.09,6.69-4.08,7.5-3.87a1.53,1.53,0,0,1,1,.71,1.35,1.35,0,0,1-.22,1.84c6.42-3.85,6.62-3.8,7.34-3.62a1.55,1.55,0,0,1,.94.72,1.49,1.49,0,0,1-1.09,2.23c-1.3.59-7.7,4.47-12.87,7.61C1014.59,34.1,1010.63,36.48,1008.06,38Zm24.12-16Zm0,0Zm0,0Zm0,0Zm0,0ZM874.8,41.88c-4.12,2.38-4.4,2.31-5,2.16a1.53,1.53,0,0,1-.94-.71C868,41.84,869,41.11,875,37c3.52-2.43,8.2-5.54,12.73-8.55l.34-.22,0,0c-2.43,1.39-2.59,1.36-3.1,1.22a1.5,1.5,0,0,1-.93-.7c-.72-1.25.08-1.86,2.46-3.69,1.29-1,3-2.25,4.71-3.52,1.32-1,2.91-2.16,4.14-3.1a6.5,6.5,0,0,1,1.06-1.66c-4.51,2.61-4.56,2.6-5.13,2.45l.39-1.45L893,17l-1.29.75L891,16.38l5.14-3c6.06-3.51,6-3.51,6.67-3.34a1.48,1.48,0,0,1,.92.7c.57,1,.57,1-2.76,5.07-.33.42-.73.91-1.12,1.39a1.32,1.32,0,0,1,.14.44c1-.52,1.24-.47,1.63-.37,1.77-1,1.95-1,2.44-.84a1.5,1.5,0,0,1,.93.7,1.42,1.42,0,0,1,.24,1l0,0c.62,1.08.27,1.69-2.06,3.38,1.4-.7,1.66-.63,2.06-.53a1.57,1.57,0,0,1,.95.72,1.5,1.5,0,0,1-.55,2.05,1.61,1.61,0,0,1-.62.2c-1.65.69-10.26,5.89-17.22,10.09C881.35,38,877.34,40.41,874.8,41.88Zm28.78-18.59a1.27,1.27,0,0,0,.37.42A1.37,1.37,0,0,1,903.58,23.29Zm-152,16.78c-3.71,2.14-4,2.07-4.54,1.92a1.58,1.58,0,0,1-.95-.71C745.36,40,745.36,40,756.79,28c3.88-4.05,8.8-9.22,11.39-12.13l-.6-1.22,1.38-.81c2.08-1.22,2.08-1.21,2.7-1.05a1.48,1.48,0,0,1,.91.7c.79,1.37.84,1.45-13.61,16.58l-4.58,4.81c2.25-1.34,4.72-2.83,7-4.19,15.41-9.32,15.56-9.28,16.48-9a1.55,1.55,0,0,1,.95.71,1.5,1.5,0,0,1-.55,2.05,1.46,1.46,0,0,1-.59.19c-1.47.64-8.81,5.07-14.74,8.65C757.32,36.67,753.82,38.77,751.58,40.07ZM776.19,23.9a1.46,1.46,0,0,0,.46.49A1.55,1.55,0,0,1,776.19,23.9ZM629.3,37.75c-3.17,1.83-3.45,1.76-4,1.61a1.59,1.59,0,0,1-1-.72c-.76-1.32-.76-1.32,12.49-15.07,2-2.07,4.18-4.34,6.14-6.4-4.06,2.34-4.13,2.33-4.67,2.18l.39-1.45,1.3-.75-1.3.75L638,16.57c.27-.14,3.08-1.78,5.57-3.22C650,9.61,650,9.61,650.63,9.77a1.48,1.48,0,0,1,.91.7c.77,1.33.77,1.33-12.57,15.18-2.08,2.15-4.36,4.52-6.37,6.64l5.24-3.2c14-8.58,14.22-8.53,15.17-8.29a1.57,1.57,0,0,1,1,.73,1.5,1.5,0,0,1-.55,2,1.62,1.62,0,0,1-.67.2c-1.49.62-8.31,4.79-13.34,7.87S631.28,36.61,629.3,37.75ZM651.38,23Zm0,0h0ZM497.81,40.72a38.39,38.39,0,0,1-3.52,1.89c-1.76.91-2,.84-2.46.73a1.57,1.57,0,0,1-.95-.72c-.79-1.37-.79-1.37,13-15.09,3.93-3.92,8.94-8.91,11.59-11.73l-.54-1.12c.16-.08.77-.44,1.38-.8,2.07-1.22,2.07-1.22,2.69-1.05a1.48,1.48,0,0,1,.92.7c.8,1.38.83,1.43-13.93,16.12-1.75,1.75-3.65,3.64-5.43,5.43,2.44-1.36,5.59-3.09,9.65-5.3l.53-.32c16.41-9.87,16.49-9.85,17.42-9.61l.12,0h0a1.57,1.57,0,0,1,1,.72,1.53,1.53,0,0,1-.67,2.11c-1.21,1-4.83,3.1-16.49,9.45l-1.54.94C504.2,36.94,500.29,39.29,497.81,40.72ZM378.58,36.66c-3,1.74-3.31,1.66-3.89,1.52a1.6,1.6,0,0,1-1-.73c-.74-1.27-.82-1.42,8.16-8.06a1.14,1.14,0,0,1-.83,0,1.5,1.5,0,0,1-.93-.7c-.72-1.26-.72-1.26,8.07-9.79l1.4-1.36c-3.72,2.14-3.81,2.11-4.32,2l.39-1.45,1.3-.75-1.3.75L385,16.76c.28-.15,3.29-1.9,5.95-3.44,6.9-4,6.9-4,7.53-3.84a1.52,1.52,0,0,1,.91.7c.76,1.33.76,1.33-9.09,10.9l0,0c9.88-5.91,9.91-5.9,10.74-5.68a1.53,1.53,0,0,1,.93.7c.81,1.4-.13,2.12-4.66,5.57l-1,.75c1.81-1,2.08-.91,2.57-.79a1.57,1.57,0,0,1,1,.73,1.48,1.48,0,0,1-.55,2,1.34,1.34,0,0,1-.66.2c-1.31.56-6.84,4-10.92,6.49C383.22,33.89,380.4,35.6,378.58,36.66Zm18.65-12.77Zm0,0Zm0,0h0ZM248.58,38.8c-3.43,2-3.74,1.91-4.34,1.76a1.65,1.65,0,0,1-1-.73c-.76-1.33-.76-1.33,11.14-12.92,1.88-1.83,4-3.95,6-5.85a1.54,1.54,0,0,1-.72-.64c-.61-1.06-.48-1.19,2.83-4.63.8-.82,1.87-1.93,2.15-2.26l-.09-.17a1.35,1.35,0,0,0,.21-.13,1.79,1.79,0,0,1,1.52-.4,1.47,1.47,0,0,1,.94.71c.28.47.4.76.17,1.23a1.51,1.51,0,0,1,.88.69c.78,1.36.78,1.36-11.77,13.6l-4,3.91,4.5-2.76c11.42-7,11.54-7,12.45-6.76a1.56,1.56,0,0,1,1,.72,1.49,1.49,0,0,1-1.15,2.24c-1.23.54-6.45,3.75-10.68,6.35C253.7,35.76,250.6,37.64,248.58,38.8Zm19.23-13.13Zm0,0Zm0,0Zm-3.16-12.14a1.48,1.48,0,0,0,0,1.51l1.89-1.1-1.3.75ZM118.33,41c-3.51,2-3.81,2-4.39,1.81a1.62,1.62,0,0,1-1-.72c-.73-1.27-.74-1.29,10.09-13.81,3.68-4.25,8.19-9.46,9.18-10.91l-.22-.46.48-.29c.67-.4,1-.62,1.65-.46a1.51,1.51,0,0,1,.93.71c.73,1.26.73,1.26-9.75,13.37-1.73,2-3.75,4.33-5.49,6.39,2.37-1.43,5.09-3.09,7.42-4.51,13.26-8.11,13.43-8.07,14.35-7.84a1.57,1.57,0,0,1,.95.72,1.5,1.5,0,0,1-1.17,2.25c-1.38.59-7.56,4.37-12.56,7.42C123.69,37.85,120.44,39.82,118.33,41ZM140,26.54Zm0,0Zm0,0h0Zm-7.68-9a1.47,1.47,0,0,0,.19.88l1.48-.86-1.3.75ZM1526.94,134.66a1.63,1.63,0,0,1-1.3.26,1.53,1.53,0,0,1-.94-.71,2.69,2.69,0,0,1-.22-.46,1.32,1.32,0,0,1-.42-.07,1.5,1.5,0,0,1-.92-.7c-.3-.51-.33-.56-.38-9.94,0-2.31,0-5-.06-6.76-3.26,1.77-10.45,6.16-16.46,9.83-18.7,11.39-19,11.32-20,11.07a1.6,1.6,0,0,1-1-.73c-1-1.72-1-1.72,23.8-19l4.11-2.87-6.9,4.2c-23.14,14.1-23.4,14-24.48,13.76a1.6,1.6,0,0,1-1-.73c-1-1.65-1-1.72,20.87-17.91,2.75-2,5.7-4.21,8.52-6.31-3.56,2.17-7.34,4.5-10.83,6.66-25.78,15.94-29.62,18-31.21,17.56a1.62,1.62,0,0,1-1-.76c-1-1.77-1.2-2.09,34.41-30.53,8.13-6.5,17.49-14,23.72-19.16-10,5.66-27.08,16.06-41.7,24.95-42.07,25.57-50.38,30.3-52.32,29.8a1.74,1.74,0,0,1-1-.75c-1.21-2.1.34-4,48.48-41.33,15.17-11.76,33.17-25.72,41.6-32.93-11.45,6.17-36.75,21.61-59.65,35.57-50.72,30.95-66.94,40.47-69.57,39.8a1.62,1.62,0,0,1-1.05-.78,1.75,1.75,0,0,1-.17-1.35v0c-5.13,2.74-7.33,3.56-8.15,3.35a1.63,1.63,0,0,1-1-.77c-1-1.64-1.58-2.73,23.73-19,14.39-9.26,33.71-21.19,52.39-32.72,21.48-13.26,45-27.8,57.12-35.95-13.93,7.66-41,24.31-65.57,39.46-58.19,35.82-78.13,47.59-81.52,46.73a1.79,1.79,0,0,1-1.13-.83c-1.15-2-1.39-2.41,51.81-40.27,17.21-12.25,37.43-26.65,48.09-34.84-12,6.79-34.18,20.3-54.42,32.62-58.58,35.68-78.6,47.42-81.7,46.62a1.75,1.75,0,0,1-1.09-.8c-.87-1.52.43-2.74,5.38-6.11,3.17-2.17,7.82-5.14,14.21-9.09,11.87-7.33,27.64-16.74,44.35-26.69,19.68-11.74,42.45-25.31,56.83-34.43-13.39,7.76-33.28,19.82-51.67,31-57.29,34.75-70.18,42.11-72.59,41.5a1.71,1.71,0,0,1-1-.77c-1.29-2.25.53-4.33,56.38-45,18.11-13.2,38.09-27.75,47-34.95-13,6.7-44.52,26-70.81,42.07-52,31.8-63,38.12-65.28,37.54a1.65,1.65,0,0,1-1-.77c-1-1.64-1.58-2.72,23.56-19.59,14.29-9.59,33.43-21.9,51.93-33.81,20.4-13.13,42.73-27.5,54.69-35.83-14.26,8-41.28,24.51-65.91,39.56-66.87,40.87-91.26,55.21-94.92,54.28a1.81,1.81,0,0,1-1.13-.83c-.92-1.61.37-3,6.59-7.33l1.62-1.11c-11.21,6.3-16.73,8.78-18.35,8.36a1.79,1.79,0,0,1-1.14-.84,1.63,1.63,0,0,1-.15-1.28c.18-.66,1.45-1.81,4.13-3.65,3-3.41,17.95-13,81.08-51.29,26.69-16.19,58.18-35.29,73.92-45.64-16.33,9.09-47.66,28.17-76.19,45.56-68.08,41.49-91.31,55.15-94.68,54.29a1.74,1.74,0,0,1-1.09-.81c-1.18-2.05-1.54-2.67,54.67-43.67,16.22-11.82,34.06-24.84,42.65-31.65-13.49,7-45.63,26.63-72.45,43-51,31.22-61.82,37.42-64,36.86a1.62,1.62,0,0,1-1-.77c-1.35-2.34.81-4.68,61.57-46.64,20.54-14.18,45.07-31.11,55.18-39-13.24,6.83-45.9,26.84-73.11,43.51-54.45,33.37-70.71,43-73.52,42.25a1.72,1.72,0,0,1-1.06-.8c-1.43-2.48,1.33-5.41,72.78-55.36,21.54-15,45.34-31.69,55.4-39.48-14.55,7.34-52.19,30.37-83.48,49.52-55.36,33.87-71.85,43.62-74.5,42.94a1.67,1.67,0,0,1-1-.78c-1-1.65-1.64-2.85,25.72-21.4,15.61-10.58,36.47-24.15,56.65-37.28C1239.45,57.23,1267,39.33,1278,31.17c-15.12,7.61-55,32-88,52.29-62.22,38.12-82.09,49.86-85.2,49.07a1.7,1.7,0,0,1-1.08-.8c-1.22-2.12-1.59-2.76,54.73-43.44,13.63-9.84,28.49-20.56,37.22-27.23-12.31,6.89-35.24,20.86-56.15,33.6-52.42,32-69.18,41.79-71.89,41.09a1.67,1.67,0,0,1-1-.78c-1.33-2.3,1-5,62.75-50.35,17.48-12.85,36.73-27,45.72-34.2-14,7.23-48,28-76.38,45.34-53.62,32.74-69.6,42.16-72.16,41.51a1.62,1.62,0,0,1-1-.78,1.7,1.7,0,0,1-.16-1.31,5.57,5.57,0,0,1,1.88-2.13,2.94,2.94,0,0,1-1.36.1,1.76,1.76,0,0,1-1.12-.83c-1.49-2.58,1.53-5.84,74.81-57,20.39-14.25,42.91-30,52.54-37.42-15.09,7.48-55.84,32.43-89.65,53.12-58.33,35.71-75.71,46-78.46,45.28a1.71,1.71,0,0,1-1.06-.79c-1.19-2.07-1.48-2.56,54.92-41.65,19.73-13.67,43.15-29.91,53.93-38.2-13.94,7.52-45.08,26.36-71.18,42.16-57.3,34.67-69.33,41.58-71.52,41a1.77,1.77,0,0,1-1-.75,1.29,1.29,0,0,1-.19-1.31c-1.8.74-2.92,1-3.48.87a1.72,1.72,0,0,1-1.08-.81,1.66,1.66,0,0,1-.16-1.29,2.59,2.59,0,0,1,.75-1.08,3.15,3.15,0,0,1-1.5.17,1.67,1.67,0,0,1-1.06-.79C940,131.64,939.69,131.06,1000,92c21-13.58,45.68-29.6,58-38.46-12.33,7-34.95,20.81-55.59,33.41-60.38,36.9-82.42,49.85-85.82,49a1.76,1.76,0,0,1-1.11-.82c-1.37-2.38.82-4.8,62.41-48.55,20.14-14.31,44.11-31.34,54.65-39.72-13.22,7.12-43.29,25.36-70.48,41.85-59.36,36-78.28,47.11-81,46.41a1.69,1.69,0,0,1-1-.78c-1.46-2.53,1.08-4.88,77-51,28.41-17.25,62.26-37.79,76.73-47.75-14.85,8.07-46.69,27.46-75.55,45-64.56,39.33-86.59,52.29-89.78,51.47a1.73,1.73,0,0,1-1.08-.8c-.74-1.29-.23-2.42,4.06-5.55-13.58,7.88-19.19,10.57-20.71,10.19a1.71,1.71,0,0,1-1.07-.8,1.86,1.86,0,0,1-.16-1.43c.18-.65,1.08-1.62,2.73-2.93,1.29-2.64,10.58-9.94,56.36-43.16,15.68-11.38,32.88-23.85,41.8-30.8C936.77,64.12,907,82.26,882,97.48c-54.85,33.42-66.41,40.06-68.75,39.46a1.71,1.71,0,0,1-1-.77c-1.23-2.14-1.56-2.72,61-47.85C894.12,73.24,919.13,55.2,929,47.14c-13.48,6.79-48.64,28.29-77.84,46.15-54,33-65.36,39.56-67.66,39a1.71,1.71,0,0,1-1-.77c-.88-1.53.24-2.78,6.3-7,3.75-2.64,9.23-6.25,16.76-11,13.93-8.87,32.82-20.46,51.09-31.67,21.57-13.23,45.14-27.7,58.25-36.33-15.06,8.44-42.38,25.14-67.32,40.38-61,37.25-81.78,49.51-85,48.7a1.74,1.74,0,0,1-1.09-.81c-1.26-2.18-1.6-2.77,69.31-49.53,24.63-16.25,54-35.61,66.45-44.76-15.36,8.08-51.9,30.32-82.42,48.89-60,36.51-77.87,47-80.58,46.33a1.62,1.62,0,0,1-1-.78c-1.23-2.13-1.49-2.57,56.93-39.9,24-15.36,52.76-33.7,64.46-42.32-13.06,6.89-42.9,25.16-67.87,40.45-51.34,31.44-66.67,40.48-69.32,39.81a1.71,1.71,0,0,1-1.06-.79c-1.4-2.43.82-4.74,63.58-45.18,13.38-8.62,27.77-17.9,38-24.76-13,7.56-32.18,19.22-49.93,30-57.7,35-76.13,45.84-79,45.1a1.62,1.62,0,0,1-1.06-.79c-1.38-2.38.78-4.74,61.87-46.69,10.13-7,20.83-14.3,29.9-20.64l-1.89,1C767.65,75,754.51,82.36,738,91.51l-.09,0c-52.35,32.06-70.4,42.73-74.31,42.78-6.22,3.38-9.16,4.59-10.14,4.33a1.64,1.64,0,0,1-1-.77,1.78,1.78,0,0,1-.16-1.36,5.9,5.9,0,0,1,1.94-2.29c-2.95,1.46-4.36,1.88-5,1.71a1.68,1.68,0,0,1-1-.77c-.93-1.62-1.55-2.69,23.85-21.38,14.42-10.61,33.44-24.07,51.84-37.08,19.94-14.11,41.91-29.65,51.91-37.4C761.5,46.79,727.53,67.6,699.17,85c-61.73,37.82-81.47,49.47-84.72,48.64a1.79,1.79,0,0,1-1.1-.81c-1.16-2-1.37-2.38,49.28-38.52,19.52-13.92,42.72-30.48,53.08-38.77C703.8,62,678.53,77.4,655.61,91.36c-54,32.88-71.23,43-74,42.3a1.69,1.69,0,0,1-1-.79c-1.17-2-1.38-2.38,48.88-35.89,19.15-12.77,43.8-29.2,54.68-37.4C672.36,65.93,647.51,81.25,625,95.12c-51.55,31.77-69.23,42.21-72.34,41.42a1.73,1.73,0,0,1-1.11-.82c-.89-1.54.48-2.82,5.32-6.13,2-1.37,4.59-3.06,7.84-5.11-10.14,5.83-14.44,7.83-15.71,7.51a1.68,1.68,0,0,1-1-.78,1.65,1.65,0,0,1-.22-1.27c-4.37,2.23-6.76,3.07-7.73,2.82a1.76,1.76,0,0,1-1.11-.82,1.51,1.51,0,0,1-.21-.65c-2.65,1.25-4.14,1.71-4.8,1.54a1.69,1.69,0,0,1-1-.79c-1.46-2.52,1-5,65.66-45.4,19.92-12.44,43.34-27,55.67-35.52-12.92,7.32-36.27,21.62-57.6,34.68-61.1,37.42-83.42,50.55-86.94,49.66a1.8,1.8,0,0,1-1.13-.84c-1-1.66-1.59-2.76,24.89-19.69,15.12-9.67,35.65-22.27,55.5-34.45,26.73-16.41,56.29-34.55,68.47-43.09-14.78,7.68-50.4,29.59-80.12,47.87-59.29,36.47-85.67,52.35-89.45,51.4a1.86,1.86,0,0,1-1.14-.84c-1.18-2.06-1.43-2.49,60-45.29,19.77-13.78,43.14-30.07,54.47-38.62-12.63,7-37.81,22.42-60.69,36.48-56.19,34.52-75.44,45.87-78.72,45a1.71,1.71,0,0,1-1.11-.83.16.16,0,0,1,0-.07c-5.3,2.81-8,3.83-9.08,3.57a1.79,1.79,0,0,1-1.11-.82c-1.18-2.05-1.49-2.6,55.63-44.18,17.62-12.82,38.42-28,48.76-36.15-12.14,6.77-36.15,21.39-58,34.69-58.18,35.43-78.05,47.09-81.1,46.31a1.71,1.71,0,0,1-1.07-.8c-.94-1.63-1.46-2.52,23.05-18.46,13.9-9,32.47-20.65,50.42-31.9,18.34-11.48,38.29-24,50.31-31.92-15.8,8.86-44,26-68,40.6-58.36,35.45-71.46,43-73.83,42.37a1.62,1.62,0,0,1-1-.77c-1.45-2.52.85-4.68,70.38-46C486.72,76.61,511.12,62.09,525,53.18c-15.18,8.58-41.51,24.61-64,38.31C404.29,126,386.19,136.69,383.4,136a1.72,1.72,0,0,1-1-.79c-1-1.68-1.62-2.8,26.32-20.78,15.92-10.25,37.19-23.42,57.76-36.15,24.45-15.12,51.4-31.8,63.49-40.1-16,8.3-53.87,31.53-85.52,50.94-62,38-81.8,49.71-84.94,48.92a1.77,1.77,0,0,1-1.09-.81c-1.53-2.66,1.58-5.55,81.37-53.26,31-18.52,68.18-40.76,81.72-50.37-13.9,7.26-47.48,27.91-77.79,46.54-61.4,37.74-90.76,55.4-94.82,54.38a1.89,1.89,0,0,1-1.16-.86c-1.35-2.35.59-4.59,56.2-44.17,17.35-12.35,37.9-27,47.68-34.71-13.05,7.1-41.61,24.37-67.47,40-60.39,36.51-73.94,44.27-76.29,43.66a1.64,1.64,0,0,1-1-.76c-1.38-2.4.78-4.67,61.88-44.25,18.9-12.24,41.21-26.7,52.36-34.65-1.86,1-4,2.21-6.31,3.54-3.7,2.21-8,4.73-13,7.61-12.93,7.7-28.52,17.22-42.49,25.76-50.59,30.92-65.69,39.81-68.29,39.14a1.67,1.67,0,0,1-1.05-.78,1.69,1.69,0,0,1-.13-.31c-3.53,1.78-5.39,2.41-6.16,2.22a1.72,1.72,0,0,1-1.05-.79c-1.45-2.5,1.05-5.22,66.57-50.06C371.4,69.88,396,53,405.9,45.29c-14.37,7.24-53,30.75-85,50.26-59.61,36.31-72.14,43.53-74.52,42.92a1.6,1.6,0,0,1-1-.77c-1.46-2.52,1-4.91,75.52-51.86C338.47,74.76,358.06,62.41,374.17,52c-13.44,7.61-31.88,17.71-55.87,30.75-57.4,35.18-81.6,49.61-89,52-4.29,2.2-6.49,3-7.33,2.79a1.68,1.68,0,0,1-1.05-.79c-1.28-2.21.79-4.59,58.87-48.18,16.71-12.54,35.08-26.32,44-33.58-13.33,7.09-43.63,25.52-69,40.94-52.62,32-63.69,38.34-65.83,37.79a1.62,1.62,0,0,1-1-.76c-1.32-2.3.86-4.63,62.2-46.72,10.78-7.4,22.25-15.27,31.45-21.72-8.68,5-20.28,11.44-35.51,19.86l-14.78,9.13c-47.14,29.12-63.59,38.92-67.46,39-6.89,3.73-10.37,5.15-11.57,4.84a1.76,1.76,0,0,1-1.11-.82,1.83,1.83,0,0,1-.16-1.38,1.43,1.43,0,0,1,.16-.37,2.61,2.61,0,0,1-1,0,1.78,1.78,0,0,1-1.12-.83,1.73,1.73,0,0,1-.17-1.32,4.27,4.27,0,0,1,1.31-1.64c-3.53,1.81-5.14,2.32-5.85,2.14a1.6,1.6,0,0,1-1-.77c-1.3-2.24-1.64-2.84,68.4-46.28C229.72,75,250,62.34,265.34,52.51c-11,6.4-26.52,15.16-47.83,27l-10.78,6.64c-57.9,35.67-76.44,46.65-79.66,45.83l-.14,0c-6,3.16-9.15,4.37-10.29,4.08a1.75,1.75,0,0,1-1.11-.83,1.72,1.72,0,0,1-.16-1.37.16.16,0,0,1,0-.09c-1-2.69,5.47-7.57,84.64-56C225.23,62.33,253,45.33,265.38,37c-16.82,8.65-57.77,33.74-89.25,53-58.74,36-76.24,46.34-79,45.63a1.71,1.71,0,0,1-1.06-.79c-1.23-2.13-1.61-2.78,58.53-43.26,16.18-10.89,33.83-22.77,44-30.08-12.42,7-34.5,20.52-54.66,32.87-52,31.87-68.68,41.67-71.58,40.94a1.72,1.72,0,0,1-1.08-.81c-1.17-2-1.38-2.38,50.1-36.49,19.2-12.73,41.8-27.71,53.49-36.21-11.86,6.73-33.11,19.7-52.53,31.55-56.43,34.44-75.73,45.77-78.82,45a1.74,1.74,0,0,1-1.09-.81c-.85-1.48-1.27-2.2,17.28-13.64-12.93,7.56-18.52,10.21-20.17,9.8a1.77,1.77,0,0,1-1.1-.82c-.77-1.33-.4-2.68,10-9.46-15.08,8.92-20.75,11.74-22.24,11.36a1.62,1.62,0,0,1-1-.78c-.5-.85-.56-1.66,2.28-3.94-9.76,5.51-14.41,7.59-15.86,7.22a1.76,1.76,0,0,1-1.11-.82c-1.46-2.53,1.19-5.34,70.19-52.31,17-11.59,36.31-24.71,50.69-34.9-11.6,6.62-28.44,15.87-52,28.7-32.79,20.2-49.75,30.38-57.76,34.23C10.79,118.27,7,120,5.88,119.69a1.62,1.62,0,0,1-1-.75,1.71,1.71,0,0,1-.16-1.31c.35-1.23,3.9-3.79,12.92-9.08,4.12-3.65,13.19-10.77,32.49-25.73,12.48-9.67,27.11-21,35.16-27.72C75.8,60.43,59.2,70.51,46.06,78.48,10.74,99.92,8.93,100.72,7.62,100.38a1.6,1.6,0,0,1-1-.73c-.86-1.49.64-2.53,3.14-4.26,1.2-.83,2.79-1.88,4.81-3.17a1.6,1.6,0,0,1-.23,0,1.66,1.66,0,0,1-1-.74c-1-1.78-1.08-1.88,28.61-22.51L47.66,65,42.92,67.9C17.71,83.29,16.34,83.84,15.11,83.53a1.62,1.62,0,0,1-1-.73c-.73-1.26-.8-1.39,12.34-19,2.62-3.5,5.61-7.49,7.77-10.48-2,1.23-4.39,2.71-6.52,4-12.57,7.84-13.29,8.08-14.33,7.82a1.68,1.68,0,0,1-1-.74c-.78-1.36.27-2.17,3.76-4.83l.37-.29c-6.78,4-7,4-7.77,3.79a1.58,1.58,0,0,1-.95-.71C7.07,61.13,7,61.06,20.19,46c2.22-2.54,4.7-5.38,6.76-7.79l-2.82,1.71c-8.22,5-8.24,5-9.08,4.79a1.51,1.51,0,0,1-.94-.71c-.39-.66-.4-.68,1.31-9.57l.82-4.26-.29.18c-3.4,2.07-3.47,2.11-4.19,1.93a1.51,1.51,0,0,1-.93-.71c-.35-.6-.37-.64.64-9.21.37-3.15.87-7.47.85-8.11a1.27,1.27,0,0,0,.18.57l1.73-1-1.3.75-.68-1.34a4.34,4.34,0,0,0,.4-.23,1.81,1.81,0,0,1,1.53-.38,1.48,1.48,0,0,1,.92.7c.35.61.37.64-.66,9.4-.2,1.72-.44,3.8-.62,5.41l.56-.34c3.4-2.08,3.47-2.12,4.19-1.94a1.56,1.56,0,0,1,.94.71c.36.64.36.64-1.14,8.44-.34,1.76-.75,3.88-1.05,5.54,1.51-.9,3.5-2.11,5.25-3.18,9.58-5.83,9.67-5.8,10.53-5.58a1.58,1.58,0,0,1,.95.71c.75,1.3.76,1.33-11.6,15.48-2.51,2.87-5.5,6.3-7.87,9.08,2.62-1.56,5.7-3.43,8.31-5C36.18,44,36.28,44,37.2,44.22a1.53,1.53,0,0,1,.94.71c.77,1.33-.22,2.18-3.56,4.74,3.34-2,3.77-2,4.41-1.82a1.57,1.57,0,0,1,1,.72c.71,1.23.74,1.28-11.07,17.07-3.14,4.19-7,9.39-9.52,12.9,5.19-3,14.27-8.49,22-13.2C67,49.7,68.48,49.09,69.72,49.41a1.62,1.62,0,0,1,1,.73c1,1.74,1,1.8-27,21.27C40.56,73.59,37.2,75.93,34,78.2c3.77-2.28,7.68-4.66,11.33-6.89,27.85-17,30.78-18.52,32.18-18.16a1.66,1.66,0,0,1,1,.74,1.24,1.24,0,0,1-.09,1.73C89.18,49.31,91.88,48.2,93,48.48a1.72,1.72,0,0,1,1,.75c1.1,1.91,1.36,2.36-42,36C45.75,90,39.21,95.08,33.5,99.56c10.12-5.63,23.42-12.9,40.7-22.29l.67-.37,4.56-2.75,11.59-7c36.56-22.51,52.66-32.11,58.59-34.28,3-1.47,4.42-1.93,5-1.77a1.6,1.6,0,0,1,1,.76c.93,1.61,1.55,2.67-22.58,19.78-13.8,9.78-32.58,22.57-50.75,34.93-26,17.67-54.76,37.27-65.2,45.64C29.57,125.89,61.4,106.31,87.86,90c54.84-33.74,72.4-44.12,75.48-43.34a1.73,1.73,0,0,1,1.1.81c.47.8.56,1.56-1.71,3.5,10.74-6.07,15.83-8.35,17.35-8a1.81,1.81,0,0,1,1.11.83c.78,1.35.45,2.6-11.46,10.17,4.75-2.49,7.2-3.4,8.18-3.15a1.7,1.7,0,0,1,1.09.81c.94,1.63.24,3.28-17.53,14.44,16.63-9.88,21.5-12.27,22.88-11.92a1.6,1.6,0,0,1,1,.77c1.37,2.36-1,4.85-62.33,45.51-14.73,9.76-30.76,20.38-40.4,27.13,13.6-7.56,38.55-22.84,59.74-35.83,49.09-30.06,63.75-38.71,66.34-38.05a1.71,1.71,0,0,1,1.06.79c1.2,2.08,1.45,2.51-53.52,39.52-18.23,12.27-39.74,26.75-50.6,34.73,13.9-7.66,42.73-25.32,68.91-41.35,64-39.2,94.6-57.56,98.78-56.5a1.89,1.89,0,0,1,1.16.86c1.31,2.28,1.66,2.89-72.89,48.51-13.75,8.42-28.79,17.61-42.26,26,10-5.64,22-12.31,36.24-20.16h0C253.27,50.91,274.11,38.57,279,37.85c4.32-2.21,6.61-3,7.51-2.8a1.84,1.84,0,0,1,.66.32,6.5,6.5,0,0,1,3.27-.68,1.86,1.86,0,0,1,1.15.85c1.5,2.6-1.49,5.47-78.3,53.1-19,11.8-39.63,24.58-53,33.27,13.27-7.73,32.9-19.69,51-30.75,58.49-35.64,78.47-47.37,81.56-46.58a1.73,1.73,0,0,1,1.08.8,1.78,1.78,0,0,1,.16,1.36,2.34,2.34,0,0,1-.48.82c4.06-2.07,6.22-2.84,7.08-2.62A1.72,1.72,0,0,1,302,47.09a1.82,1.82,0,0,1-.22.48,2.62,2.62,0,0,1,1.22-.1,1.72,1.72,0,0,1,1.06.8,1.68,1.68,0,0,1,.16,1.32,4.73,4.73,0,0,1-1.57,1.82c.34,1.84-4.42,5.45-50.76,37.25C232.48,102,209.55,117.72,198,126.38c12.14-6.83,34.7-20.55,55.28-33.06,56.63-34.43,74.72-45,77.59-44.3a1.74,1.74,0,0,1,1.06.79c1.12,1.94,1.35,2.35-50.31,41.11-14.47,10.86-31,23.25-42.69,32.39,11.28-6.76,30.72-17.53,61.55-34.32l4.06-2.48c53.58-32.64,80-48.45,91-53.59,8.23-4.51,12.32-6.24,13.65-5.9a1.73,1.73,0,0,1,1.11.82c1,1.7,1.69,2.92-27.37,22-16.62,10.91-38.9,25-60.44,38.54-24.29,15.31-50.89,32.08-64.81,41.6,14-7.95,38.9-23.12,61.67-37,65.29-39.78,89.08-53.74,92.51-52.87a1.71,1.71,0,0,1,1.1.82c1.36,2.35-.82,4.7-62.12,46.65-22.58,15.45-49.55,33.91-60.57,42.57,12.21-6.56,39.56-23.27,64.3-38.39,57.5-35.12,75.89-45.93,78.93-45.16a1.75,1.75,0,0,1,1.08.81,1.65,1.65,0,0,1,.16,1.27c-.19.68-1.48,1.86-4.25,3.79a1.58,1.58,0,0,1,.22.29c1.37,2.38-.58,4.42-60.41,43.18-18.95,12.27-41.24,26.71-52.89,35,13.87-7.73,40.7-24,65.13-38.73C443,55.66,456.55,47.9,458.9,48.5a1.66,1.66,0,0,1,1,.77c1.32,2.3-.41,4.3-54.29,42.64-19.75,14.06-43.48,31-52,38.14,13.48-6.37,54.59-31.64,88.51-52.49C504.84,39,524.91,27.12,528.22,28a1.79,1.79,0,0,1,1.1.83c1,1.7,1.7,2.93-27.26,21C485.47,60.11,463,73.54,441.28,86.53c-28.11,16.8-59.1,35.33-72.94,44.65,14.81-8.05,46.11-27.24,74.49-44.64,61.59-37.76,91-55.44,95-54.44A1.81,1.81,0,0,1,539,33c1.33,2.3,1.69,2.91-71,47.86-28.52,17.66-62.58,38.73-76.57,48.66,13.5-7.33,42.1-24.75,68-40.54,57.2-34.84,75.46-45.57,78.28-44.85a1.62,1.62,0,0,1,1,.79c1,1.74.1,3.42-24,18.24C539.4,48.45,548.86,43.44,550.85,44a1.74,1.74,0,0,1,1.06.79c1.26,2.19,1.52,2.64-62.29,42.6-24.13,15.1-52.8,33.06-65.65,42.07,14.4-7.74,45.26-26.54,71.2-42.33,54-32.91,65.42-39.45,67.65-38.88a1.62,1.62,0,0,1,1,.76c1.19,2.06,1.51,2.62-56.12,44.57-18.38,13.38-40.27,29.31-49.87,37.05,3-1.59,7-3.84,11.61-6.54,5.11-3.28,12.62-7.77,23.1-13.85,9-5.5,18.49-11.35,27.3-16.78,50.51-31.16,66.71-40.74,69.71-40a1.76,1.76,0,0,1,1.11.82l.06.11c12.16-7.1,17.21-9.49,18.68-9.12a1.71,1.71,0,0,1,1.08.8c1.2,2.08,1.49,2.58-62.17,46.95-20.68,14.41-43.48,30.31-53.69,38.08,14.67-7.56,50.86-29.82,81-48.37,63.57-39.1,85.32-52,88.86-51.07a1.77,1.77,0,0,1,1.13.84c1.49,2.58-1.18,5.13-75.21,50.57-28.33,17.39-62.37,38.28-74.65,47.2,13.91-7,49.56-28.84,79.2-47,52.29-32,66.8-40.61,69.33-40a1.66,1.66,0,0,1,1,.77c1.47,2.56-.8,4.89-65.28,45.13-20.87,13-45.56,28.44-57.49,36.77,13.88-7.61,42.18-24.85,66-39.38C664,52.84,680.5,43.14,683.2,43.83a1.67,1.67,0,0,1,1,.78,1.72,1.72,0,0,1,.22.92,4.75,4.75,0,0,1,2.44-.48,1.7,1.7,0,0,1,1.08.8c.9,1.56-.6,2.74-5.13,5.7l-1.2.78a1.33,1.33,0,0,1,.42,0,1.74,1.74,0,0,1,1.06.79c.71,1.23.48,2.41-8.2,8.18,10.3-5.93,14.89-8,16.29-7.7a1.77,1.77,0,0,1,1.09.81c1.37,2.38-.92,4.85-61.2,45-14,9.37-29.32,19.54-38.77,26.19,14.09-7.88,39.82-23.55,61.7-36.87,54.19-33,66.39-40,68.72-39.4a1.68,1.68,0,0,1,1,.78c1.34,2.32-.73,4.66-59.43,46.54-16.13,11.51-33.84,24.14-42.71,31,14.31-7.55,47.88-28.12,75.94-45.3,61-37.38,81.86-49.68,85.11-48.86a1.74,1.74,0,0,1,1.1.82c1.21,2.1,1.46,2.53-58.27,44.8-25.28,17.88-58.25,41.21-70.2,51.12,11.56-6.25,37.67-22.17,61.3-36.57,57.49-35,77.14-46.57,80.15-45.8A1.7,1.7,0,0,1,798,50.06a3.78,3.78,0,0,1-1.11,1.48c6.43-3.51,9.46-4.76,10.46-4.5a1.62,1.62,0,0,1,1,.78,1.81,1.81,0,0,1,.16,1.37,4,4,0,0,1-1.12,1.5,2.56,2.56,0,0,1-.05.27c-.18.65-1.28,1.67-4.14,3.54-4,3.74-16.43,12.54-51.7,36.76-20.6,14.14-45.15,31-55.71,39.2,13.4-7.1,44.57-26,70.64-41.87C820.17,56,831.45,49.52,833.6,50.07a1.57,1.57,0,0,1,1,.76c1.2,2.07,1.45,2.5-53,37.6-20,12.89-43.62,28.11-55.31,36.45,12.61-7,36.85-21.85,58.93-35.37,54.58-33.42,73.25-44.42,76.3-43.64a1.74,1.74,0,0,1,1.09.81c1.46,2.53-1.39,5.44-70.8,49.79-16.11,10.29-33.58,21.45-44.65,28.89,15.26-8.66,41.83-24.84,66.16-39.63,65.8-40,88.26-53.23,91.53-52.39a1.77,1.77,0,0,1,1.09.81c1.31,2.27,1.7,3-73.44,52.51-23.6,15.57-49.59,32.71-61.61,41.38,14.88-8,47.65-28,75.14-44.8,58.87-36,77.68-47.06,80.63-46.3a1.7,1.7,0,0,1,1.07.79C929,40,929.4,40.64,858.23,84.31c-21.32,13.08-46.16,28.33-60.72,37.88,13.07-7.58,33.39-20,52.12-31.46,60-36.67,81.86-49.54,85.25-48.68a1.8,1.8,0,0,1,1.12.83c1.23,2.14,1.57,2.71-61,47.87-19.67,14.2-43,31-53.91,39.66,12.2-6.74,36.93-21.81,59.39-35.5C937,60.46,955.07,49.86,958,50.6a1.67,1.67,0,0,1,1.06.8c1.14,2,1.35,2.33-48.72,38.65-13.11,9.52-28,20.31-39,28.6,14.25-8.3,35.76-20.2,65.58-36.53L943.66,78c57.49-35.35,78.45-47.84,83.65-48.65,4.23-2.07,6.78-3,7.75-2.72a1.81,1.81,0,0,1,1.14.85c.66,1.13.53,2.25-5.77,6.6,7.35-4,10.89-5.51,12-5.23a1.67,1.67,0,0,1,1.06.8c1.59,2.74-1.66,5.78-84.9,56.3-24.23,14.7-50.72,30.78-65.15,40.23,15.59-8.78,43.39-25.65,67.09-40,58.87-35.71,76.39-46,79-45.31a1.66,1.66,0,0,1,1,.78c1.33,2.3-.8,4.67-61,47.4-21.82,15.5-48,34.1-57.69,42.09,13.17-6.53,49.11-28.49,78.91-46.7,53.17-32.49,64.38-38.94,66.6-38.38a1.63,1.63,0,0,1,1,.77c1.44,2.49-1.08,5.1-66.88,47.74-18.5,12-38.74,25.1-49.68,32.75,14.31-7.87,42.31-24.91,66-39.32,54.73-33.3,66.26-39.91,68.55-39.33a1.63,1.63,0,0,1,1,.77,1.75,1.75,0,0,1,.16,1.35,1.1,1.1,0,0,1-.12.31c2.62-1.29,3.86-1.64,4.46-1.49a1.62,1.62,0,0,1,1,.76,1.31,1.31,0,0,1,.23,1.18c3.42-1.69,5.26-2.32,6-2.14a1.62,1.62,0,0,1,1,.78c1.32,2.28-.81,4.6-60.79,46.16-17.58,12.19-36.85,25.54-47,33.1,13.84-7.64,42.37-25.11,68.28-41,63.15-38.65,93.34-56.75,97.42-55.71a1.83,1.83,0,0,1,1.15.85c1.2,2.08,1.45,2.52-58.17,44.18-25.76,18-59.58,41.63-70.41,50.71,12.7-6.25,48.14-28,77.49-45.95,54.48-33.37,70.73-43,73.48-42.27a1.69,1.69,0,0,1,1,.79,1.8,1.8,0,0,1,.17,1.39,6.34,6.34,0,0,1-2.07,2.43,2,2,0,0,1,.74,0,1.72,1.72,0,0,1,1.09.82c1.14,2,1.37,2.37-51.68,41.37-21.47,15.79-47.17,34.68-57.38,43.24,12.09-6.4,40.5-23.71,64.24-38.18,52.68-32.1,64.55-38.91,66.86-38.32a1.66,1.66,0,0,1,1,.78c1.13,2,1.31,2.26-45.64,36.17-18.2,13.14-39.89,28.81-49.23,36.4,13.42-7,47.1-27.63,77.45-46.23,62.31-38.17,92.1-56,96.06-55a1.86,1.86,0,0,1,1.14.84c1.38,2.4-.9,4.67-69.36,49.22-28.78,18.73-63.29,41.19-76.19,51.05,12.52-6.78,40.68-24,66.16-39.6C1270.51,48,1294,34.2,1297.6,35.12a1.77,1.77,0,0,1,1.13.84c1.21,2.1,1.5,2.59-61.16,46.39-25.26,17.66-55.54,38.82-67.09,48.11,12.17-6.48,40.24-23.68,65.6-39.22,57.87-35.46,77.67-47.12,80.89-46.3a1.76,1.76,0,0,1,1.11.82c1.35,2.35-.62,4.49-60.79,46-19.59,13.52-42.75,29.52-54,38.05,11.66-6.54,33.9-20.15,54.16-32.53,57.66-35.27,77.4-46.86,80.66-46a1.71,1.71,0,0,1,1.1.82c1.15,2,1.36,2.35-48.63,38.81-18.3,13.35-40.13,29.27-49.37,36.82,14.63-7.44,54.26-31.59,87.14-51.62,65.34-39.82,86.18-52.09,89.26-51.3a1.65,1.65,0,0,1,1.06.79c1.38,2.39,1.8,3.11-84.93,55.72-10,6.05-20.32,12.32-30.13,18.31l20.2-11.22,7.71-4.69c62.24-37.91,82.11-49.58,85.17-48.8a1.71,1.71,0,0,1,1.07.8A1.65,1.65,0,0,1,1418,37a4,4,0,0,1-1.25,1.49c-1,3.06-12.65,10.63-77.61,48.77-27.22,16-59.8,35.11-72.55,43.86,15.37-7.85,54.12-31.53,86.38-51.25,57.82-35.33,75-45.5,77.75-44.81a1.65,1.65,0,0,1,1,.78c1.37,2.37-.56,4.31-64.38,45.38-25.11,16.16-55,35.4-68,44.92,11.8-6.58,34.73-20.61,55.6-33.37,56.21-34.39,75.45-45.69,78.6-44.89a1.71,1.71,0,0,1,1.1.82c1.17,2,1.48,2.56-52.55,41.94C1363.76,104,1342,119.93,1332,128c12.68-6.87,40.6-23.8,64-38,55.24-33.5,66.86-40.15,69.12-39.57a1.62,1.62,0,0,1,1,.76c1.48,2.57-1.07,5-72.21,47.4-18.4,11-38.4,22.89-50.79,30.72,15.9-8.93,43.21-25.57,66.55-39.78,52.55-32,62.88-37.94,65-37.39a1.64,1.64,0,0,1,1,.75c1.2,2.08,1.52,2.64-56.39,43.86-17.45,12.42-36.66,26.1-45.71,33.12,13.62-7,46.12-27,73.24-43.75,55.79-34.34,73.66-44.91,76.76-44.12a1.73,1.73,0,0,1,1.1.81c1.41,2.44-.58,4.37-66.26,44.91-24.45,15.1-53.4,33-67.12,42.47,13.7-7.65,40.08-23.62,64.1-38.18,58.22-35.26,76.78-46.14,79.45-45.45a1.67,1.67,0,0,1,1.19,2.08c-.29,1.08-2.81,3.12-8.88,7a1.52,1.52,0,0,1,.59.59c1.14,2,1.45,2.51-47.2,40.22-15.3,11.87-33.39,25.89-42.25,33.43,9.78-5.46,28.15-16.63,43.71-26.09,41.65-25.31,49.87-30,51.79-29.51a1.79,1.79,0,0,1,1,.76c1,1.73,1.1,1.92-31.39,27.87-9.34,7.46-20.17,16.11-27,21.83,6.08-3.55,14.47-8.74,21.34-13C1521.14,97.32,1523.62,96,1525,96.39a1.68,1.68,0,0,1,1,.74c1,1.68,1,1.81-22.43,19.2l-4.87,3.6,6.08-3.7c25.34-15.44,28.23-16.92,29.58-16.57a1.68,1.68,0,0,1,1,.74c1,1.69,1,1.74-23.27,18.67,11.22-6.78,11.52-6.7,12.38-6.48a1.59,1.59,0,0,1,1,.72c.3.51.32.55.37,9.72,0,2.17,0,4.84.06,6.7l1.48-.89c4.14-2.48,4.14-2.48,4.84-2.29a1.48,1.48,0,0,1,.92.7c.67,1.16.44,1.36-3.38,4.8l-1.12,1a1.55,1.55,0,0,1-.91,1.17,2.63,2.63,0,0,0-.3.18ZM1423.8,115.59c-5,3-9.76,5.74-13.9,8.24C1414.1,121.38,1418.81,118.58,1423.8,115.59Zm-73.33-38.5c-.3.18-.6.36-.89.55l1.52-.9ZM1166.72,50.72c-8.65,5-20.26,12-32.63,19.52,14.34-8.3,27.4-16,35.94-21.41C1169,49.42,1167.87,50.05,1166.72,50.72ZM975.55,118c-3.67,2.12-7.14,4.15-10.32,6C968.42,122.18,971.88,120.15,975.55,118Zm-98.27,7.33c15.7-8.46,50-29.32,78.88-46.94l-1.11.64C926.28,95.7,892,115.57,877.28,125.32Zm70.36-45.66-6.21,3.8,12.12-7,.16-.1ZM777.93,60.41c-8.59,5-19.37,11.4-30.67,18.23,13.87-8,27-15.69,36-21.26Q780.76,58.78,777.93,60.41ZM565,127.81c12.72-7.17,33.42-19.86,52.35-31.52l-1.2.71C597.5,108.07,577.16,120.12,565,127.81ZM666.84,63C653.3,70.79,632.92,83.25,615.26,94l-1.4.85.79-.47c18.23-10.8,39.32-23.3,52.64-31.7Zm-77.45,43.31c-9,5.28-17.33,10.22-23.93,14.29C572.21,116.65,580.53,111.66,589.39,106.29ZM475.83,123.78c8.15-4.61,19.13-11.17,30.91-18.32-4.32,2.48-8.56,4.92-12.58,7.26C487,117.09,480.93,120.75,475.83,123.78Zm2.86-38.91-11.33,6.74c-18.34,10.91-39.42,23.45-53.48,32.26,14.3-8.32,35.38-21.12,54.87-33ZM402.85,32.36a1.48,1.48,0,0,1,0,.19c.28-.2.54-.41.8-.6ZM162,130.16l.38-.2,0-.06Zm-.2-3.57,2.79-1.57c5.92-3.66,14-8.43,24.79-14.62,3-1.81,6.08-3.67,9.2-5.57C184.08,113.19,170.55,121.11,161.77,126.59ZM232.18,82c19.28-11.1,39-22.57,50.13-29.66C270.87,58.65,251.57,70.24,232.18,82ZM58.69,128c15.09-8.58,39.1-23.21,60.17-36.07l-13.7,8.15C88.56,109.94,70.62,120.58,58.69,128ZM163,61.18c-13.6,7.85-34.36,20.64-52.32,31.7-7.61,4.69-14.45,8.9-20.61,12.66l13.51-8c23.45-13.92,51.18-30.37,64.64-39.3C166.68,59.09,164.93,60.09,163,61.18ZM49.41,126.28c13.44-7.43,38.49-22.86,59.74-35.95l2-1.21C88.47,102.44,62.46,117.76,49.41,126.28ZM159.74,56.16C142.9,65.88,118.26,81,96.81,94.07c4.66-2.76,9.68-5.71,15.09-8.9,21.44-12.61,44.91-26.41,57.51-34.47C166.62,52.23,163.36,54.07,159.74,56.16Zm-12.83,1.63c-11.21,6.47-26.82,16-42.25,25.43C122,73.06,140,62.41,151.09,55.4Z" transform="translate(0.07 -2.13)"/><path class="cls-4" d="M1527.9,14.14V133.26H11.93V14.14A69.9,69.9,0,0,0,75.09,54.08a69.9,69.9,0,0,0,63.17-39.94h0a69.9,69.9,0,0,0,63.16,39.94,69.9,69.9,0,0,0,63.17-39.94h0a69.9,69.9,0,0,0,63.16,39.94,69.9,69.9,0,0,0,63.17-39.94h0a69.9,69.9,0,0,0,63.17,39.94,69.9,69.9,0,0,0,63.16-39.94h0a69.9,69.9,0,0,0,63.17,39.94,69.9,69.9,0,0,0,63.16-39.94h0a69.92,69.92,0,0,0,63.17,39.94,69.9,69.9,0,0,0,63.16-39.94h0a69.92,69.92,0,0,0,63.17,39.94,69.92,69.92,0,0,0,63.17-39.94h0a69.9,69.9,0,0,0,63.16,39.94,69.92,69.92,0,0,0,63.17-39.94h0a69.9,69.9,0,0,0,63.16,39.94,69.9,69.9,0,0,0,63.17-39.94h0a69.9,69.9,0,0,0,63.16,39.94,69.9,69.9,0,0,0,63.17-39.94h0a69.9,69.9,0,0,0,63.17,39.94,69.9,69.9,0,0,0,63.16-39.94h0a69.9,69.9,0,0,0,63.17,39.94,69.9,69.9,0,0,0,63.16-39.94m0-5a5,5,0,0,0-4.51,2.86,65.26,65.26,0,0,1-58.65,37.09A65.23,65.23,0,0,1,1406.09,12a5,5,0,0,0-9,0,65.23,65.23,0,0,1-58.64,37.09A65.23,65.23,0,0,1,1279.76,12a5,5,0,0,0-9,0,65.23,65.23,0,0,1-58.65,37.09A65.26,65.26,0,0,1,1153.42,12a5,5,0,0,0-9,0,65.23,65.23,0,0,1-58.65,37.09A65.26,65.26,0,0,1,1027.09,12a5,5,0,0,0-9,0,65.24,65.24,0,0,1-58.65,37.09A65.26,65.26,0,0,1,900.76,12a5,5,0,0,0-9,0,65.26,65.26,0,0,1-58.65,37.09A65.26,65.26,0,0,1,774.43,12a5,5,0,0,0-9,0,65.26,65.26,0,0,1-58.65,37.09A65.24,65.24,0,0,1,648.1,12a5,5,0,0,0-9,0,65.26,65.26,0,0,1-58.65,37.09A65.23,65.23,0,0,1,521.77,12a5,5,0,0,0-9,0,65.26,65.26,0,0,1-58.65,37.09A65.23,65.23,0,0,1,395.44,12a5,5,0,0,0-9,0,65.23,65.23,0,0,1-58.65,37.09A65.23,65.23,0,0,1,269.11,12a5,5,0,0,0-9,0,65.23,65.23,0,0,1-58.65,37.09A65.26,65.26,0,0,1,142.77,12a5,5,0,0,0-9,0A65.24,65.24,0,0,1,75.09,49.08,65.26,65.26,0,0,1,16.44,12a5,5,0,0,0-4.51-2.86,4.53,4.53,0,0,0-1.1.13,5,5,0,0,0-3.9,4.88V133.26a5,5,0,0,0,5,5h1516a5,5,0,0,0,5-5V14.14a5,5,0,0,0-3.9-4.88,4.65,4.65,0,0,0-1.1-.13Z" transform="translate(0.07 -2.13)"/><g class="cls-5"><path class="cls-6" d="M67.14,71.78C106.49,78.87,122.7,54,129.19,28.44a69.76,69.76,0,0,1-54.1,25.64A69.9,69.9,0,0,1,11.93,14.14S17.34,62.8,67.14,71.78Z" transform="translate(0.07 -2.13)"/><path class="cls-6" d="M193,71.78c39,7,55.24-17.26,61.85-42.59a69.73,69.73,0,0,1-53.46,24.89,69.9,69.9,0,0,1-63.16-39.94h0c-.11.23-.23.46-.35.69C138.8,20.78,146.73,63.43,193,71.78Z" transform="translate(0.07 -2.13)"/><path class="cls-6" d="M318.92,71.78c38.57,7,54.91-16.78,61.65-41.83a69.71,69.71,0,0,1-52.82,24.13,69.9,69.9,0,0,1-63.16-39.94h0c-.22.46-.45.91-.68,1.37C265.23,23.46,274.09,63.7,318.92,71.78Z" transform="translate(0.07 -2.13)"/><path class="cls-6" d="M444.81,71.78c38.2,6.88,54.59-16.33,61.45-41.11a69.68,69.68,0,0,1-52.17,23.41,69.9,69.9,0,0,1-63.17-39.94h0c-.32.68-.66,1.35-1,2C391.59,25.46,401.11,63.9,444.81,71.78Z" transform="translate(0.07 -2.13)"/><path class="cls-6" d="M570.7,71.78C608.54,78.6,625,55.89,632,31.37a69.69,69.69,0,0,1-51.54,22.71,69.9,69.9,0,0,1-63.17-39.94h0c-.42.89-.87,1.77-1.33,2.64C517.89,27.05,527.91,64.07,570.7,71.78Z" transform="translate(0.07 -2.13)"/><path class="cls-6" d="M696.59,71.78c37.47,6.75,53.95-15.45,61-39.69a69.69,69.69,0,0,1-50.89,22,69.92,69.92,0,0,1-63.17-39.94h0c-.52,1.1-1.08,2.17-1.66,3.24C644.16,28.41,654.59,64.21,696.59,71.78Z" transform="translate(0.07 -2.13)"/><path class="cls-6" d="M822.48,71.78c37.13,6.69,53.66-15.06,60.85-39a69.66,69.66,0,0,1-50.25,21.34,69.92,69.92,0,0,1-63.17-39.94h0c-.61,1.3-1.28,2.57-2,3.83C770.42,29.63,781.2,64.34,822.48,71.78Z" transform="translate(0.07 -2.13)"/><path class="cls-6" d="M948.37,71.78c36.8,6.63,53.36-14.67,60.66-38.39a69.65,69.65,0,0,1-49.62,20.69,69.9,69.9,0,0,1-63.16-39.94h0c-.72,1.5-1.48,3-2.3,4.41C896.66,30.73,907.75,64.46,948.37,71.78Z" transform="translate(0.07 -2.13)"/><path class="cls-6" d="M1074.26,71.78c36.46,6.57,53-14.28,60.45-37.74a69.64,69.64,0,0,1-49,20,69.9,69.9,0,0,1-63.16-39.94h0q-1.22,2.54-2.62,4.95C1022.88,31.7,1034.22,64.56,1074.26,71.78Z" transform="translate(0.07 -2.13)"/><path class="cls-6" d="M1200.15,71.78c36.14,6.51,52.76-13.92,60.26-37.13a69.65,69.65,0,0,1-48.34,19.43,69.9,69.9,0,0,1-63.16-39.94h0c-.9,1.88-1.88,3.7-2.93,5.49C1149.09,32.61,1160.67,64.66,1200.15,71.78Z" transform="translate(0.07 -2.13)"/><path class="cls-6" d="M1326,71.78c35.82,6.46,52.47-13.56,60.06-36.52a69.62,69.62,0,0,1-47.69,18.82,69.9,69.9,0,0,1-63.17-39.94h0c-1,2.06-2.07,4.07-3.24,6C1275.29,33.47,1287.09,64.76,1326,71.78Z" transform="translate(0.07 -2.13)"/><path class="cls-6" d="M1451.93,71.78c35.52,6.4,52.19-13.22,59.87-35.93a69.63,69.63,0,0,1-47.06,18.23,69.9,69.9,0,0,1-63.17-39.94h0a71,71,0,0,1-3.55,6.54C1401.49,34.26,1413.48,64.85,1451.93,71.78Z" transform="translate(0.07 -2.13)"/></g></svg>