<svg id="Layer_1" data-name="Layer 1" xmlns="http://www.w3.org/2000/svg" xmlns:xlink="http://www.w3.org/1999/xlink" viewBox="0 0 1539.98 143.12"><defs><style>.cls-1{fill:url(#linear-gradient);}.cls-2{fill:#fff;}.cls-3{fill:url(#linear-gradient-2);}.cls-4,.cls-6{fill:#231f20;}.cls-5{opacity:0.84;}.cls-6{opacity:0.34;}</style><linearGradient id="linear-gradient" x1="769.91" y1="5.48" x2="769.91" y2="136.61" gradientUnits="userSpaceOnUse"><stop offset="0.21" stop-color="#67c5ad"/><stop offset="0.22" stop-color="#65c0aa"/><stop offset="0.39" stop-color="#4d8783"/><stop offset="0.55" stop-color="#3a5a65"/><stop offset="0.7" stop-color="#2c394f"/><stop offset="0.81" stop-color="#242542"/><stop offset="0.89" stop-color="#211e3d"/></linearGradient><linearGradient id="linear-gradient-2" x1="769.81" y1="11.48" x2="769.81" y2="130.61" xlink:href="#linear-gradient"/></defs><title>oceanwave3</title><path class="cls-1" d="M11.93,136.61a6,6,0,0,1-6-6V11.49a6,6,0,0,1,4.68-5.86,5.94,5.94,0,0,1,1.32-.15,6,6,0,0,1,5.42,3.43A64.24,64.24,0,0,0,75.09,45.43,64.25,64.25,0,0,0,132.84,8.91a6,6,0,0,1,10.84,0,64.24,64.24,0,0,0,57.74,36.52A64.25,64.25,0,0,0,259.17,8.91a6,6,0,0,1,10.84,0,64.25,64.25,0,0,0,57.74,36.52A64.25,64.25,0,0,0,385.5,8.91a6,6,0,0,1,10.84,0,64.25,64.25,0,0,0,57.75,36.52A64.25,64.25,0,0,0,511.83,8.91a6,6,0,0,1,10.84,0,64.25,64.25,0,0,0,57.75,36.52A64.24,64.24,0,0,0,638.16,8.91a6,6,0,0,1,10.84,0,64.25,64.25,0,0,0,57.75,36.52A64.26,64.26,0,0,0,764.5,8.91a6,6,0,0,1,10.83,0,64.25,64.25,0,0,0,57.75,36.52A64.25,64.25,0,0,0,890.83,8.91a6,6,0,0,1,10.83,0,64.26,64.26,0,0,0,57.75,36.52,64.25,64.25,0,0,0,57.75-36.52,6,6,0,0,1,10.84,0,64.24,64.24,0,0,0,57.74,36.52,64.25,64.25,0,0,0,57.75-36.52,6,6,0,0,1,10.84,0,64.24,64.24,0,0,0,57.74,36.52,64.25,64.25,0,0,0,57.75-36.52,6,6,0,0,1,10.84,0,64.25,64.25,0,0,0,57.74,36.52,64.25,64.25,0,0,0,57.75-36.52,6,6,0,0,1,10.84,0,64.25,64.25,0,0,0,57.75,36.52,64.24,64.24,0,0,0,57.74-36.52,6,6,0,0,1,11.42,2.57V130.61a6,6,0,0,1-6,6Z" transform="translate(0.07 0.52)"/><path class="cls-2" d="M1527.9,11.48V130.61H11.93V11.48a69.89,69.89,0,0,0,63.16,40,69.9,69.9,0,0,0,63.17-39.95,69.89,69.89,0,0,0,63.16,40,69.9,69.9,0,0,0,63.17-39.95,69.89,69.89,0,0,0,63.16,40,69.9,69.9,0,0,0,63.17-39.95,69.9,69.9,0,0,0,63.17,40,69.89,69.89,0,0,0,63.16-39.95,69.9,69.9,0,0,0,63.17,40,69.89,69.89,0,0,0,63.16-39.95,69.91,69.91,0,0,0,63.17,40,69.89,69.89,0,0,0,63.16-39.95,69.91,69.91,0,0,0,63.17,40,69.91,69.91,0,0,0,63.17-39.95,69.89,69.89,0,0,0,63.16,40,69.91,69.91,0,0,0,63.17-39.95,69.89,69.89,0,0,0,63.16,40,69.9,69.9,0,0,0,63.17-39.95,69.89,69.89,0,0,0,63.16,40,69.9,69.9,0,0,0,63.17-39.95,69.9,69.9,0,0,0,63.17,40,69.89,69.89,0,0,0,63.16-39.95,69.9,69.9,0,0,0,63.17,40,69.89,69.89,0,0,0,63.16-39.95m0-12a12,12,0,0,0-10.84,6.86,58.21,58.21,0,0,1-52.32,33.09,58.21,58.21,0,0,1-52.33-33.09,12,12,0,0,0-21.68,0,58.21,58.21,0,0,1-52.32,33.09,58.21,58.21,0,0,1-52.33-33.09,12,12,0,0,0-21.68,0,58.21,58.21,0,0,1-52.33,33.09,58.21,58.21,0,0,1-52.32-33.09,12,12,0,0,0-21.68,0,58.21,58.21,0,0,1-52.33,33.09,58.21,58.21,0,0,1-52.32-33.09,12,12,0,0,0-21.68,0,58.21,58.21,0,0,1-52.33,33.09A58.23,58.23,0,0,1,907.08,6.34a12,12,0,0,0-21.67,0,58.22,58.22,0,0,1-52.33,33.09A58.21,58.21,0,0,1,780.75,6.34a12,12,0,0,0-21.67,0,58.23,58.23,0,0,1-52.33,33.09A58.21,58.21,0,0,1,654.42,6.34a12,12,0,0,0-21.68,0,58.21,58.21,0,0,1-52.32,33.09A58.21,58.21,0,0,1,528.09,6.34a12,12,0,0,0-21.68,0,58.21,58.21,0,0,1-52.32,33.09A58.21,58.21,0,0,1,401.76,6.34a12,12,0,0,0-21.68,0,58.21,58.21,0,0,1-52.33,33.09A58.21,58.21,0,0,1,275.43,6.34a12,12,0,0,0-21.68,0,58.21,58.21,0,0,1-52.33,33.09A58.21,58.21,0,0,1,149.1,6.34a12,12,0,0,0-21.68,0A58.21,58.21,0,0,1,75.09,39.43,58.21,58.21,0,0,1,22.77,6.34,12,12,0,0,0,11.93-.52a12,12,0,0,0-12,12V130.61a12,12,0,0,0,12,12h1516a12,12,0,0,0,12-12V11.48a12,12,0,0,0-12-12Z" transform="translate(0.07 0.52)"/><path class="cls-3" d="M1395.07,30.56a1.63,1.63,0,0,1-.89.22,1.66,1.66,0,0,1-1.36-.85,1.49,1.49,0,0,1,.55-2.05,1.42,1.42,0,0,1,.25-.12,1.89,1.89,0,0,1,1.6-.87,1.67,1.67,0,0,1,1.37.86,1.5,1.5,0,0,1-.55,2.05l-.28.13A2.5,2.5,0,0,1,1395.07,30.56Zm.35-2.13h0Zm-126.67,2.15a1.55,1.55,0,0,1-.86.22,1.67,1.67,0,0,1-1.4-.87,1.5,1.5,0,0,1,.54-2.05,1.59,1.59,0,0,1,.27-.12,1.85,1.85,0,0,1,1.55-.88,1.7,1.7,0,0,1,1.41.87,1.5,1.5,0,0,1-.55,2.05,1.42,1.42,0,0,1-.25.12A2.53,2.53,0,0,1,1268.75,30.58Zm.33-2.15h0Zm-126.63,2.18a1.55,1.55,0,0,1-.83.21,1.69,1.69,0,0,1-1.47-.89,1.51,1.51,0,0,1,.55-2.05l.28-.13a1.82,1.82,0,0,1,1.51-.87,1.69,1.69,0,0,1,1.44.87,1.54,1.54,0,0,1-.76,2.15A2.32,2.32,0,0,1,1142.45,30.61Zm.3-2.18h0Zm-126.67,2.14a1.57,1.57,0,0,1-.89.21,1.67,1.67,0,0,1-1.37-.85,1.51,1.51,0,0,1,.81-2.17,1.88,1.88,0,0,1,1.59-.87,1.67,1.67,0,0,1,1.38.86,1.51,1.51,0,0,1-.55,2.05,1.39,1.39,0,0,1-.28.12A2.41,2.41,0,0,1,1016.08,30.57Zm.34-2.14h0ZM889.71,30.57a1.63,1.63,0,0,1-.8.21,1.67,1.67,0,0,1-1.42-.85,1.53,1.53,0,0,1,.67-2.11,1.89,1.89,0,0,1,1.6-1,1.72,1.72,0,0,1,1.51.92,1.51,1.51,0,0,1-.55,2.05,1.84,1.84,0,0,1-.36.15A2,2,0,0,1,889.71,30.57Zm.38-2.14h0Zm-126.6,2.2a1.64,1.64,0,0,1-.82.22,1.72,1.72,0,0,1-1.51-.92,1.5,1.5,0,0,1,.55-2.05,1.3,1.3,0,0,1,.32-.14,1.77,1.77,0,0,1,1.47-.85,1.65,1.65,0,0,1,1.43.86,1.52,1.52,0,0,1-.69,2.12A2.17,2.17,0,0,1,763.49,30.63Zm.27-2.2h0ZM637.12,30.61a1.57,1.57,0,0,1-.81.21,1.67,1.67,0,0,1-1.48-.89,1.5,1.5,0,0,1,.55-2.05l.23-.11a1.82,1.82,0,0,1,1.51-.91,1.67,1.67,0,0,1,1.48.89,1.49,1.49,0,0,1-.55,2.05l-.22.11A2.16,2.16,0,0,1,637.12,30.61Zm.31-2.18h0ZM510.8,30.6a1.61,1.61,0,0,1-.87.22,1.68,1.68,0,0,1-1.43-.89,1.49,1.49,0,0,1,.55-2.05,1.3,1.3,0,0,1,.32-.14,1.8,1.8,0,0,1,1.52-.84,1.67,1.67,0,0,1,1.38.85,1.49,1.49,0,0,1-.55,2.05,1.51,1.51,0,0,1-.18.09A2.41,2.41,0,0,1,510.8,30.6Zm.3-2.17h0ZM384.42,30.58a1.59,1.59,0,0,1-.84.21,1.65,1.65,0,0,1-1.41-.86,1.53,1.53,0,0,1,.78-2.16,1.85,1.85,0,0,1,1.56-.9,1.67,1.67,0,0,1,1.43.88,1.5,1.5,0,0,1-.55,2.05,1.39,1.39,0,0,1-.28.12A2.19,2.19,0,0,1,384.42,30.58Zm.35-2.15h0ZM258.05,30.56a1.49,1.49,0,0,1-.82.21,1.61,1.61,0,0,1-1.39-.84,1.53,1.53,0,0,1,.67-2.12,1.93,1.93,0,0,1,1.62-1,1.73,1.73,0,0,1,1.48.91,1.5,1.5,0,0,1-.55,2.05,1.44,1.44,0,0,1-.36.15A2,2,0,0,1,258.05,30.56Zm.38-2.13h0Zm-126.6,2.2a1.65,1.65,0,0,1-.83.22,1.76,1.76,0,0,1-1.5-.92,1.51,1.51,0,0,1,.55-2.05,1.63,1.63,0,0,1,.34-.14,1.76,1.76,0,0,1,1.47-.84,1.65,1.65,0,0,1,1.42.85,1.51,1.51,0,0,1-.69,2.12A2.39,2.39,0,0,1,131.83,30.63Zm.27-2.2h0Zm1371.74,92.78a2.64,2.64,0,0,1-1.85.46,1.75,1.75,0,0,1-1.2-.85c-.58-1-.63-1.09,3.6-6-3.86,2.78-5.45,3.73-6.71,3.47a1.76,1.76,0,0,1-1.18-.85c-.59-1-.59-1,6.66-12.11,1.63-2.49,3.6-5.5,5-7.78-4.41,2.48-12.14,7.4-18.69,11.57-20,12.74-24.42,15.23-26.24,14.79a1.72,1.72,0,0,1-1.09-.8c-1-1.7-1.1-1.92,26.73-23.39,4.57-3.52,9.64-7.43,13.91-10.78-5.48,3.32-12.17,7.54-18.14,11.3-27,17-35.85,22.22-38.23,21.63a1.73,1.73,0,0,1-1.12-.83c-1-1.76-1.06-1.83,28.86-22.7,8.73-6.1,19.51-13.62,26.61-18.83-8.59,4.88-21.86,13.27-32.53,20-27.63,17.41-33.21,20.61-35.12,20.14a1.62,1.62,0,0,1-1.05-.79c-1.2-2.06-1.52-2.61,47-34.76,8.52-5.65,17.66-11.7,24.48-16.36-11.23,6.47-28.68,17.27-43.7,26.61-37.13,23.07-47.52,29.23-49.89,28.64a1.71,1.71,0,0,1-1.07-.8c-1.17-2-1.52-2.64,53-41.5,13.68-9.76,28.6-20.4,37.16-26.88-10.57,6-29.44,17.7-46.67,28.43-45.39,28.28-61,37.56-64.28,36.75a1.86,1.86,0,0,1-1.16-.86c-1.24-2.15-1.5-2.59,55.49-38.18,18.52-11.56,40.2-25.09,52.31-33.28-11.58,6.62-30.75,18.6-48.32,29.55-50,31.14-74,45.7-78.18,44.65a1.88,1.88,0,0,1-1.23-.9c-1.21-2.08-1.49-2.58,47.12-33.77,10.36-6.64,21.52-13.8,29.36-19-10.75,6.19-27.38,16.63-41.68,25.63-37.59,23.63-49.75,30.88-52.57,30.18a1.82,1.82,0,0,1-1.15-.85c-1-1.78-1.16-2,39.06-32.48,12.55-9.51,27.35-20.72,34.92-26.87-1.28.67-2.74,1.45-4.33,2.35-4,2.66-11.49,7.08-24.93,14.77-8.72,5.32-17.89,11-26,16.08-39.68,24.63-48.15,29.51-50.3,29a1.68,1.68,0,0,1-1.06-.79,1.65,1.65,0,0,1-.15-1.29,2.56,2.56,0,0,1,.69-1,1.59,1.59,0,0,1-.28-.36,1.65,1.65,0,0,1-.16-1.27,2.75,2.75,0,0,1,.74-1.08,1.73,1.73,0,0,1-.61-.62,1.24,1.24,0,0,1-.2-1.27c-3.78,1.9-5.9,2.6-6.85,2.36a1.86,1.86,0,0,1-1.15-.85c-1.14-2-1.38-2.4,45.75-34.83,17-11.73,37.29-25.66,46.43-32.74l-.64.35c-3.72,3.31-15.68,10.42-42.18,25.39l-10,6.21c-44,27.5-59.23,36.52-62.35,35.75a2.24,2.24,0,0,1-.39-.14c-2.64,1.17-4.36,1.64-5.22,1.43a1.94,1.94,0,0,1-1.21-.89c-1.23-2.14-1.49-2.59,54.06-36.34,17.81-10.83,38.63-23.48,50.48-31.26-11.54,6.56-30.38,18.35-47.7,29.17-44.42,27.74-64.27,39.81-68,38.89a1.9,1.9,0,0,1-1.19-.87,1.85,1.85,0,0,1-.22-.76,5.22,5.22,0,0,1-2.53.41h0c-7.44,4.09-11.15,5.63-12.43,5.31a1.75,1.75,0,0,1-1.11-.83c-1-1.71-1.17-2,32.4-31.61,7.39-6.51,15.8-13.92,21.9-19.48-7.36,4.29-18,10.26-33.28,18.7L1268,91.87c-32.86,20.89-43.84,27.48-46.89,27-1.88.83-3,1.11-3.61,1a1.72,1.72,0,0,1-1.09-.8c-1.16-2-1.47-2.56,45.64-36.15,6.36-4.55,13-9.3,19-13.64-8.18,4.62-19.43,10.85-34.79,19.29l-1.18.72c-25.89,15.85-40.88,24.88-49.55,29.75a71.35,71.35,0,0,1-8.81,4.47,4.44,4.44,0,0,1-2.34.46l-.09,0a1.7,1.7,0,0,1-1-.79c-1.09-1.9-1.29-2.24,46.18-38.42,15.23-11.61,33.31-25.39,41.63-32.3-11,5.73-35.62,21-56.21,33.84-43.72,27.2-57.79,35.55-60.66,34.83a1.78,1.78,0,0,1-1.12-.82c-1.15-2-1.39-2.41,55.51-43.8,19.79-14.39,43.52-31.65,52.53-39-11.74,5.59-42.76,25.05-68.49,41.18-45.61,28.62-66,41.07-69.63,40.17a1.91,1.91,0,0,1-1.19-.88c-1-1.79-1.16-2,36.29-30,8.91-6.67,19.15-14.34,26-19.69-9.74,5.57-25.52,15.32-39,23.7-38.09,23.56-50.36,30.8-52.87,30.16a1.71,1.71,0,0,1-1.08-.8c-1.12-1.93-1.42-2.45,41.42-33.89,9.64-7.07,20.1-14.75,26.8-19.91-9.63,5.47-26,15.7-39.94,24.45-38.65,24.2-52,32.13-55,31.39a1.81,1.81,0,0,1-1.15-.85c-1.14-2-1.28-2.22,43.72-32.42,15.67-10.51,35.51-23.82,46-31.51-10.47,5.92-28.71,17.28-45.39,27.66-47.08,29.28-64.39,39.52-67.76,38.68a1.88,1.88,0,0,1-1.18-.87c-1.17-2-1.45-2.51,51.38-39.35,17.81-12.43,39.06-27.25,48.1-34.32l-2,1.05c-5.1,3.08-11.87,7-20.72,12.11-10.65,6.49-22.85,14.15-33.89,21.08-43.41,27.25-57.43,35.61-60.55,34.84a1.86,1.86,0,0,1-1.16-.86,1.81,1.81,0,0,1-.22-.68,6.18,6.18,0,0,1-3.2.73,1.75,1.75,0,0,1-1.11-.83c-1.26-2.17-1.52-2.62,55.08-36.94,19.64-11.91,42.71-25.9,55-34.08-12.44,7-34.42,20.59-54.52,33-52.75,32.61-70.87,43.31-74.22,42.47a1.76,1.76,0,0,1-1.14-.84c-.72-1.24-1.12-1.94,10-9-10.64,6.19-15.21,8.3-16.66,7.94a1.73,1.73,0,0,1-1.09-.81c-1.12-2-1.24-2.15,41.57-28.7l9.88-6.13-11.13,6.86c-40.78,25.16-50.09,30.47-52.4,29.88a1.66,1.66,0,0,1-1.07-.79c-1-1.76-1.26-2.18,32.78-31.73,9.58-8.32,20.89-18.13,26.65-23.57-8.56,4.6-26.29,15.75-41.19,25.11-38.31,24.08-51.58,32-54.64,31.2a1.87,1.87,0,0,1-1.18-.86c-.39-.69-.68-1.19,1-2.68-3.41,1.68-5.36,2.29-6.29,2.06a1.85,1.85,0,0,1-1.17-.86c-1.17-2-1.35-2.34,45.71-31.1,9.69-5.93,20.4-12.47,29.64-18.24-3.73,2.12-8,4.52-12.82,7.24-6.92,4.27-14.08,8.74-20.79,12.92-44,27.46-58.23,35.89-61.28,35.12a1.81,1.81,0,0,1-1.05-.69,3.57,3.57,0,0,1-1.82.29,1.68,1.68,0,0,1-1.06-.79c-1.34-2.32.78-4.75,60.62-48.73,18.13-13.32,38.1-28,47.31-35.44-11.72,6.29-37.33,22.16-60.51,36.52-53.17,32.94-78.67,48.35-82.75,47.33a1.88,1.88,0,0,1-1.19-.88c-1.09-1.88-1.31-2.27,40.29-32.62,10.3-7.51,22.14-16.14,30.17-22.26-2.9,1.85-7.42,4.51-14.38,8.47-5.31,3.28-10.93,6.81-16.34,10.2-38.56,24.17-52.81,32.61-56,31.83a1.91,1.91,0,0,1-.47-.18c-2.2,1-3.43,1.37-4.09,1.21a1.73,1.73,0,0,1-1.08-.8c-1-1.82-1.26-2.2,36.16-32.83,9.63-7.88,20.15-16.49,26-21.62-9.82,5.24-30,17.76-46.89,28.29C827.79,115,816.86,121.5,814.47,120.9a1.72,1.72,0,0,1-1.08-.79c-1.07-1.86-1.26-2.2,41-35.67,16.16-12.8,35.55-28.15,42.86-34.81C886.57,54.69,857.54,72.8,833.5,87.8c-44.23,27.6-58.47,36.08-61.35,35.36a1.74,1.74,0,0,1-1.12-.83c-1.38-2.38.71-4.67,59.79-45.25,11.7-8,24.2-16.63,33.86-23.45-7.36,4.24-17.09,9.68-29.69,16.65l-15.2,9.44c-49.43,30.75-73.15,45.13-77.14,44.13a2.21,2.21,0,0,1-.59-.24,5.12,5.12,0,0,1-2.6.51,1.73,1.73,0,0,1-1.11-.82c-1-1.77-1.16-2,35.54-30.23,10.73-8.26,23.25-17.89,30.52-23.83-8.7,4.94-23.61,14.32-36.33,22.33-37,23.28-49.81,30.9-52.85,30.15a1.88,1.88,0,0,1-1.18-.87c-1-1.76-1.17-2,37.32-34C763,77.27,776.7,65.87,783.3,60c-9.72,5-31.51,18.69-49.72,30.15-39.35,24.75-52.08,32.34-55,31.61a1.86,1.86,0,0,1-1.16-.86c-1.3-2.24.32-4,50.78-37.37,16.64-11,36.47-24.09,45.18-30.61-.8.4-1.67.85-2.6,1.35-4.45,3.42-16.34,10.48-44.34,26.45-4.93,3-9.79,6.08-14.36,8.92-38.73,24.11-49.55,30.56-51.87,30a1.66,1.66,0,0,1-.51-.21c-6.58,3.64-10.32,5.21-11.71,4.86a1.88,1.88,0,0,1-1.18-.87c-.57-1-.91-1.58,3.9-4.89a4.45,4.45,0,0,1-2.28.39,1.79,1.79,0,0,1-1.12-.83c-1.41-2.44,1.08-4.93,66-45.12,7.25-4.48,14.8-9.16,21.81-13.54-5.67,3.25-12.27,7-19.9,11.3-6.08,3.77-12.21,7.58-18,11.22-49.27,30.68-66.22,40.75-69.49,39.93a2,2,0,0,1-.75-.37c-2.71,1.22-4.33,1.67-5.12,1.47a1.76,1.76,0,0,1-1.14-.84c-1.12-1.93-1.32-2.28,42.33-33.33,11-7.83,23.76-16.9,31.86-22.95-9.4,5.43-24.35,14.74-38.08,23.31-40.12,25-54,33.23-57,32.49a1.83,1.83,0,0,1-1.15-.85,1.66,1.66,0,0,1,.12-1.91c-4.94,2.67-7.45,3.62-8.48,3.36a1.71,1.71,0,0,1-1.1-.82c-1-1.78-1.17-2,35.15-31.19C636.93,80.05,651.9,68,658.71,62c-9,4.61-28.54,17-44.94,27.43-36.36,23.06-49,30.6-52,29.85a1.86,1.86,0,0,1-1.2-.87c-1.12-2-1.43-2.48,48.46-39.67,13.77-10.26,28.83-21.48,37-28-10.76,6-31.3,18.71-50,30.3-49.75,30.85-66.87,41-70.25,40.13a1.8,1.8,0,0,1-1.16-.86c-1.16-2-1.34-2.32,51.11-38.54,19.82-13.69,43.41-30,53.76-37.93-13,6.81-42.76,25.1-67.67,40.39-51.46,31.61-66.85,40.69-69.61,40a1.71,1.71,0,0,1-1.07-.8c-.58-1-.56-2,3.33-4.94-2.15.88-3.58,1.22-4.33,1a1.93,1.93,0,0,1-1.22-.89c-1-1.83-1.22-2.11,36.54-29.64,11.68-8.52,25.29-18.44,33.33-24.7C549.26,69.67,533,79.7,518.11,88.88c-40.28,24.83-53.23,32.46-55.8,31.81a1.73,1.73,0,0,1-1.08-.8C460.17,118,460,117.66,497.88,87c11.7-9.44,25.56-20.64,32.14-26.49-10,5.16-32.72,19.35-51.72,31.21-41.71,26-55.17,34-58.07,33.3a1.77,1.77,0,0,1-1.13-.84c-1.12-1.92-1.32-2.27,47.3-38,18.32-13.45,40.1-29.44,49.77-37.34-3,1.65-7,3.94-11.54,6.65-1.65,1-3.55,2.16-5.74,3.44-10.07,6.08-22.08,13.53-33.41,20.55-48,29.77-64.52,39.53-67.76,38.72a2,2,0,0,1-.52-.21c-8.72,4.95-13.52,7.1-15.14,6.69a1.84,1.84,0,0,1-1.19-.87c-1.44-2.49,1.11-5.12,67.59-48.27,22.37-14.52,47.13-30.59,57.14-38-12.56,6.3-43.45,25.6-69.17,41.67-51.1,31.92-73.91,45.81-77.92,44.81a1.9,1.9,0,0,1-1.21-.89c-1.06-1.84-1.25-2.17,36.84-31.64,11.78-9.11,25.71-19.88,32.54-25.66-9.65,5-30.41,18-47.81,29-36.53,22.93-47.55,29.5-50.2,28.84a1.74,1.74,0,0,1-1.11-.83c-1.05-1.8-1.23-2.13,37.36-33.06,11.85-9.51,25.79-20.68,33.12-27-9.72,5.36-28.63,17-44.6,26.88-40.6,25-53.66,32.73-56.23,32.08a1.68,1.68,0,0,1-1.07-.8c-1.16-2-1.44-2.49,44.52-34.59,15.86-11.08,34.76-24.28,43-30.84C372.7,61.1,347.16,77,325.83,90.3c-42.92,26.74-56.73,35-59.56,34.25a1.78,1.78,0,0,1-1.12-.82c-1.19-2.07-1.43-2.5,55.9-42.09,16.13-11.14,34.64-23.92,47.22-33-10.06,6-25.94,14.91-49.77,28.16l-8.22,5.11c-49.1,30.57-71,43.87-74.69,43a1.84,1.84,0,0,1-1.17-.86,1.68,1.68,0,0,1-.15-1.3,5.07,5.07,0,0,1,1.71-1.91,1.91,1.91,0,0,1-.56-.05,1.84,1.84,0,0,1-1.16-.85c-.87-1.52.55-2.75,4.26-5.39,2.48-1.77,6.1-4.17,11.07-7.33,9.18-5.86,21.56-13.43,33.53-20.76,9.36-5.73,19.33-11.83,27.3-16.84-11.26,6.63-26.24,16-38.62,23.65-38,23.64-46.12,28.31-48.31,27.76a1.66,1.66,0,0,1-1.07-.79c-1.09-1.9-1.39-2.41,41.44-37.12,10.25-8.31,21.47-17.41,27.55-22.65C280.74,66,257.23,80.56,237.54,92.78,198.34,117.11,187.38,123.62,185,123a1.71,1.71,0,0,1-1.07-.8c-1.19-2.06.17-3.85,43.45-37.88,13.29-10.46,29.12-22.91,36-29C253.26,60.4,228.9,75.68,208.61,88.4,165.9,115.19,151.16,124,148,123.2a1.85,1.85,0,0,1-1.17-.86c-1.35-2.34.46-4.25,56.43-39.78C221.46,71,242.88,57.43,253.66,49.84c-11.74,6.49-34.07,20.32-54.41,32.91-50.36,31.18-67.66,41.42-70.93,40.6a1.81,1.81,0,0,1-1.15-.84c-1.2-2.1-1.46-2.53,58.25-41.61C211,64.16,241.78,44,252.33,35.82,240.5,41.56,209.5,60.94,183.79,77,136,106.87,114.7,119.86,111,118.93a1.9,1.9,0,0,1-1.19-.87c-1.06-1.84-1.35-2.34,38.12-35.61C156.12,75.53,165,68,170.64,63.08,160.8,68.57,142.27,80,125.4,90.32c-44.16,27.14-58.34,35.48-61,34.8a1.71,1.71,0,0,1-1.08-.8C62.22,122.44,62,122.11,103,90.87c14.43-11,31.63-24.11,39-30.4-10.12,5-34.24,20.14-52.75,31.74-35.3,22.12-45.2,28-47.58,27.44a1.71,1.71,0,0,1-1.08-.8c-1.17-2-1.49-2.58,49.15-37.95,15.82-11.05,34.44-24.05,44.15-31.46-10.43,5.86-29.3,17.45-46.53,28C43,104.7,28.76,113.08,26.11,112.41a1.71,1.71,0,0,1-1.07-.8c-1.17-2-1.38-2.4,51.25-35.43,11.84-7.43,25.21-15.82,35.43-22.42-9.51,5.67-21.39,13-31.95,19.59C42,96.75,30.68,103.46,28.18,102.83a1.71,1.71,0,0,1-1.08-.8,1.65,1.65,0,0,1-.16-1.27c.22-.82,1.72-2.15,5.86-4.84-.71-1.36.25-2.22,19.18-18.2,4.59-3.88,9.8-8.27,13.74-11.7-4.71,2.84-10.83,6.78-15.88,10C31.8,87.69,28.06,89.8,26.33,89.38a1.68,1.68,0,0,1-1.09-.8c-.6-1-.68-1.18,8.34-18,1.46-2.72,3.11-5.8,4.36-8.19l-.14.1C34.4,65,33,66,31.75,65.73a1.74,1.74,0,0,1-1.19-.85c-.31-.54-.32-.55.21-7.2.09-1.16.2-2.53.28-3.67l-1.44,1c-3.42,2.45-4.62,3.21-5.73,3a1.66,1.66,0,0,1-1.1-.79c-.37-.65-.37-.65,1.11-5.47l.18-.57a1.75,1.75,0,0,1-1.29-.87,1.51,1.51,0,0,1,.55-2,1.43,1.43,0,0,1,.77-.2l.3-.3c.62-.63,1.26-1.28,2.19-1.16a1.64,1.64,0,0,1,1.21.81c.37.64.37.64-1,5.22-.1.31-.2.64-.3,1,.51-.35,1-.71,1.41-1,3.09-2.2,4-2.82,5-2.6a1.71,1.71,0,0,1,1.05.77c.32.54.32.55-.2,7.17-.1,1.27-.22,2.81-.31,4,.84-.58,1.83-1.32,2.54-1.87,3.25-2.44,4.39-3.22,5.53-3a1.72,1.72,0,0,1,1.14.82c.57,1,.57,1-6.43,14.07-2.39,4.46-5.4,10.09-7,13.39,4.13-2.22,12.22-7.44,19-11.82C66,62.08,71.45,58.82,73.42,59.3a1.78,1.78,0,0,1,1.12.82c.9,1.57,1,1.67-20.62,19.89-4.15,3.5-8.84,7.46-12.45,10.59,5.69-3.38,13.45-7.86,24-13.86,6-3.73,12.11-7.6,17.64-11.1,32.09-20.28,41.79-26.08,44.28-25.46a1.78,1.78,0,0,1,1.12.82,2.17,2.17,0,0,1,.17.42,2.56,2.56,0,0,1,1.05,0,1.73,1.73,0,0,1,1.08.8c1.2,2.09,1.42,2.47-52.87,36.54C66.08,86.13,52.7,94.53,42.7,101c12-7,28.54-17.18,43.05-26.1C130.33,47.53,139.8,42.1,142,42.67a1.7,1.7,0,0,1,1.05.78c1.27,2.21-.38,4.09-51.67,39.91C76.86,93.53,59.8,105.44,50.36,112.55c9-5.22,23.75-14.42,37.26-22.88C128.58,64,143.71,55,147,55.84a1.86,1.86,0,0,1,1.19.88c1.1,1.91,1.4,2.42-43.35,36.54-12.48,9.51-26.15,19.93-33.51,26,11-6,33.56-19.8,52.53-31.45,42.77-26.29,51.86-31.5,54-30.95a1.65,1.65,0,0,1,1,.77c1,1.67,1,1.8-29,27.15-12.31,10.39-28.31,23.87-34.65,30,10.81-5.11,41.58-24.34,67-40.24,49.32-30.83,71.35-44.24,75.28-43.26a1.87,1.87,0,0,1,1.21.88c1.44,2.5-1.28,5.27-71.63,51.32-18.94,12.39-39.72,26-50.3,33.47,13-7,39-23.1,60.91-36.68,46.64-28.88,61.62-37.75,64.44-37a1.67,1.67,0,0,1,1.09.81c1.38,2.38-.64,4.52-58.29,41.12-18,11.41-39.28,24.93-49.45,32.14,11.1-6,33-19.76,51.56-31.37,43.24-27.11,58.16-36,61.35-35.21a1.82,1.82,0,0,1,1.17.86c1.1,1.91,1.36,2.36-40.36,35.18-14,11-30.61,24.08-38.33,30.85,9.23-5,28-16.71,45.11-27.31,43.44-27,58.4-35.8,61.43-35a1.77,1.77,0,0,1,1.13.84c1,1.73,1.11,1.91-32.77,29.37-12.53,10.15-28.55,23.14-36.22,30,8.66-4.78,25.44-15.22,40.69-24.71,40.32-25.08,54.23-33.31,57.16-32.57a1.79,1.79,0,0,1,1.14.84c.87,1.51-.62,2.65-3.79,4.89-2.17,1.53-5.36,3.62-9.74,6.4C306.87,75.39,296.09,82,284.68,89c-8.09,5-17,10.38-24.84,15.29C267.2,100,276.61,94.64,288.49,88c8-4.92,16.18-10,23.89-14.73,50.23-31,66.33-40.6,69.23-39.87a1.77,1.77,0,0,1,1.1.82,1.8,1.8,0,0,1,.16,1.37,1.74,1.74,0,0,1-.2.42,4.06,4.06,0,0,1,1.86-.2,1.88,1.88,0,0,1,1.18.87c1.26,2.19,1.65,2.85-62.95,47.46C304.6,96.65,284.67,110.41,274.5,118c11.19-6.19,32.06-19.2,49.74-30.22,46-28.68,61.88-38.09,65.12-37.27a1.84,1.84,0,0,1,1.17.85c1.26,2.2-.26,4-48.15,37.45-13.09,9.14-28.42,19.85-37,26.3,10.65-5.91,30-17.86,46.47-28,41.21-25.42,50.59-30.78,52.82-30.22a1.69,1.69,0,0,1,1.06.78c1.06,1.85,1.28,2.23-38.95,34.48-11.45,9.18-25,20-31.93,26,9.17-5,27.2-16.31,42.42-25.86,38.66-24.27,52-32.21,55.05-31.47a1.86,1.86,0,0,1,1.16.86c1.06,1.84,1.28,2.22-37.51,32.22-11.87,9.19-26,20.1-32.48,25.64,12-5.77,44.46-26,71.34-42.84,50.34-31.44,72.81-45.12,76.7-44.15a1.85,1.85,0,0,1,1.2.88c1.37,2.36-.67,4.45-62.65,44.67C436,87.26,420.19,97.51,407.52,106c8.06-4.5,19.35-10.67,35.07-19.23l.51-.28,4.46-2.79c37.72-23.63,55-34.11,61.64-36.57,2.88-1.43,4.46-1.92,5.19-1.74a1.8,1.8,0,0,1,.94.6c4.31-2.28,6.5-3.07,7.42-2.84a1.73,1.73,0,0,1,1.08.8c1.2,2.08,1.56,2.71-55.65,44.72-15.43,11.32-32.36,23.75-40.91,30.51,10.61-5.74,31.68-18.89,49.44-30,42.1-26.28,55.68-34.34,58.63-33.61a1.85,1.85,0,0,1,1.14.84c1.06,1.85,1.29,2.24-36.71,32.93-11.32,9.14-24.68,19.93-31.47,25.91,9.92-5.32,30.74-18.15,48.24-28.94,40.09-24.72,48.64-29.61,50.78-29.06a1.69,1.69,0,0,1,1,.77c1.1,1.92,1.36,2.37-41.1,33.33-11.79,8.6-24.73,18-31.34,23.24,12.86-6.31,45.65-26.75,70.72-42.39,49.2-30.67,65-40.1,68.14-39.32a1.77,1.77,0,0,1,1.13.84c.64,1.1.54,2.16-5.35,6.26,3.14-1.5,4.95-2.07,5.75-1.86a1.74,1.74,0,0,1,1.1.82c1.22,2.11,1.59,2.75-59.95,45.25-16.77,11.58-35.19,24.31-44.38,31.14,12.44-6.53,39.06-23,61.4-36.89,43.57-27,56.64-34.78,59.25-34.13a1.71,1.71,0,0,1,1.08.8c1.1,1.9,1.29,2.24-44,36-16.11,12-35.31,26.31-43.56,33.18,9.17-4.77,28.61-17.1,44.9-27.43,36.72-23.28,48.63-30.41,51.67-29.67a1.88,1.88,0,0,1,1.18.87c1.06,1.84,1.28,2.22-38.8,34.44-11,8.79-22.92,18.42-29.48,24,9.84-5.33,29.49-17.56,46-27.86,39.11-24.34,51.72-31.81,54.41-31.14a1.76,1.76,0,0,1,1.11.82,1.84,1.84,0,0,1-.42,2.31c3.8-2,5.75-2.69,6.61-2.48a1.71,1.71,0,0,1,1.08.8c1.1,1.91,1.27,2.21-40.87,32.19-12.6,9-27.37,19.47-35.46,25.64,5.52-4,19.62-12.26,48.76-28.69,6.53-4,13.1-8.06,19.36-11.92C747.1,45.55,762,36.74,764.74,37.44A1.69,1.69,0,0,1,766,38.73l.19,0a1.84,1.84,0,0,1,1.16.85c1.22,2.12,1.41,2.45-52.52,35.84-20.68,12.8-45.1,27.91-57.27,36.26,10.88-6.14,29.91-18,47.3-28.9,43.15-27,63.89-39.57,67.59-38.65a1.88,1.88,0,0,1,1.2.88c.54.93.52,1.85-3.09,4.63a2.88,2.88,0,0,1,1.09,0,2.22,2.22,0,0,1,.77.38c3.65-1.75,5.79-2.42,6.79-2.16a1.84,1.84,0,0,1,1.19.87c1.29,2.24-.32,4-50.6,37.25-16,10.55-34.89,23-44.15,29.83C695.84,110.3,715.43,98,732,87.57c39.81-25,53.58-33.25,56.65-32.48a1.84,1.84,0,0,1,1.18.86c1,1.76,1.14,2-36.54,33.25-12,9.93-26.16,21.7-32.82,27.7,9.37-4.8,30.06-17.82,46-27.87,33.08-20.82,43.06-26.78,45.5-26.18a1.71,1.71,0,0,1,1.1.82c1,1.81,1.21,2.09-37.37,31.77-7.06,5.44-14.94,11.5-21.42,16.58,8.6-5.19,22-12.73,41.6-23.6l8.15-5.07C854.83,51.75,879.21,37,883.31,38a2,2,0,0,1,1.22.9,1.71,1.71,0,0,1,.16,1.33,2.21,2.21,0,0,1-.45.74c.85,1.87-1.8,4.29-51.72,38.58-20.1,13.81-44.09,30.28-54.12,38.14C789,112.05,811.5,98,831.92,85.26c45.63-28.47,66-40.86,69.75-39.92a1.89,1.89,0,0,1,1.2.87c1.11,1.93,1.45,2.52-46.61,40.58-13.08,10.36-27.42,21.71-35,28.13,9.27-5.15,26.57-15.91,41.23-25C901.76,65.51,914.42,58,917.18,58.72a1.73,1.73,0,0,1,1.11.82c1,1.7,1.11,1.92-31.44,28.56-9.91,8.12-21.41,17.53-28.56,23.72,4.53-2.94,12.63-7.64,26.56-15.47l8.86-5.53c36.36-22.7,48.12-29.66,50.85-29a1.73,1.73,0,0,1,.32.11c4.45-2.46,6.28-3.1,7.16-2.88a1.71,1.71,0,0,1,1.06.79c1.09,1.89,1.32,2.28-40.4,32.71-12.87,9.38-28.14,20.52-35.33,26.29C890.6,112.42,926,90.49,953,73.76c50.69-31.41,65.86-40.43,68.76-39.7a1.73,1.73,0,0,1,1.1.81c1.18,2,1.46,2.53-53.31,42.78-19,14-41.54,30.53-52.72,39.55,6-3.87,16.22-9.81,32.42-19,4.49-2.76,9-5.58,13.48-8.32,47.76-29.53,64.19-39.22,67.35-38.43a1.8,1.8,0,0,1,1.13.84,1.59,1.59,0,0,1,.21,1,1.88,1.88,0,0,1,.5.55c.86,1.48-.36,2.68-4.71,5.77-2.25,1.6-5.34,3.67-9.4,6.28,15.64-9.52,21.89-12.72,23.76-12.26a1.77,1.77,0,0,1,1.12.83c.62,1.07,1,1.66-5.81,6.13a4.84,4.84,0,0,1,2.56-.49,1.76,1.76,0,0,1,1.11.82c1,1.71,1.19,2.07-31.11,30.11-10.25,8.89-22.36,19.41-28.36,25.12,9.18-4.89,28.94-17.08,45.51-27.3,39.37-24.29,47.77-29.09,50-28.55a1.72,1.72,0,0,1,1,.79c1.17,2,1.38,2.39-46.6,32.13-5.37,3.34-11,6.8-16.21,10.08,12-7.2,26.53-16.22,40.24-24.71,52-32.2,77-47.26,80.9-46.26a1.88,1.88,0,0,1,1.18.87c.89,1.53-.25,2.77-6.4,6.94-.68.46-1.43,1-2.23,1.48,4.14-2.14,6.33-2.92,7.23-2.69a1.77,1.77,0,0,1,1.09.81c1.44,2.5-.82,4.75-64.77,43.53-14.62,8.87-30.41,18.45-41.14,25.26l2.78-1.61c3.19-2,7-4.21,11.54-6.86,11.56-7,25-15.29,37.2-22.8,47.86-29.58,63.23-38.67,66.15-37.94a1.71,1.71,0,0,1,1.26,2.13c-.22.8-1.64,2.1-4.83,4.28a1.77,1.77,0,0,1,.26.35c1.19,2.06,1.51,2.62-53.39,40.91-16.74,11.67-36.63,25.55-45.64,32.49,11.89-6.1,39-23,59.91-36,41-25.49,53.27-32.8,55.8-32.16a1.72,1.72,0,0,1,1.08.8c1.23,2.13,1.6,2.78-54.26,40.26-12.63,8.47-26.36,17.69-34.79,23.64,10.61-6,28.57-17.2,43.91-26.81,36.46-22.83,47.45-29.38,50-28.73a1.76,1.76,0,0,1,1.11.82c1,1.82,1.19,2-34.64,28.34-11.9,8.74-27,19.8-35,26.2,9.86-5.42,28.44-16.91,44.17-26.64,39-24.09,47.83-29.18,50-28.62a1.64,1.64,0,0,1,1.06.79c1,1.76,1.12,1.94-34.72,28.77-10.88,8.14-23.67,17.71-30.55,23.2,11.92-6.17,39-23.17,61.69-37.39,48-30.09,71-44.16,75.13-43.14a2,2,0,0,1,1.25.91c1.15,2,1.43,2.48-57.06,45-18.69,13.59-39.25,28.55-49,36.23,11-6,33.21-19.79,51.91-31.41,45.18-28.11,60.74-37.34,63.83-36.56a1.81,1.81,0,0,1,1.15.84c1.11,1.93,1.31,2.28-47,39.1-9.93,7.57-21.11,16.09-29.88,22.94,8.14-4.63,19.72-11.06,36.06-20l.51-.32c37.82-23.53,54.41-33.52,60.35-35.41,2.58-1.24,3.87-1.6,4.51-1.44a1.7,1.7,0,0,1,1,.77c1.09,1.9,1.29,2.24-40.08,31.75-11,7.88-23.65,16.87-32.67,23.58l.25-.14c5.55-3.21,13.64-7.73,25.32-14.21,3.77-2.32,7.53-4.65,11.14-6.89,38.55-23.87,47.36-28.91,49.59-28.35a1.67,1.67,0,0,1,1.22,2.09c-.2.72-1.38,1.83-4.31,3.79-1.59,2.41-8.21,8.43-30.88,28.42-10.36,9.12-22.65,20-28.44,25.53,1.78-.88,4-2.08,6.65-3.54,2.43-3.11,16-11.13,51.75-31l12.11-7.45c52.82-32.51,69.74-42.51,72.7-41.76a1.71,1.71,0,0,1,1.25,2.15,4.6,4.6,0,0,1-1.5,1.81,1.67,1.67,0,0,1,0,.8c-.18.67-1.26,1.73-4.09,3.67a1.94,1.94,0,0,1,.49.54c1.38,2.39-.6,4.36-61.06,41.1-8.69,5.28-17.79,10.81-26,15.84,5.26-3,11.63-6.59,19.3-10.91,6.25-3.88,12.48-7.78,18.24-11.38,39.67-24.81,51.6-31.92,54.17-31.28a1.52,1.52,0,0,1,.42.16c3.6-1.81,5.6-2.45,6.53-2.22a1.79,1.79,0,0,1,1.14.84c1.3,2.25-.37,4.14-52.25,39.84-14.52,10-30.44,20.94-38.86,27.21,11.11-6,33-19.6,51.51-31.1,38.27-23.8,49.76-30.62,52.21-30a1.71,1.71,0,0,1,1.08.8c.56,1,.55,1.87-3.51,4.87a.85.85,0,0,1,.23,0,1.79,1.79,0,0,1,1.12.83,1.59,1.59,0,0,1,.2.65,3.76,3.76,0,0,1,1.94-.31,1.67,1.67,0,0,1,.71.37c3.84-1.91,6-2.61,7-2.37a1.83,1.83,0,0,1,1.15.85c1,1.81,1.21,2.09-40.68,33.83-11.48,8.7-24.92,18.89-32.44,24.91,9.84-5.4,28.16-16.93,43.69-26.69,38.6-24.27,52-32.22,55-31.48a1.83,1.83,0,0,1,1.16.86c1.14,2,1.29,2.23-40.58,29.09-15,9.62-32.79,21-41.25,27.07,13.22-6.53,45.54-26.68,70.33-42.12,44.73-27.87,58.15-35.87,60.83-35.2a1.69,1.69,0,0,1,1.09.8c1.39,2.41-.64,4.45-62.73,43.22-17.15,10.7-35.88,22.4-46.33,29.4,12.25-6.75,34.33-20.51,53.1-32.2,41.63-25.94,54.15-33.38,56.85-32.71a1.71,1.71,0,0,1,1.1.82c1.12,1.93,1.29,2.23-45.11,35.32-16.46,11.74-35.88,25.59-45.71,33.24,9.33-5.27,25.55-15.36,40.38-24.57,40.49-25.16,54.45-33.41,57.33-32.69a1.76,1.76,0,0,1,1.12.83c1.08,1.87,1.17,2-36,26.66-10.92,7.24-24.18,16-33.67,22.61,5.9-3.61,13-8.05,19.6-12.24,30.07-19,40.51-25.14,43.15-24.49a1.88,1.88,0,0,1,1.15.85c1.07,1.86,1.23,2.15-35.07,27.48-5.62,3.92-11.57,8.08-16.55,11.6,7.18-4.29,16.2-10,23.73-14.7,24.55-15.46,29.17-18.1,30.91-17.67a1.66,1.66,0,0,1,1,.77c1,1.68,1,1.78-24.28,21.3-6,4.63-12.82,9.88-18,14,4.68-2.84,10.35-6.45,15.12-9.49,18.57-11.82,22.38-14,24-13.58a1.66,1.66,0,0,1,1.06.78c.62,1.08.62,1.08-7.3,13.18-1.3,2-2.75,4.2-4,6.07l2.1-1.52c4.56-3.31,6.14-4.37,7.44-4.09a1.68,1.68,0,0,1,1.14.83c.58,1,.62,1.05-3.49,5.87a1.93,1.93,0,0,1,.86,0,1.71,1.71,0,0,1,1.23.87,1.49,1.49,0,0,1-.55,2,1.46,1.46,0,0,1-1.13.15h0a28,28,0,0,0-2.63,2A25.42,25.42,0,0,1,1503.84,121.21Zm4.57-4.78h0ZM1277.36,112c6.77-3.75,16.16-9.39,26.36-15.65l-3.7,2.15c-9.14,5.59-16.44,10-22.11,13.16ZM1035,109.65l-.48.29c2.37-1.38,5-2.92,7.74-4.59C1039.63,106.94,1037.22,108.37,1035,109.65Zm-24.84,3.29c11.19-6.32,28-16.55,44.48-26.73C1038,96.07,1021.13,106.11,1010.19,112.94Zm106.34-68.16c-16.41,9.47-40.42,24.33-59.93,36.41Q1048,86.5,1040.78,91c6-3.56,12.73-7.56,20.36-12.07,24.72-14.62,54.15-32,66.94-40.54C1125,40,1121,42.18,1116.53,44.78ZM965.36,104l-5.21,3.18Zm19.11-17.35-6.56,4C967.56,97,956.51,103.74,948,109.11,958.23,103.06,971.94,94.5,984.47,86.65ZM756.54,54.71c-12.24,7.07-29.66,17.9-44.89,27.41C732.45,70,754.57,57,765,50,762.62,51.26,759.76,52.86,756.54,54.71ZM629,102.77c-4.81,2.86-9.4,5.61-13.41,8.06C619.59,108.48,624.16,105.72,629,102.77ZM503.82,115.69c10.54-6,27.06-16,43.82-26.29C530.71,99.29,514,109.15,503.82,115.69ZM620.87,42.55c-8.22,4.74-19.32,11.53-31.12,18.83,13.72-8.05,26.29-15.53,34.38-20.69ZM387.54,119.89l1-.49a1.42,1.42,0,0,1-.08-.18Z" transform="translate(0.07 0.52)"/><path class="cls-4" d="M1527.9,11.48V130.61H11.93V11.48a69.89,69.89,0,0,0,63.16,40,69.9,69.9,0,0,0,63.17-39.95h0a69.89,69.89,0,0,0,63.16,40,69.9,69.9,0,0,0,63.17-39.95h0a69.89,69.89,0,0,0,63.16,40,69.9,69.9,0,0,0,63.17-39.95h0a69.9,69.9,0,0,0,63.17,40,69.89,69.89,0,0,0,63.16-39.95h0a69.9,69.9,0,0,0,63.17,40,69.89,69.89,0,0,0,63.16-39.95h0a69.91,69.91,0,0,0,63.17,40,69.89,69.89,0,0,0,63.16-39.95h0a69.91,69.91,0,0,0,63.17,40,69.91,69.91,0,0,0,63.17-39.95h0a69.89,69.89,0,0,0,63.16,40,69.91,69.91,0,0,0,63.17-39.95h0a69.89,69.89,0,0,0,63.16,40,69.9,69.9,0,0,0,63.17-39.95h0a69.89,69.89,0,0,0,63.16,40,69.9,69.9,0,0,0,63.17-39.95h0a69.9,69.9,0,0,0,63.17,40,69.89,69.89,0,0,0,63.16-39.95h0a69.9,69.9,0,0,0,63.17,40,69.89,69.89,0,0,0,63.16-39.95m0-5a5,5,0,0,0-4.51,2.86,65.26,65.26,0,0,1-58.65,37.09,65.23,65.23,0,0,1-58.65-37.09,5,5,0,0,0-9,0,65.23,65.23,0,0,1-58.64,37.09,65.23,65.23,0,0,1-58.65-37.09,5,5,0,0,0-9,0,65.23,65.23,0,0,1-58.65,37.09,65.26,65.26,0,0,1-58.65-37.09,5,5,0,0,0-9,0,65.23,65.23,0,0,1-58.65,37.09,65.26,65.26,0,0,1-58.65-37.09,5,5,0,0,0-9,0,65.24,65.24,0,0,1-58.65,37.09A65.26,65.26,0,0,1,900.76,9.34a5,5,0,0,0-9,0,65.26,65.26,0,0,1-58.65,37.09A65.26,65.26,0,0,1,774.43,9.34a5,5,0,0,0-9,0,65.26,65.26,0,0,1-58.65,37.09A65.24,65.24,0,0,1,648.1,9.34a5,5,0,0,0-9,0,65.26,65.26,0,0,1-58.65,37.09A65.23,65.23,0,0,1,521.77,9.34a5,5,0,0,0-9,0,65.26,65.26,0,0,1-58.65,37.09A65.23,65.23,0,0,1,395.44,9.34a5,5,0,0,0-9,0,65.23,65.23,0,0,1-58.65,37.09A65.23,65.23,0,0,1,269.11,9.34a5,5,0,0,0-9,0,65.23,65.23,0,0,1-58.65,37.09A65.26,65.26,0,0,1,142.77,9.34a5,5,0,0,0-9,0A65.24,65.24,0,0,1,75.09,46.43,65.26,65.26,0,0,1,16.44,9.34a5,5,0,0,0-4.51-2.86,4.53,4.53,0,0,0-1.1.13,5,5,0,0,0-3.9,4.87V130.61a5,5,0,0,0,5,5h1516a5,5,0,0,0,5-5V11.48a5,5,0,0,0-3.9-4.87,4.65,4.65,0,0,0-1.1-.13Z" transform="translate(0.07 0.52)"/><g class="cls-5"><path class="cls-6" d="M67.14,69.13c39.35,7.09,55.56-17.75,62.05-43.34a69.76,69.76,0,0,1-54.1,25.64A69.89,69.89,0,0,1,11.93,11.48S17.34,60.15,67.14,69.13Z" transform="translate(0.07 0.52)"/><path class="cls-6" d="M193,69.13c39,7,55.24-17.26,61.85-42.59a69.73,69.73,0,0,1-53.46,24.89,69.89,69.89,0,0,1-63.16-39.95h0c-.11.24-.23.47-.35.7C138.8,18.13,146.73,60.78,193,69.13Z" transform="translate(0.07 0.52)"/><path class="cls-6" d="M318.92,69.13c38.57,7,54.91-16.78,61.65-41.83a69.71,69.71,0,0,1-52.82,24.13,69.89,69.89,0,0,1-63.16-39.95h0c-.22.47-.45.92-.68,1.38C265.23,20.81,274.09,61.05,318.92,69.13Z" transform="translate(0.07 0.52)"/><path class="cls-6" d="M444.81,69.13C483,76,499.4,52.8,506.26,28a69.68,69.68,0,0,1-52.17,23.41,69.9,69.9,0,0,1-63.17-39.95h0c-.32.69-.66,1.36-1,2C391.59,22.81,401.11,61.25,444.81,69.13Z" transform="translate(0.07 0.52)"/><path class="cls-6" d="M570.7,69.13C608.54,76,625,53.24,632,28.72a69.69,69.69,0,0,1-51.54,22.71,69.9,69.9,0,0,1-63.17-39.95h0c-.42.9-.87,1.78-1.33,2.65C517.89,24.4,527.91,61.42,570.7,69.13Z" transform="translate(0.07 0.52)"/><path class="cls-6" d="M696.59,69.13c37.47,6.75,53.95-15.45,61-39.69a69.69,69.69,0,0,1-50.89,22,69.91,69.91,0,0,1-63.17-39.95h0c-.52,1.1-1.08,2.18-1.66,3.25C644.16,25.76,654.59,61.56,696.59,69.13Z" transform="translate(0.07 0.52)"/><path class="cls-6" d="M822.48,69.13c37.13,6.69,53.66-15.06,60.85-39a69.66,69.66,0,0,1-50.25,21.34,69.91,69.91,0,0,1-63.17-39.95h0c-.61,1.31-1.28,2.58-2,3.84C770.42,27,781.2,61.69,822.48,69.13Z" transform="translate(0.07 0.52)"/><path class="cls-6" d="M948.37,69.13c36.8,6.63,53.36-14.67,60.66-38.39a69.65,69.65,0,0,1-49.62,20.69,69.89,69.89,0,0,1-63.16-39.95h0c-.72,1.51-1.48,3-2.3,4.42C896.66,28.08,907.75,61.81,948.37,69.13Z" transform="translate(0.07 0.52)"/><path class="cls-6" d="M1074.26,69.13c36.46,6.57,53-14.28,60.45-37.74a69.64,69.64,0,0,1-49,20,69.89,69.89,0,0,1-63.16-39.95h0q-1.22,2.55-2.62,5C1022.88,29.05,1034.22,61.91,1074.26,69.13Z" transform="translate(0.07 0.52)"/><path class="cls-6" d="M1200.15,69.13c36.14,6.51,52.76-13.92,60.26-37.13a69.65,69.65,0,0,1-48.34,19.43,69.89,69.89,0,0,1-63.16-39.95h0q-1.35,2.82-2.93,5.5C1149.09,30,1160.67,62,1200.15,69.13Z" transform="translate(0.07 0.52)"/><path class="cls-6" d="M1326,69.13c35.82,6.46,52.47-13.56,60.06-36.52a69.62,69.62,0,0,1-47.69,18.82,69.9,69.9,0,0,1-63.17-39.95h0c-1,2.07-2.07,4.08-3.24,6C1275.29,30.82,1287.09,62.11,1326,69.13Z" transform="translate(0.07 0.52)"/><path class="cls-6" d="M1451.93,69.13c35.52,6.4,52.19-13.22,59.87-35.93a69.63,69.63,0,0,1-47.06,18.23,69.9,69.9,0,0,1-63.17-39.95h0A69.89,69.89,0,0,1,1398,18C1401.49,31.61,1413.48,62.2,1451.93,69.13Z" transform="translate(0.07 0.52)"/></g></svg>